%TF.GenerationSoftware,KiCad,Pcbnew,9.0.3*%
%TF.CreationDate,2025-07-19T19:29:57+01:00*%
%TF.ProjectId,GhostPAW,47686f73-7450-4415-972e-6b696361645f,rev?*%
%TF.SameCoordinates,Original*%
%TF.FileFunction,Copper,L2,Inr*%
%TF.FilePolarity,Positive*%
%FSLAX46Y46*%
G04 Gerber Fmt 4.6, Leading zero omitted, Abs format (unit mm)*
G04 Created by KiCad (PCBNEW 9.0.3) date 2025-07-19 19:29:57*
%MOMM*%
%LPD*%
G01*
G04 APERTURE LIST*
G04 Aperture macros list*
%AMRotRect*
0 Rectangle, with rotation*
0 The origin of the aperture is its center*
0 $1 length*
0 $2 width*
0 $3 Rotation angle, in degrees counterclockwise*
0 Add horizontal line*
21,1,$1,$2,0,0,$3*%
G04 Aperture macros list end*
%TA.AperFunction,ComponentPad*%
%ADD10C,1.600200*%
%TD*%
%TA.AperFunction,ComponentPad*%
%ADD11RotRect,2.010000X2.010000X111.000000*%
%TD*%
%TA.AperFunction,ComponentPad*%
%ADD12C,2.010000*%
%TD*%
%TA.AperFunction,ComponentPad*%
%ADD13C,1.447800*%
%TD*%
G04 APERTURE END LIST*
D10*
%TO.N,N/C*%
%TO.C,U6*%
X158732815Y-70276141D03*
X162633472Y-71105251D03*
%TD*%
%TO.N,RUMBLE+*%
%TO.C,M1*%
X165200000Y-118780000D03*
%TO.N,RUMBLE-*%
X167800000Y-118780000D03*
%TO.N,N/C*%
X167800000Y-116000000D03*
X167800000Y-109500001D03*
%TD*%
D11*
%TO.N,GND*%
%TO.C,H1*%
X128915322Y-133308780D03*
D12*
%TO.N,GC_AUX_DATA*%
X134965558Y-125630587D03*
%TO.N,+5V*%
X128999999Y-124600001D03*
%TO.N,+3V3*%
X137597620Y-129975958D03*
%TD*%
D13*
%TO.N,N/C*%
%TO.C,SW2*%
X145929085Y-119285476D03*
X150684367Y-117740391D03*
%TD*%
%TA.AperFunction,Conductor*%
%TO.N,GND*%
G36*
X141017707Y-67990506D02*
G01*
X141042034Y-67991685D01*
X141042930Y-67991223D01*
X141048747Y-67991388D01*
X142031203Y-68020283D01*
X142038442Y-68021026D01*
X142116475Y-68034847D01*
X142126700Y-68036658D01*
X142138354Y-68040231D01*
X142218099Y-68075814D01*
X142228544Y-68082103D01*
X142297302Y-68135924D01*
X142305914Y-68144552D01*
X142359606Y-68213415D01*
X142365874Y-68223871D01*
X142402768Y-68306975D01*
X142404900Y-68312696D01*
X142411704Y-68335039D01*
X142415186Y-68340624D01*
X142414666Y-68340948D01*
X142421833Y-68351705D01*
X142445764Y-68415996D01*
X142461928Y-68459422D01*
X142462677Y-68466613D01*
X142468839Y-68477989D01*
X142470062Y-68481275D01*
X142470063Y-68481277D01*
X142473355Y-68490120D01*
X142473356Y-68490121D01*
X142473950Y-68490760D01*
X142481299Y-68500995D01*
X142515124Y-68563444D01*
X142518949Y-68570505D01*
X142519629Y-68574285D01*
X142528416Y-68587982D01*
X142536164Y-68602285D01*
X142536166Y-68602288D01*
X142539308Y-68606074D01*
X142538935Y-68606383D01*
X142543484Y-68611467D01*
X142616397Y-68725112D01*
X142617878Y-68730244D01*
X142627107Y-68741807D01*
X142628498Y-68743975D01*
X142628507Y-68743988D01*
X142635104Y-68754270D01*
X142635106Y-68754271D01*
X142638520Y-68757815D01*
X142638500Y-68757834D01*
X142644035Y-68763016D01*
X142693435Y-68824907D01*
X142694262Y-68827321D01*
X142705838Y-68840449D01*
X142706603Y-68841407D01*
X142706612Y-68841417D01*
X142716787Y-68854165D01*
X142718442Y-68855561D01*
X142723704Y-68860708D01*
X142778959Y-68923368D01*
X142815201Y-68964466D01*
X142816471Y-68967522D01*
X142828352Y-68979379D01*
X142839457Y-68991972D01*
X142839458Y-68991972D01*
X142843243Y-68994860D01*
X142848232Y-68999219D01*
X142902687Y-69053564D01*
X142903290Y-69054907D01*
X142916778Y-69067628D01*
X142917279Y-69068128D01*
X142917280Y-69068129D01*
X142930510Y-69081332D01*
X142935621Y-69085399D01*
X143030749Y-69175114D01*
X143035315Y-69179420D01*
X143036129Y-69181073D01*
X143049812Y-69193092D01*
X143063063Y-69205589D01*
X143063072Y-69205597D01*
X143069492Y-69210379D01*
X143124949Y-69259091D01*
X143125332Y-69259839D01*
X143139962Y-69272279D01*
X143140239Y-69272522D01*
X143140248Y-69272530D01*
X143156156Y-69286503D01*
X143159297Y-69288718D01*
X143258000Y-69372646D01*
X143258615Y-69373777D01*
X143273205Y-69385575D01*
X143287480Y-69397713D01*
X143288428Y-69398519D01*
X143293192Y-69401737D01*
X143341517Y-69440814D01*
X143341519Y-69440816D01*
X143345760Y-69444245D01*
X143346182Y-69444993D01*
X143361242Y-69456767D01*
X143361555Y-69457020D01*
X143361608Y-69457062D01*
X143378001Y-69470317D01*
X143381297Y-69472445D01*
X143476309Y-69546723D01*
X143477280Y-69548306D01*
X143491997Y-69558988D01*
X143506344Y-69570204D01*
X143506347Y-69570205D01*
X143506367Y-69570215D01*
X143513223Y-69574394D01*
X143519926Y-69579259D01*
X143559329Y-69607859D01*
X143559330Y-69607859D01*
X143564144Y-69611353D01*
X143564958Y-69612599D01*
X143580273Y-69623060D01*
X143595297Y-69633965D01*
X143595298Y-69633965D01*
X143595922Y-69634418D01*
X143601653Y-69637664D01*
X143697433Y-69703089D01*
X143699295Y-69705596D01*
X143713869Y-69714316D01*
X143727874Y-69723883D01*
X143727880Y-69723884D01*
X143731620Y-69725479D01*
X143737691Y-69728570D01*
X143791377Y-69760694D01*
X143792795Y-69762440D01*
X143808450Y-69770910D01*
X143823753Y-69780067D01*
X143823755Y-69780068D01*
X143824896Y-69780475D01*
X143831887Y-69783590D01*
X143936901Y-69840410D01*
X143939746Y-69843393D01*
X143954363Y-69849857D01*
X143956118Y-69850807D01*
X143956120Y-69850808D01*
X143968439Y-69857474D01*
X143973143Y-69858927D01*
X143973026Y-69859303D01*
X143979755Y-69861089D01*
X144043746Y-69889393D01*
X144045633Y-69891183D01*
X144061953Y-69897446D01*
X144077935Y-69904515D01*
X144077936Y-69904515D01*
X144080201Y-69905022D01*
X144087203Y-69907135D01*
X144133622Y-69924950D01*
X144203730Y-69951856D01*
X144203731Y-69951856D01*
X144211053Y-69954666D01*
X144214351Y-69957319D01*
X144229597Y-69961782D01*
X144244430Y-69967475D01*
X144244434Y-69967474D01*
X144249285Y-69968308D01*
X144249224Y-69968663D01*
X144256187Y-69969566D01*
X144335807Y-69992878D01*
X144337764Y-69994308D01*
X144354922Y-69998474D01*
X144371854Y-70003432D01*
X144371854Y-70003431D01*
X144371855Y-70003432D01*
X144373594Y-70003586D01*
X144380971Y-70004800D01*
X144531321Y-70041312D01*
X144534480Y-70043289D01*
X144550641Y-70046004D01*
X144552383Y-70046427D01*
X144566554Y-70049869D01*
X144571475Y-70050075D01*
X144571452Y-70050600D01*
X144578211Y-70050635D01*
X144675854Y-70067040D01*
X144677655Y-70068070D01*
X144695510Y-70070343D01*
X144713241Y-70073322D01*
X144713245Y-70073320D01*
X144713904Y-70073302D01*
X144721713Y-70073678D01*
X144900999Y-70096503D01*
X144903873Y-70097919D01*
X144920737Y-70099016D01*
X144937488Y-70101149D01*
X144937494Y-70101147D01*
X144941842Y-70100844D01*
X144948580Y-70100828D01*
X144948826Y-70100844D01*
X145064086Y-70108345D01*
X145065746Y-70109092D01*
X145083979Y-70109640D01*
X145102170Y-70110824D01*
X145102170Y-70110823D01*
X145102233Y-70110828D01*
X145110146Y-70110426D01*
X145315601Y-70116603D01*
X145318314Y-70117646D01*
X145335502Y-70117202D01*
X145352666Y-70117718D01*
X145352676Y-70117714D01*
X145355943Y-70117166D01*
X145362927Y-70116493D01*
X145493562Y-70113119D01*
X145495182Y-70113681D01*
X145513501Y-70112604D01*
X145531821Y-70112131D01*
X145531822Y-70112130D01*
X145532106Y-70112123D01*
X145539524Y-70111074D01*
X145764681Y-70097840D01*
X145767414Y-70098624D01*
X145784552Y-70096672D01*
X145801758Y-70095661D01*
X145801760Y-70095659D01*
X145804776Y-70094874D01*
X145811739Y-70093575D01*
X145952083Y-70077594D01*
X145953768Y-70078017D01*
X145971878Y-70075339D01*
X145976252Y-70074841D01*
X145990303Y-70073242D01*
X145997709Y-70071520D01*
X146233856Y-70036613D01*
X146236774Y-70037171D01*
X146253541Y-70033703D01*
X146270472Y-70031201D01*
X146273826Y-70030003D01*
X146280515Y-70028125D01*
X146424394Y-69998373D01*
X146426230Y-69998657D01*
X146443888Y-69994342D01*
X146461727Y-69990654D01*
X146461731Y-69990651D01*
X146461759Y-69990640D01*
X146469380Y-69988114D01*
X146707091Y-69930038D01*
X146710300Y-69930331D01*
X146726406Y-69925319D01*
X146742800Y-69921314D01*
X146742803Y-69921311D01*
X146746831Y-69919435D01*
X146753086Y-69917016D01*
X146894490Y-69873017D01*
X146896523Y-69873123D01*
X146913509Y-69867099D01*
X146930723Y-69861743D01*
X146930728Y-69861738D01*
X146931205Y-69861480D01*
X146938378Y-69858279D01*
X147168967Y-69776508D01*
X147172521Y-69776450D01*
X147187699Y-69769866D01*
X147203300Y-69764334D01*
X147203301Y-69764332D01*
X147207532Y-69761812D01*
X147207831Y-69762314D01*
X147213444Y-69758697D01*
X147347683Y-69700472D01*
X147349937Y-69700337D01*
X147365953Y-69692547D01*
X147382294Y-69685460D01*
X147382295Y-69685458D01*
X147382297Y-69685458D01*
X147383311Y-69684756D01*
X147389912Y-69680895D01*
X147399270Y-69676344D01*
X147606075Y-69575770D01*
X147609995Y-69575233D01*
X147623944Y-69567080D01*
X147638474Y-69560014D01*
X147638477Y-69560010D01*
X147642402Y-69557034D01*
X147642673Y-69557392D01*
X147647983Y-69553029D01*
X147771450Y-69480868D01*
X147773922Y-69480407D01*
X147788634Y-69470824D01*
X147803797Y-69461963D01*
X147803801Y-69461957D01*
X147805330Y-69460603D01*
X147811214Y-69456119D01*
X148000739Y-69332683D01*
X148007242Y-69328448D01*
X148011481Y-69327278D01*
X148023883Y-69317610D01*
X148037061Y-69309028D01*
X148037063Y-69309024D01*
X148040585Y-69305585D01*
X148040801Y-69305806D01*
X148045664Y-69300630D01*
X148155483Y-69215029D01*
X148158117Y-69214148D01*
X148171175Y-69202796D01*
X148184827Y-69192156D01*
X148184830Y-69192150D01*
X148186726Y-69189956D01*
X148191763Y-69184900D01*
X148363516Y-69035610D01*
X148367904Y-69033675D01*
X148378495Y-69022590D01*
X148390072Y-69012528D01*
X148390075Y-69012520D01*
X148393087Y-69008633D01*
X148393234Y-69008747D01*
X148397436Y-69002766D01*
X148491701Y-68904114D01*
X148494352Y-68902759D01*
X148505443Y-68889732D01*
X148517266Y-68877360D01*
X148517266Y-68877358D01*
X148517268Y-68877357D01*
X148519191Y-68874332D01*
X148523321Y-68868735D01*
X148530156Y-68860708D01*
X148972995Y-68340626D01*
X148983345Y-68331430D01*
X149075194Y-68270276D01*
X149082954Y-68266049D01*
X149191602Y-68218791D01*
X149199980Y-68215999D01*
X149315260Y-68188623D01*
X149323997Y-68187351D01*
X149444769Y-68180578D01*
X149447563Y-68180501D01*
X149448387Y-68180500D01*
X149473644Y-68181323D01*
X149475182Y-68180500D01*
X149482928Y-68180500D01*
X152356785Y-68180500D01*
X152365461Y-68182417D01*
X152365644Y-68181368D01*
X152372126Y-68182498D01*
X152372128Y-68182499D01*
X152372129Y-68182498D01*
X152372130Y-68182499D01*
X152385282Y-68181323D01*
X152392264Y-68180698D01*
X152394582Y-68180545D01*
X152395636Y-68180500D01*
X152409991Y-68180500D01*
X152411638Y-68179817D01*
X152417755Y-68179556D01*
X152417863Y-68179595D01*
X152418423Y-68179532D01*
X152457885Y-68178378D01*
X152463851Y-68178561D01*
X152519592Y-68183627D01*
X152525492Y-68184523D01*
X152564001Y-68192751D01*
X152564509Y-68192863D01*
X152569847Y-68194064D01*
X152570688Y-68194628D01*
X152585525Y-68197594D01*
X152586072Y-68197718D01*
X152586137Y-68197764D01*
X152588428Y-68198310D01*
X152609099Y-68204041D01*
X152609102Y-68204040D01*
X152613401Y-68204077D01*
X152622778Y-68205045D01*
X158363293Y-69353148D01*
X158395090Y-69374442D01*
X158402516Y-69411983D01*
X158381222Y-69443780D01*
X158372622Y-69448371D01*
X158305275Y-69476267D01*
X158157441Y-69575045D01*
X158031719Y-69700767D01*
X157932941Y-69848601D01*
X157932940Y-69848603D01*
X157864901Y-70012862D01*
X157864901Y-70012864D01*
X157830215Y-70187239D01*
X157830215Y-70365042D01*
X157864901Y-70539417D01*
X157864901Y-70539419D01*
X157932940Y-70703678D01*
X157932941Y-70703680D01*
X158025343Y-70841972D01*
X158031720Y-70851515D01*
X158157441Y-70977236D01*
X158305274Y-71076014D01*
X158469536Y-71144054D01*
X158643917Y-71178741D01*
X158643923Y-71178741D01*
X158821707Y-71178741D01*
X158821713Y-71178741D01*
X158996094Y-71144054D01*
X159160356Y-71076014D01*
X159308189Y-70977236D01*
X159433910Y-70851515D01*
X159532688Y-70703682D01*
X159600728Y-70539420D01*
X159635415Y-70365039D01*
X159635415Y-70187243D01*
X159600728Y-70012862D01*
X159532688Y-69848600D01*
X159433910Y-69700767D01*
X159383811Y-69650668D01*
X159369166Y-69615313D01*
X159383811Y-69579958D01*
X159419166Y-69565313D01*
X159428971Y-69566283D01*
X162343692Y-70149228D01*
X162375488Y-70170522D01*
X162382914Y-70208063D01*
X162361620Y-70239860D01*
X162353019Y-70244451D01*
X162205934Y-70305376D01*
X162205932Y-70305377D01*
X162058098Y-70404155D01*
X161932376Y-70529877D01*
X161833598Y-70677711D01*
X161833597Y-70677713D01*
X161765558Y-70841972D01*
X161765558Y-70841974D01*
X161730872Y-71016349D01*
X161730872Y-71194152D01*
X161765558Y-71368527D01*
X161765558Y-71368529D01*
X161827489Y-71518041D01*
X161833599Y-71532792D01*
X161932377Y-71680625D01*
X162058098Y-71806346D01*
X162205931Y-71905124D01*
X162370193Y-71973164D01*
X162544574Y-72007851D01*
X162544580Y-72007851D01*
X162722364Y-72007851D01*
X162722370Y-72007851D01*
X162896751Y-71973164D01*
X163061013Y-71905124D01*
X163208846Y-71806346D01*
X163334567Y-71680625D01*
X163433345Y-71532792D01*
X163501385Y-71368530D01*
X163536072Y-71194149D01*
X163536072Y-71016353D01*
X163501385Y-70841972D01*
X163433345Y-70677710D01*
X163334567Y-70529877D01*
X163223244Y-70418554D01*
X163208599Y-70383199D01*
X163223244Y-70347844D01*
X163258599Y-70333199D01*
X163268398Y-70334169D01*
X166458133Y-70972116D01*
X166464168Y-70973325D01*
X166464380Y-70973510D01*
X166488641Y-70978229D01*
X166488674Y-70978251D01*
X166493175Y-70979360D01*
X166616513Y-71016358D01*
X166655217Y-71027968D01*
X166664386Y-71031745D01*
X166811429Y-71110192D01*
X166819673Y-71115705D01*
X166948341Y-71221630D01*
X166955334Y-71228661D01*
X167060566Y-71357897D01*
X167066034Y-71366170D01*
X167143690Y-71513632D01*
X167147418Y-71522822D01*
X167194442Y-71682708D01*
X167196283Y-71692453D01*
X167210827Y-71858475D01*
X167210709Y-71868390D01*
X167191842Y-72037242D01*
X167191070Y-72042029D01*
X167190977Y-72042467D01*
X167186091Y-72065323D01*
X167186124Y-72065427D01*
X167184752Y-72071923D01*
X167184750Y-72071924D01*
X167184750Y-72071934D01*
X166138586Y-77016536D01*
X166138459Y-77016898D01*
X166134428Y-77036095D01*
X166134411Y-77036180D01*
X166117677Y-77115171D01*
X166119552Y-77249731D01*
X166119553Y-77249740D01*
X166150871Y-77380618D01*
X166210115Y-77501464D01*
X166294392Y-77606376D01*
X166294394Y-77606378D01*
X166294397Y-77606381D01*
X166399625Y-77690280D01*
X166399626Y-77690280D01*
X166399627Y-77690281D01*
X166520678Y-77749078D01*
X166520684Y-77749080D01*
X166614458Y-77771157D01*
X166651679Y-77779920D01*
X166699595Y-77780328D01*
X166700009Y-77780500D01*
X166719437Y-77780500D01*
X166719552Y-77780500D01*
X166719748Y-77780503D01*
X166750728Y-77780821D01*
X166753269Y-77780500D01*
X168416646Y-77780500D01*
X168423364Y-77780502D01*
X168423611Y-77780643D01*
X168447843Y-77780513D01*
X168447888Y-77780532D01*
X168453486Y-77780836D01*
X168539662Y-77790693D01*
X168551225Y-77793439D01*
X168624167Y-77820266D01*
X168629794Y-77822336D01*
X168640393Y-77827743D01*
X168709900Y-77874379D01*
X168718921Y-77882136D01*
X168775444Y-77943876D01*
X168782378Y-77953547D01*
X168822710Y-78026894D01*
X168827162Y-78037927D01*
X168844583Y-78102315D01*
X168846037Y-78110077D01*
X169039011Y-79921283D01*
X169039013Y-79921362D01*
X169039496Y-79925881D01*
X169041848Y-79947908D01*
X169043735Y-79965611D01*
X169043739Y-79965619D01*
X169044215Y-79970076D01*
X169044216Y-79970078D01*
X169115464Y-80637094D01*
X169115466Y-80637211D01*
X169115928Y-80641517D01*
X169118097Y-80661742D01*
X169120179Y-80681226D01*
X169120188Y-80681243D01*
X169120720Y-80686198D01*
X169120721Y-80686200D01*
X169229103Y-81696446D01*
X169229105Y-81696529D01*
X169231867Y-81722213D01*
X169232155Y-81724895D01*
X169233839Y-81740584D01*
X169233843Y-81740592D01*
X169234370Y-81745489D01*
X169234371Y-81745491D01*
X169304380Y-82396326D01*
X169304382Y-82396440D01*
X169306925Y-82419983D01*
X169306927Y-82420003D01*
X169309659Y-82445395D01*
X169309683Y-82445511D01*
X169415968Y-83429273D01*
X169415967Y-83429273D01*
X169416418Y-83433453D01*
X169416417Y-83433462D01*
X169418010Y-83448169D01*
X169418336Y-83451185D01*
X169418379Y-83451581D01*
X169418379Y-83451593D01*
X169418381Y-83451593D01*
X169421190Y-83477587D01*
X169421201Y-83477641D01*
X169490145Y-84114176D01*
X169490140Y-84114196D01*
X169492310Y-84134156D01*
X169492312Y-84134178D01*
X169494952Y-84158557D01*
X169494972Y-84158658D01*
X169598346Y-85109559D01*
X169598855Y-85114239D01*
X169598852Y-85114250D01*
X169600919Y-85133238D01*
X169601149Y-85135347D01*
X169601197Y-85135782D01*
X169601198Y-85135794D01*
X169603652Y-85158372D01*
X169603661Y-85158420D01*
X169670030Y-85767845D01*
X169670475Y-85771930D01*
X169670473Y-85771939D01*
X169672433Y-85789906D01*
X169672432Y-85789907D01*
X169672433Y-85789907D01*
X169675281Y-85816063D01*
X169675290Y-85816105D01*
X169756852Y-86563839D01*
X169756855Y-86563855D01*
X169775485Y-86734616D01*
X169775485Y-86734617D01*
X169846345Y-87384207D01*
X169846345Y-87384221D01*
X169846347Y-87384221D01*
X169947199Y-88311082D01*
X169947200Y-88311101D01*
X169947201Y-88311101D01*
X170012676Y-88914864D01*
X170012668Y-88914889D01*
X170012681Y-88914916D01*
X170107696Y-89799808D01*
X170107701Y-89799855D01*
X170169593Y-90381473D01*
X170169605Y-90381587D01*
X170258678Y-91237189D01*
X170258682Y-91237280D01*
X170258688Y-91237280D01*
X170316398Y-91801528D01*
X170316417Y-91801721D01*
X170398996Y-92641260D01*
X170399009Y-92641399D01*
X170452433Y-93200619D01*
X170452458Y-93200890D01*
X170515723Y-93903441D01*
X170526952Y-94028138D01*
X170528522Y-94045567D01*
X170528538Y-94045746D01*
X170577619Y-94613739D01*
X170577646Y-94614060D01*
X170647300Y-95485391D01*
X170647315Y-95485589D01*
X170692165Y-96076165D01*
X170692189Y-96076493D01*
X170753415Y-96959681D01*
X170755744Y-96993279D01*
X170773516Y-97264720D01*
X170796625Y-97617659D01*
X170796644Y-97617958D01*
X170854512Y-98591176D01*
X170854521Y-98591341D01*
X170891765Y-99254693D01*
X170891771Y-99254939D01*
X170891779Y-99254939D01*
X170944559Y-100285334D01*
X170944565Y-100285462D01*
X170978577Y-100984595D01*
X170978585Y-100984773D01*
X171026874Y-102055935D01*
X171026875Y-102056022D01*
X171026878Y-102056022D01*
X171058088Y-102775735D01*
X171058092Y-102775839D01*
X171102601Y-103853953D01*
X171102601Y-103853994D01*
X171102603Y-103853994D01*
X171131377Y-104564974D01*
X171131378Y-104565003D01*
X171152934Y-105105429D01*
X171152934Y-105105439D01*
X171171852Y-105579803D01*
X171171932Y-105581809D01*
X171172442Y-105594581D01*
X171172442Y-105594584D01*
X171173697Y-105626053D01*
X171173700Y-105626073D01*
X171198662Y-106250836D01*
X171198647Y-106250879D01*
X171199462Y-106270862D01*
X171200443Y-106295396D01*
X171200471Y-106295604D01*
X171236743Y-107184213D01*
X171236743Y-107184214D01*
X171236939Y-107189030D01*
X171236923Y-107189077D01*
X171237718Y-107208138D01*
X171237741Y-107208694D01*
X171237778Y-107209569D01*
X171237777Y-107209570D01*
X171237778Y-107209608D01*
X171237779Y-107209609D01*
X171238754Y-107233473D01*
X171238785Y-107233699D01*
X171247017Y-107430844D01*
X171261683Y-107782050D01*
X171261643Y-107782163D01*
X171262505Y-107801763D01*
X171262511Y-107801894D01*
X171262523Y-107802161D01*
X171262522Y-107802162D01*
X171262526Y-107802269D01*
X171262527Y-107802270D01*
X171263534Y-107826384D01*
X171263614Y-107826950D01*
X171296439Y-108572432D01*
X171296438Y-108572432D01*
X171296654Y-108577342D01*
X171296625Y-108577425D01*
X171297516Y-108596887D01*
X171297518Y-108596922D01*
X171297540Y-108597402D01*
X171297544Y-108597490D01*
X171298615Y-108621833D01*
X171298677Y-108622259D01*
X171318778Y-109061343D01*
X171319006Y-109066310D01*
X171318949Y-109066471D01*
X171319913Y-109086114D01*
X171319911Y-109086117D01*
X171319913Y-109086117D01*
X171321026Y-109110420D01*
X171321145Y-109111235D01*
X171349373Y-109686411D01*
X171349616Y-109691366D01*
X171349582Y-109691463D01*
X171350609Y-109711591D01*
X171351794Y-109735719D01*
X171351865Y-109736201D01*
X171368387Y-110059739D01*
X171368637Y-110064643D01*
X171368604Y-110064740D01*
X171369624Y-110083992D01*
X171369645Y-110084389D01*
X171369646Y-110084392D01*
X171369651Y-110084487D01*
X171370905Y-110109023D01*
X171370979Y-110109515D01*
X171380917Y-110296774D01*
X171380917Y-110296777D01*
X171393969Y-110542997D01*
X171393969Y-110543032D01*
X171393971Y-110543032D01*
X171407958Y-110810297D01*
X171407979Y-110810735D01*
X171422485Y-111143934D01*
X171422507Y-111144517D01*
X171428977Y-111347571D01*
X171429002Y-111349102D01*
X171429358Y-111643256D01*
X171429348Y-111644334D01*
X171425240Y-111846324D01*
X171425178Y-111847996D01*
X171406245Y-112199507D01*
X171406193Y-112200331D01*
X171387865Y-112460530D01*
X171387772Y-112461667D01*
X171344053Y-112929726D01*
X171343994Y-112930327D01*
X171307874Y-113272386D01*
X171307757Y-113273393D01*
X171234337Y-113855392D01*
X171234251Y-113856040D01*
X171177289Y-114264473D01*
X171177096Y-114265738D01*
X171069660Y-114914321D01*
X171069503Y-114915219D01*
X170989006Y-115351636D01*
X170988628Y-115353489D01*
X170843383Y-116002350D01*
X170843058Y-116003710D01*
X170736879Y-116422711D01*
X170736083Y-116425509D01*
X170549935Y-117013976D01*
X170549252Y-117015985D01*
X170414842Y-117385556D01*
X170413994Y-117387729D01*
X170413817Y-117388153D01*
X170413072Y-117389848D01*
X170184605Y-117884747D01*
X170183371Y-117887236D01*
X170020984Y-118193098D01*
X170018490Y-118197289D01*
X169743431Y-118611998D01*
X169741773Y-118614348D01*
X169548734Y-118871909D01*
X169546027Y-118875216D01*
X169224936Y-119234965D01*
X169223475Y-119236533D01*
X168999707Y-119466594D01*
X168997755Y-119468495D01*
X168636099Y-119801885D01*
X168635199Y-119802694D01*
X168386958Y-120020661D01*
X168385803Y-120021645D01*
X167999625Y-120340502D01*
X167999039Y-120340978D01*
X167740147Y-120548252D01*
X167739204Y-120548989D01*
X167352356Y-120843786D01*
X167351741Y-120844247D01*
X167098745Y-121030967D01*
X167097531Y-121031835D01*
X166732152Y-121285009D01*
X166731278Y-121285601D01*
X166496924Y-121440766D01*
X166495244Y-121441831D01*
X166161639Y-121644095D01*
X166160567Y-121644727D01*
X166009151Y-121731451D01*
X165946314Y-121767442D01*
X165944808Y-121768271D01*
X165632015Y-121933289D01*
X165631433Y-121933591D01*
X165423532Y-122039814D01*
X165423372Y-122039896D01*
X165125730Y-122190621D01*
X165125729Y-122190620D01*
X165121166Y-122192930D01*
X165120797Y-122192962D01*
X165103626Y-122201813D01*
X165103341Y-122201958D01*
X165103275Y-122201993D01*
X165082547Y-122212491D01*
X165081048Y-122213453D01*
X164906013Y-122303689D01*
X164906014Y-122303690D01*
X164900991Y-122306279D01*
X164899855Y-122306400D01*
X164883304Y-122315397D01*
X164882810Y-122315653D01*
X164882775Y-122315672D01*
X164865077Y-122324796D01*
X164860769Y-122327650D01*
X164574602Y-122483242D01*
X164570544Y-122485216D01*
X164560904Y-122489379D01*
X164553694Y-122489335D01*
X164530671Y-122502437D01*
X164528143Y-122503530D01*
X164528032Y-122503531D01*
X164527349Y-122503865D01*
X164443207Y-122538500D01*
X164430989Y-122541798D01*
X164344011Y-122553763D01*
X164331356Y-122553887D01*
X164244162Y-122543630D01*
X164231880Y-122540572D01*
X164226552Y-122538500D01*
X164176926Y-122519200D01*
X164150059Y-122508751D01*
X164138939Y-122502708D01*
X164067723Y-122451358D01*
X164058477Y-122442716D01*
X164039221Y-122419494D01*
X164002440Y-122375136D01*
X163995660Y-122364451D01*
X163957173Y-122282377D01*
X163954621Y-122275741D01*
X163103393Y-119484501D01*
X163103775Y-119482514D01*
X163095582Y-119458889D01*
X163095308Y-119457989D01*
X163095308Y-119457988D01*
X163090299Y-119441565D01*
X163090298Y-119441564D01*
X163090298Y-119441562D01*
X163090296Y-119441560D01*
X163090272Y-119441514D01*
X163087081Y-119434235D01*
X163073047Y-119393692D01*
X163003017Y-119279311D01*
X163003015Y-119279309D01*
X163003012Y-119279304D01*
X162910147Y-119182564D01*
X162910141Y-119182559D01*
X162905206Y-119179253D01*
X162798717Y-119107911D01*
X162798718Y-119107911D01*
X162798716Y-119107910D01*
X162798714Y-119107909D01*
X162673902Y-119058825D01*
X162673903Y-119058825D01*
X162541482Y-119037575D01*
X162407581Y-119045143D01*
X162366511Y-119056623D01*
X162366509Y-119056624D01*
X162360913Y-119058187D01*
X162359585Y-119058062D01*
X162341726Y-119063550D01*
X162341113Y-119063720D01*
X162341111Y-119063720D01*
X162341090Y-119063727D01*
X162314660Y-119071099D01*
X162308937Y-119073626D01*
X156091969Y-120984255D01*
X156091922Y-120984269D01*
X156084660Y-120986492D01*
X156083098Y-120986184D01*
X156060116Y-120994009D01*
X156059369Y-120994238D01*
X156059138Y-120994215D01*
X156054267Y-120995512D01*
X155962752Y-121013298D01*
X155949193Y-121014054D01*
X155859712Y-121006837D01*
X155846450Y-121003917D01*
X155762214Y-120972890D01*
X155750227Y-120966510D01*
X155677438Y-120913954D01*
X155667612Y-120904585D01*
X155611654Y-120834385D01*
X155604713Y-120822722D01*
X155568286Y-120736696D01*
X155566070Y-120730274D01*
X155559931Y-120707592D01*
X155555702Y-120698071D01*
X155326732Y-119982537D01*
X155326289Y-119981075D01*
X155308006Y-119917204D01*
X155308004Y-119917200D01*
X155308004Y-119917199D01*
X155242480Y-119798401D01*
X155151994Y-119697314D01*
X155131146Y-119682599D01*
X155041151Y-119619081D01*
X155041147Y-119619079D01*
X154915598Y-119567687D01*
X154915597Y-119567686D01*
X154915595Y-119567686D01*
X154781712Y-119545741D01*
X154781709Y-119545741D01*
X154781708Y-119545741D01*
X154646317Y-119554365D01*
X154646313Y-119554366D01*
X154605041Y-119566629D01*
X154605042Y-119566630D01*
X154600035Y-119568117D01*
X154599516Y-119568069D01*
X154580919Y-119573798D01*
X154580644Y-119573879D01*
X154580643Y-119573879D01*
X154550697Y-119582807D01*
X154548616Y-119583748D01*
X144422666Y-122703259D01*
X144421720Y-122703540D01*
X144356180Y-122722323D01*
X144356171Y-122722327D01*
X144236322Y-122789515D01*
X144135026Y-122882359D01*
X144057672Y-122995921D01*
X144008366Y-123124174D01*
X143989725Y-123260311D01*
X143996315Y-123329567D01*
X144002740Y-123397098D01*
X144011633Y-123423345D01*
X144023932Y-123459641D01*
X144024485Y-123461377D01*
X144244253Y-124197123D01*
X144244269Y-124197177D01*
X144246370Y-124204240D01*
X144246101Y-124205513D01*
X144253603Y-124228556D01*
X144253788Y-124229176D01*
X144253767Y-124229373D01*
X144255039Y-124234385D01*
X144272241Y-124327887D01*
X144272890Y-124341121D01*
X144265211Y-124432500D01*
X144262363Y-124445439D01*
X144230950Y-124531603D01*
X144224802Y-124543340D01*
X144171865Y-124618222D01*
X144162851Y-124627932D01*
X144092103Y-124686283D01*
X144080854Y-124693285D01*
X143994406Y-124732294D01*
X143988195Y-124734614D01*
X143976520Y-124738111D01*
X143960291Y-124742972D01*
X143958621Y-124743728D01*
X139737030Y-126041917D01*
X139736651Y-126042032D01*
X139668380Y-126062434D01*
X139668380Y-126062435D01*
X139553612Y-126126356D01*
X139553611Y-126126357D01*
X139455464Y-126213666D01*
X139455459Y-126213671D01*
X139378614Y-126320199D01*
X139378609Y-126320208D01*
X139326721Y-126440886D01*
X139326717Y-126440898D01*
X139302270Y-126569954D01*
X139302269Y-126569965D01*
X139306424Y-126701258D01*
X139306425Y-126701264D01*
X139313788Y-126730169D01*
X139317783Y-126745854D01*
X139317724Y-126746292D01*
X139322707Y-126765193D01*
X139322741Y-126765327D01*
X139322752Y-126765368D01*
X139330630Y-126796149D01*
X139331313Y-126797836D01*
X140134320Y-129843383D01*
X140134324Y-129843400D01*
X140136020Y-129849843D01*
X140135955Y-129850093D01*
X140142257Y-129873531D01*
X140142315Y-129873749D01*
X140142309Y-129873788D01*
X140143362Y-129878754D01*
X140155718Y-129957758D01*
X140156229Y-129968482D01*
X140151597Y-130045602D01*
X140149807Y-130056186D01*
X140128822Y-130130535D01*
X140124813Y-130140494D01*
X140087002Y-130211345D01*
X140084556Y-130215445D01*
X140084349Y-130215756D01*
X140070772Y-130235697D01*
X140070727Y-130236289D01*
X140066919Y-130242030D01*
X140066661Y-130242203D01*
X140066239Y-130243029D01*
X138930498Y-131868314D01*
X138926761Y-131873030D01*
X138866534Y-131940285D01*
X138859286Y-131946929D01*
X138788448Y-132000057D01*
X138780040Y-132005154D01*
X138697945Y-132044460D01*
X138694258Y-132046047D01*
X138693794Y-132046224D01*
X138670408Y-132054711D01*
X138669806Y-132055424D01*
X138663163Y-132057973D01*
X138663156Y-132057972D01*
X138663135Y-132057984D01*
X129634750Y-135514395D01*
X129624501Y-135517115D01*
X129624144Y-135517170D01*
X129602889Y-135526528D01*
X129600903Y-135527352D01*
X129600647Y-135527451D01*
X129585398Y-135533290D01*
X129585205Y-135533471D01*
X129580526Y-135535296D01*
X129580471Y-135535294D01*
X129580271Y-135535395D01*
X129516950Y-135559682D01*
X129512340Y-135561198D01*
X129429461Y-135584060D01*
X129424725Y-135585122D01*
X129347917Y-135598469D01*
X129347541Y-135598533D01*
X129336566Y-135600354D01*
X129334545Y-135600647D01*
X129327788Y-135601486D01*
X129310894Y-135603584D01*
X129310893Y-135603584D01*
X129310237Y-135603666D01*
X129301132Y-135606232D01*
X122646916Y-136710296D01*
X122641767Y-136710878D01*
X122477553Y-136720863D01*
X122468045Y-136720534D01*
X122307052Y-136699514D01*
X122297779Y-136697391D01*
X122143679Y-136646260D01*
X122134976Y-136642418D01*
X121993348Y-136563024D01*
X121985530Y-136557605D01*
X121861502Y-136452825D01*
X121854852Y-136446022D01*
X121752915Y-136319649D01*
X121747674Y-136311710D01*
X121671515Y-136168313D01*
X121667878Y-136159540D01*
X121620251Y-136004299D01*
X121618342Y-135994997D01*
X121600787Y-135831746D01*
X121600500Y-135826400D01*
X121600500Y-131509555D01*
X132796008Y-131509555D01*
X132796008Y-131667672D01*
X132836931Y-131820399D01*
X132915985Y-131957327D01*
X132915991Y-131957334D01*
X133027787Y-132069130D01*
X133027794Y-132069136D01*
X133164722Y-132148190D01*
X133164724Y-132148191D01*
X133317451Y-132189114D01*
X133317455Y-132189114D01*
X133475561Y-132189114D01*
X133475565Y-132189114D01*
X133628292Y-132148191D01*
X133765224Y-132069134D01*
X133877028Y-131957330D01*
X133956085Y-131820398D01*
X133997008Y-131667671D01*
X133997008Y-131509557D01*
X133956085Y-131356830D01*
X133956084Y-131356828D01*
X133877030Y-131219900D01*
X133877024Y-131219893D01*
X133765228Y-131108097D01*
X133765221Y-131108091D01*
X133628293Y-131029037D01*
X133475566Y-130988114D01*
X133475565Y-130988114D01*
X133317451Y-130988114D01*
X133317449Y-130988114D01*
X133164722Y-131029037D01*
X133027794Y-131108091D01*
X133027787Y-131108097D01*
X132915991Y-131219893D01*
X132915985Y-131219900D01*
X132836931Y-131356828D01*
X132796008Y-131509555D01*
X121600500Y-131509555D01*
X121600500Y-129888792D01*
X136490120Y-129888792D01*
X136490120Y-130063123D01*
X136517388Y-130235291D01*
X136517389Y-130235296D01*
X136517390Y-130235298D01*
X136519634Y-130242203D01*
X136571258Y-130401090D01*
X136650402Y-130556417D01*
X136650404Y-130556420D01*
X136752861Y-130697440D01*
X136752864Y-130697443D01*
X136752866Y-130697446D01*
X136876132Y-130820712D01*
X136876134Y-130820713D01*
X136876137Y-130820716D01*
X137017157Y-130923173D01*
X137017163Y-130923177D01*
X137172487Y-131002319D01*
X137338280Y-131056188D01*
X137510454Y-131083457D01*
X137510455Y-131083458D01*
X137510458Y-131083458D01*
X137684785Y-131083458D01*
X137684785Y-131083457D01*
X137856960Y-131056188D01*
X138022753Y-131002319D01*
X138178077Y-130923177D01*
X138319108Y-130820712D01*
X138442374Y-130697446D01*
X138544839Y-130556415D01*
X138623981Y-130401091D01*
X138677850Y-130235298D01*
X138705120Y-130063120D01*
X138705120Y-129888796D01*
X138705120Y-129888792D01*
X138677851Y-129716624D01*
X138677850Y-129716623D01*
X138677850Y-129716618D01*
X138623981Y-129550825D01*
X138544839Y-129395501D01*
X138442374Y-129254470D01*
X138319108Y-129131204D01*
X138319105Y-129131202D01*
X138319102Y-129131199D01*
X138178082Y-129028742D01*
X138178079Y-129028740D01*
X138022752Y-128949596D01*
X137910828Y-128913230D01*
X137856960Y-128895728D01*
X137856958Y-128895727D01*
X137856953Y-128895726D01*
X137684786Y-128868458D01*
X137684782Y-128868458D01*
X137510458Y-128868458D01*
X137510454Y-128868458D01*
X137338286Y-128895726D01*
X137338280Y-128895728D01*
X137172487Y-128949596D01*
X137017160Y-129028740D01*
X137017157Y-129028742D01*
X136876137Y-129131199D01*
X136876128Y-129131207D01*
X136752869Y-129254466D01*
X136752861Y-129254475D01*
X136650404Y-129395495D01*
X136650402Y-129395498D01*
X136571258Y-129550825D01*
X136517390Y-129716618D01*
X136517388Y-129716624D01*
X136490120Y-129888792D01*
X121600500Y-129888792D01*
X121600500Y-126841653D01*
X131004168Y-126841653D01*
X131004168Y-126999770D01*
X131045091Y-127152497D01*
X131124145Y-127289425D01*
X131124151Y-127289432D01*
X131235947Y-127401228D01*
X131235954Y-127401234D01*
X131372882Y-127480288D01*
X131372884Y-127480289D01*
X131525611Y-127521212D01*
X131525615Y-127521212D01*
X131683721Y-127521212D01*
X131683725Y-127521212D01*
X131836452Y-127480289D01*
X131973384Y-127401232D01*
X132085188Y-127289428D01*
X132164245Y-127152496D01*
X132205168Y-126999769D01*
X132205168Y-126841655D01*
X132164245Y-126688928D01*
X132145782Y-126656948D01*
X132085190Y-126551998D01*
X132085184Y-126551991D01*
X131973388Y-126440195D01*
X131973381Y-126440189D01*
X131836453Y-126361135D01*
X131683726Y-126320212D01*
X131683725Y-126320212D01*
X131525611Y-126320212D01*
X131525609Y-126320212D01*
X131372882Y-126361135D01*
X131235954Y-126440189D01*
X131235947Y-126440195D01*
X131124151Y-126551991D01*
X131124145Y-126551998D01*
X131045091Y-126688926D01*
X131004168Y-126841653D01*
X121600500Y-126841653D01*
X121600500Y-124824444D01*
X121600809Y-124818892D01*
X121610311Y-124733858D01*
X121618793Y-124657948D01*
X121620684Y-124648835D01*
X121667719Y-124495702D01*
X121671273Y-124487090D01*
X121745910Y-124345360D01*
X121751003Y-124337553D01*
X121850658Y-124212134D01*
X121857111Y-124205411D01*
X121858486Y-124204223D01*
X121978306Y-124100678D01*
X121985891Y-124095271D01*
X122124438Y-124014848D01*
X122132886Y-124010947D01*
X122283957Y-123957639D01*
X122292982Y-123955375D01*
X122453601Y-123930687D01*
X122458401Y-123930187D01*
X128328998Y-123604829D01*
X128365108Y-123617494D01*
X128381686Y-123651985D01*
X128369021Y-123688097D01*
X128361153Y-123695202D01*
X128278519Y-123755240D01*
X128278507Y-123755250D01*
X128155248Y-123878509D01*
X128155240Y-123878518D01*
X128052783Y-124019538D01*
X128052781Y-124019541D01*
X127973637Y-124174868D01*
X127919769Y-124340661D01*
X127919767Y-124340667D01*
X127892499Y-124512835D01*
X127892499Y-124687166D01*
X127919767Y-124859334D01*
X127919769Y-124859340D01*
X127973637Y-125025133D01*
X128052781Y-125180460D01*
X128052783Y-125180463D01*
X128155240Y-125321483D01*
X128155243Y-125321486D01*
X128155245Y-125321489D01*
X128278511Y-125444755D01*
X128278513Y-125444756D01*
X128278516Y-125444759D01*
X128419536Y-125547216D01*
X128419542Y-125547220D01*
X128574866Y-125626362D01*
X128740659Y-125680231D01*
X128912833Y-125707500D01*
X128912834Y-125707501D01*
X128912837Y-125707501D01*
X129087164Y-125707501D01*
X129087164Y-125707500D01*
X129259339Y-125680231D01*
X129425132Y-125626362D01*
X129580456Y-125547220D01*
X129585685Y-125543421D01*
X133858058Y-125543421D01*
X133858058Y-125717752D01*
X133885326Y-125889920D01*
X133885328Y-125889926D01*
X133939196Y-126055719D01*
X134018340Y-126211046D01*
X134018342Y-126211049D01*
X134120799Y-126352069D01*
X134120802Y-126352072D01*
X134120804Y-126352075D01*
X134244070Y-126475341D01*
X134244072Y-126475342D01*
X134244075Y-126475345D01*
X134385095Y-126577802D01*
X134385101Y-126577806D01*
X134540425Y-126656948D01*
X134706218Y-126710817D01*
X134878392Y-126738086D01*
X134878393Y-126738087D01*
X134878396Y-126738087D01*
X135052723Y-126738087D01*
X135052723Y-126738086D01*
X135224898Y-126710817D01*
X135390691Y-126656948D01*
X135546015Y-126577806D01*
X135687046Y-126475341D01*
X135810312Y-126352075D01*
X135912777Y-126211044D01*
X135991919Y-126055720D01*
X136045788Y-125889927D01*
X136073058Y-125717749D01*
X136073058Y-125543425D01*
X136073058Y-125543421D01*
X136045789Y-125371253D01*
X136045788Y-125371252D01*
X136045788Y-125371247D01*
X135991919Y-125205454D01*
X135912777Y-125050130D01*
X135912773Y-125050124D01*
X135810316Y-124909104D01*
X135810308Y-124909095D01*
X135687049Y-124785836D01*
X135687040Y-124785828D01*
X135546020Y-124683371D01*
X135546017Y-124683369D01*
X135390690Y-124604225D01*
X135278766Y-124567859D01*
X135224898Y-124550357D01*
X135224896Y-124550356D01*
X135224891Y-124550355D01*
X135052724Y-124523087D01*
X135052720Y-124523087D01*
X134878396Y-124523087D01*
X134878392Y-124523087D01*
X134706224Y-124550355D01*
X134706218Y-124550357D01*
X134540425Y-124604225D01*
X134385098Y-124683369D01*
X134385095Y-124683371D01*
X134244075Y-124785828D01*
X134244066Y-124785836D01*
X134120807Y-124909095D01*
X134120799Y-124909104D01*
X134018342Y-125050124D01*
X134018340Y-125050127D01*
X133939196Y-125205454D01*
X133885328Y-125371247D01*
X133885326Y-125371253D01*
X133858058Y-125543421D01*
X129585685Y-125543421D01*
X129721487Y-125444755D01*
X129844753Y-125321489D01*
X129947218Y-125180458D01*
X130026360Y-125025134D01*
X130080229Y-124859341D01*
X130107499Y-124687163D01*
X130107499Y-124512839D01*
X130107499Y-124512835D01*
X130080230Y-124340667D01*
X130080229Y-124340666D01*
X130080229Y-124340661D01*
X130026360Y-124174868D01*
X129947218Y-124019544D01*
X129902244Y-123957642D01*
X129844757Y-123878518D01*
X129844749Y-123878509D01*
X129721490Y-123755250D01*
X129721481Y-123755242D01*
X129580461Y-123652785D01*
X129580458Y-123652783D01*
X129577981Y-123651520D01*
X129538076Y-123631188D01*
X129513224Y-123602090D01*
X129516227Y-123563939D01*
X129545326Y-123539086D01*
X129558007Y-123536716D01*
X130756729Y-123470281D01*
X130757151Y-123470259D01*
X130918303Y-123462939D01*
X131176959Y-123423345D01*
X131242345Y-123413336D01*
X131242345Y-123413335D01*
X131242351Y-123413335D01*
X131559291Y-123329566D01*
X131865530Y-123212581D01*
X132157600Y-123063706D01*
X132432189Y-122884628D01*
X132686186Y-122677377D01*
X132916714Y-122444300D01*
X133103513Y-122210159D01*
X133121157Y-122188043D01*
X133121158Y-122188041D01*
X133121160Y-122188039D01*
X133277900Y-121941827D01*
X133297197Y-121911515D01*
X133297199Y-121911510D01*
X133297208Y-121911497D01*
X133369957Y-121764810D01*
X133414721Y-121675347D01*
X134651265Y-119204079D01*
X145102685Y-119204079D01*
X145102685Y-119366872D01*
X145134442Y-119526525D01*
X145134442Y-119526528D01*
X145196737Y-119676921D01*
X145196738Y-119676923D01*
X145210362Y-119697313D01*
X145280775Y-119802694D01*
X145287178Y-119812276D01*
X145402285Y-119927383D01*
X145537638Y-120017823D01*
X145688033Y-120080118D01*
X145847692Y-120111876D01*
X145847698Y-120111876D01*
X146010472Y-120111876D01*
X146010478Y-120111876D01*
X146170137Y-120080118D01*
X146320532Y-120017823D01*
X146455885Y-119927383D01*
X146570992Y-119812276D01*
X146661432Y-119676923D01*
X146723727Y-119526528D01*
X146755485Y-119366869D01*
X146755485Y-119204083D01*
X146723727Y-119044424D01*
X146723252Y-119043278D01*
X146661432Y-118894030D01*
X146661432Y-118894029D01*
X146570992Y-118758676D01*
X146503414Y-118691098D01*
X164297400Y-118691098D01*
X164297400Y-118868901D01*
X164332086Y-119043276D01*
X164332086Y-119043278D01*
X164400125Y-119207537D01*
X164400127Y-119207541D01*
X164498905Y-119355374D01*
X164624626Y-119481095D01*
X164772459Y-119579873D01*
X164936721Y-119647913D01*
X165111102Y-119682600D01*
X165111108Y-119682600D01*
X165288892Y-119682600D01*
X165288898Y-119682600D01*
X165463279Y-119647913D01*
X165627541Y-119579873D01*
X165775374Y-119481095D01*
X165901095Y-119355374D01*
X165999873Y-119207541D01*
X166067913Y-119043279D01*
X166102600Y-118868898D01*
X166102600Y-118691102D01*
X166102599Y-118691098D01*
X166897400Y-118691098D01*
X166897400Y-118868901D01*
X166932086Y-119043276D01*
X166932086Y-119043278D01*
X167000125Y-119207537D01*
X167000127Y-119207541D01*
X167098905Y-119355374D01*
X167224626Y-119481095D01*
X167372459Y-119579873D01*
X167536721Y-119647913D01*
X167711102Y-119682600D01*
X167711108Y-119682600D01*
X167888892Y-119682600D01*
X167888898Y-119682600D01*
X168063279Y-119647913D01*
X168227541Y-119579873D01*
X168375374Y-119481095D01*
X168501095Y-119355374D01*
X168599873Y-119207541D01*
X168667913Y-119043279D01*
X168702600Y-118868898D01*
X168702600Y-118691102D01*
X168667913Y-118516721D01*
X168599873Y-118352459D01*
X168501095Y-118204626D01*
X168375374Y-118078905D01*
X168227541Y-117980127D01*
X168227539Y-117980126D01*
X168227537Y-117980125D01*
X168063277Y-117912086D01*
X167888901Y-117877400D01*
X167888898Y-117877400D01*
X167711102Y-117877400D01*
X167711098Y-117877400D01*
X167536723Y-117912086D01*
X167536721Y-117912086D01*
X167372462Y-117980125D01*
X167372460Y-117980126D01*
X167224626Y-118078904D01*
X167098904Y-118204626D01*
X167000126Y-118352460D01*
X167000125Y-118352462D01*
X166932086Y-118516721D01*
X166932086Y-118516723D01*
X166897400Y-118691098D01*
X166102599Y-118691098D01*
X166067913Y-118516721D01*
X165999873Y-118352459D01*
X165901095Y-118204626D01*
X165775374Y-118078905D01*
X165627541Y-117980127D01*
X165627539Y-117980126D01*
X165627537Y-117980125D01*
X165463277Y-117912086D01*
X165288901Y-117877400D01*
X165288898Y-117877400D01*
X165111102Y-117877400D01*
X165111098Y-117877400D01*
X164936723Y-117912086D01*
X164936721Y-117912086D01*
X164772462Y-117980125D01*
X164772460Y-117980126D01*
X164624626Y-118078904D01*
X164498904Y-118204626D01*
X164400126Y-118352460D01*
X164400125Y-118352462D01*
X164332086Y-118516721D01*
X164332086Y-118516723D01*
X164297400Y-118691098D01*
X146503414Y-118691098D01*
X146455885Y-118643569D01*
X146320532Y-118553129D01*
X146320530Y-118553128D01*
X146320531Y-118553128D01*
X146170136Y-118490833D01*
X146010481Y-118459076D01*
X146010478Y-118459076D01*
X145847692Y-118459076D01*
X145847688Y-118459076D01*
X145688035Y-118490833D01*
X145688032Y-118490833D01*
X145537639Y-118553128D01*
X145402285Y-118643568D01*
X145287177Y-118758676D01*
X145196737Y-118894030D01*
X145134442Y-119044423D01*
X145134442Y-119044426D01*
X145102685Y-119204079D01*
X134651265Y-119204079D01*
X134663687Y-119179253D01*
X135424376Y-117658994D01*
X149857967Y-117658994D01*
X149857967Y-117821787D01*
X149889724Y-117981440D01*
X149889724Y-117981443D01*
X149952019Y-118131836D01*
X149952020Y-118131838D01*
X150042460Y-118267191D01*
X150157567Y-118382298D01*
X150292920Y-118472738D01*
X150443315Y-118535033D01*
X150602974Y-118566791D01*
X150602980Y-118566791D01*
X150765754Y-118566791D01*
X150765760Y-118566791D01*
X150925419Y-118535033D01*
X151075814Y-118472738D01*
X151211167Y-118382298D01*
X151326274Y-118267191D01*
X151416714Y-118131838D01*
X151479009Y-117981443D01*
X151510767Y-117821784D01*
X151510767Y-117658998D01*
X151479009Y-117499339D01*
X151474390Y-117488188D01*
X151433657Y-117389848D01*
X151416714Y-117348944D01*
X151326274Y-117213591D01*
X151211167Y-117098484D01*
X151211041Y-117098400D01*
X151143948Y-117053570D01*
X151075814Y-117008044D01*
X151075812Y-117008043D01*
X151075813Y-117008043D01*
X150925418Y-116945748D01*
X150765763Y-116913991D01*
X150765760Y-116913991D01*
X150602974Y-116913991D01*
X150602970Y-116913991D01*
X150443317Y-116945748D01*
X150443314Y-116945748D01*
X150292921Y-117008043D01*
X150157567Y-117098483D01*
X150042459Y-117213591D01*
X149952019Y-117348945D01*
X149889724Y-117499338D01*
X149889724Y-117499341D01*
X149857967Y-117658994D01*
X135424376Y-117658994D01*
X135436798Y-117634168D01*
X136298967Y-115911098D01*
X166897400Y-115911098D01*
X166897400Y-116088901D01*
X166932086Y-116263276D01*
X166932086Y-116263278D01*
X166998126Y-116422711D01*
X167000127Y-116427541D01*
X167098905Y-116575374D01*
X167224626Y-116701095D01*
X167372459Y-116799873D01*
X167536721Y-116867913D01*
X167711102Y-116902600D01*
X167711108Y-116902600D01*
X167888892Y-116902600D01*
X167888898Y-116902600D01*
X168063279Y-116867913D01*
X168227541Y-116799873D01*
X168375374Y-116701095D01*
X168501095Y-116575374D01*
X168599873Y-116427541D01*
X168667913Y-116263279D01*
X168702600Y-116088898D01*
X168702600Y-115911102D01*
X168667913Y-115736721D01*
X168599873Y-115572459D01*
X168501095Y-115424626D01*
X168375374Y-115298905D01*
X168227541Y-115200127D01*
X168227539Y-115200126D01*
X168227537Y-115200125D01*
X168063277Y-115132086D01*
X167888901Y-115097400D01*
X167888898Y-115097400D01*
X167711102Y-115097400D01*
X167711098Y-115097400D01*
X167536723Y-115132086D01*
X167536721Y-115132086D01*
X167372462Y-115200125D01*
X167372460Y-115200126D01*
X167224626Y-115298904D01*
X167098904Y-115424626D01*
X167000126Y-115572460D01*
X167000125Y-115572462D01*
X166932086Y-115736721D01*
X166932086Y-115736723D01*
X166897400Y-115911098D01*
X136298967Y-115911098D01*
X136311389Y-115886272D01*
X137780600Y-112950009D01*
X139551357Y-109411099D01*
X166897400Y-109411099D01*
X166897400Y-109588902D01*
X166932086Y-109763277D01*
X166932086Y-109763279D01*
X167000125Y-109927538D01*
X167000126Y-109927540D01*
X167091733Y-110064642D01*
X167098905Y-110075375D01*
X167224626Y-110201096D01*
X167372459Y-110299874D01*
X167536721Y-110367914D01*
X167711102Y-110402601D01*
X167711108Y-110402601D01*
X167888892Y-110402601D01*
X167888898Y-110402601D01*
X168063279Y-110367914D01*
X168227541Y-110299874D01*
X168375374Y-110201096D01*
X168501095Y-110075375D01*
X168599873Y-109927542D01*
X168667913Y-109763280D01*
X168702600Y-109588899D01*
X168702600Y-109411103D01*
X168667913Y-109236722D01*
X168599873Y-109072460D01*
X168501095Y-108924627D01*
X168375374Y-108798906D01*
X168227541Y-108700128D01*
X168227539Y-108700127D01*
X168227537Y-108700126D01*
X168063277Y-108632087D01*
X167888901Y-108597401D01*
X167888898Y-108597401D01*
X167711102Y-108597401D01*
X167711098Y-108597401D01*
X167536723Y-108632087D01*
X167536721Y-108632087D01*
X167372462Y-108700126D01*
X167372460Y-108700127D01*
X167224626Y-108798905D01*
X167098904Y-108924627D01*
X167000126Y-109072461D01*
X167000125Y-109072463D01*
X166932086Y-109236722D01*
X166932086Y-109236724D01*
X166897400Y-109411099D01*
X139551357Y-109411099D01*
X140158187Y-108198332D01*
X140158855Y-108197877D01*
X140170233Y-108174256D01*
X140178822Y-108157093D01*
X140178822Y-108157091D01*
X140179976Y-108154786D01*
X140181205Y-108151499D01*
X140239556Y-108030347D01*
X140356255Y-107734477D01*
X140450992Y-107430863D01*
X140523261Y-107121130D01*
X140572674Y-106806940D01*
X140598966Y-106489976D01*
X140600307Y-106350455D01*
X140600500Y-106349991D01*
X140600500Y-106330433D01*
X140600752Y-106304030D01*
X140600750Y-106304028D01*
X140600798Y-106299080D01*
X140600500Y-106296721D01*
X140600500Y-87960006D01*
X165229500Y-87960006D01*
X165229500Y-92299993D01*
X165244798Y-92336926D01*
X165244802Y-92336932D01*
X165273067Y-92365197D01*
X165273073Y-92365201D01*
X165310006Y-92380499D01*
X165310007Y-92380499D01*
X165310009Y-92380500D01*
X165310010Y-92380500D01*
X169769990Y-92380500D01*
X169769991Y-92380500D01*
X169806929Y-92365200D01*
X169835200Y-92336929D01*
X169850500Y-92299991D01*
X169850500Y-91006847D01*
X169850540Y-91006778D01*
X169850500Y-90979849D01*
X169850500Y-90960009D01*
X169850500Y-90955358D01*
X169850465Y-90955004D01*
X169850272Y-90817433D01*
X169815899Y-90494425D01*
X169748013Y-90176765D01*
X169647357Y-89867921D01*
X169515028Y-89571264D01*
X169352472Y-89290032D01*
X169161461Y-89027294D01*
X168944082Y-88785918D01*
X168702706Y-88568539D01*
X168702703Y-88568536D01*
X168702701Y-88568535D01*
X168702699Y-88568534D01*
X168644567Y-88526272D01*
X168439968Y-88377528D01*
X168158736Y-88214972D01*
X167862079Y-88082643D01*
X167553235Y-87981987D01*
X167553232Y-87981986D01*
X167235577Y-87914101D01*
X167235566Y-87914099D01*
X166912573Y-87879728D01*
X166774897Y-87879533D01*
X166774897Y-87879532D01*
X166770054Y-87879525D01*
X166769991Y-87879500D01*
X166750158Y-87879500D01*
X166750151Y-87879500D01*
X166750076Y-87879499D01*
X166716943Y-87879450D01*
X166716562Y-87879500D01*
X165310006Y-87879500D01*
X165273073Y-87894798D01*
X165273067Y-87894802D01*
X165244802Y-87923067D01*
X165244798Y-87923073D01*
X165229500Y-87960006D01*
X140600500Y-87960006D01*
X140600500Y-68423259D01*
X140600505Y-68416419D01*
X140600745Y-68415996D01*
X140600524Y-68392184D01*
X140600525Y-68391962D01*
X140600561Y-68391873D01*
X140600924Y-68385697D01*
X140606613Y-68340948D01*
X140613130Y-68289674D01*
X140616636Y-68276609D01*
X140638967Y-68223471D01*
X140652810Y-68190530D01*
X140659687Y-68178888D01*
X140717616Y-68105657D01*
X140727361Y-68096286D01*
X140802808Y-68041262D01*
X140814704Y-68034850D01*
X140902137Y-68002068D01*
X140915318Y-67999078D01*
X141011461Y-67990663D01*
X141017079Y-67990554D01*
X141017241Y-67990493D01*
X141017707Y-67990506D01*
G37*
%TD.AperFunction*%
%TD*%
M02*
