%TF.GenerationSoftware,KiCad,Pcbnew,9.0.3*%
%TF.CreationDate,2025-07-19T19:29:57+01:00*%
%TF.ProjectId,GhostPAW,47686f73-7450-4415-972e-6b696361645f,rev?*%
%TF.SameCoordinates,Original*%
%TF.FileFunction,Soldermask,Bot*%
%TF.FilePolarity,Negative*%
%FSLAX46Y46*%
G04 Gerber Fmt 4.6, Leading zero omitted, Abs format (unit mm)*
G04 Created by KiCad (PCBNEW 9.0.3) date 2025-07-19 19:29:57*
%MOMM*%
%LPD*%
G01*
G04 APERTURE LIST*
G04 Aperture macros list*
%AMRotRect*
0 Rectangle, with rotation*
0 The origin of the aperture is its center*
0 $1 length*
0 $2 width*
0 $3 Rotation angle, in degrees counterclockwise*
0 Add horizontal line*
21,1,$1,$2,0,0,$3*%
G04 Aperture macros list end*
%ADD10RotRect,0.812800X1.498600X348.000000*%
%ADD11C,1.600200*%
%ADD12RotRect,3.987800X1.244600X348.000000*%
%ADD13R,0.700000X0.500000*%
%ADD14R,1.100000X0.200000*%
%ADD15R,0.500000X0.700000*%
%ADD16R,0.200000X1.100000*%
%ADD17R,0.800000X0.900000*%
%ADD18RotRect,2.010000X2.010000X111.000000*%
%ADD19C,2.010000*%
%ADD20C,1.200000*%
%ADD21C,1.447800*%
G04 APERTURE END LIST*
D10*
%TO.C,U6*%
X156835841Y-71015495D03*
X164065721Y-72552253D03*
D11*
X158732815Y-70276141D03*
X162633472Y-71105251D03*
D12*
X161000001Y-69199999D03*
%TD*%
D13*
%TO.C,S4*%
X143650000Y-106875000D03*
X143650000Y-111125000D03*
X147150000Y-106875000D03*
X147150000Y-111125000D03*
D14*
X143650000Y-106525000D03*
X143650000Y-111475000D03*
X147150000Y-106525000D03*
X147150000Y-111475000D03*
%TD*%
D13*
%TO.C,S3*%
X156650000Y-106875000D03*
X156650000Y-111125000D03*
X160150000Y-106875000D03*
X160150000Y-111125000D03*
D14*
X156650000Y-106525000D03*
X156650000Y-111475000D03*
X160150000Y-106525000D03*
X160150000Y-111475000D03*
%TD*%
D15*
%TO.C,S2*%
X154125000Y-113850000D03*
X149875000Y-113850000D03*
X154125000Y-117350000D03*
X149875000Y-117350000D03*
D16*
X154475000Y-113850000D03*
X149525000Y-113850000D03*
X154475000Y-117350000D03*
X149525000Y-117350000D03*
%TD*%
D15*
%TO.C,S1*%
X154125000Y-100850000D03*
X149875000Y-100850000D03*
X154125000Y-104350000D03*
X149875000Y-104350000D03*
D16*
X154475000Y-100850000D03*
X149525000Y-100850000D03*
X154475000Y-104350000D03*
X149525000Y-104350000D03*
%TD*%
D11*
%TO.C,M1*%
X165200000Y-118780000D03*
X167800000Y-118780000D03*
X167800000Y-116000000D03*
X167800000Y-109500001D03*
%TD*%
D17*
%TO.C,LED1*%
X142200000Y-70200000D03*
X141000000Y-70200000D03*
X141000000Y-68400000D03*
X142200000Y-68400000D03*
%TD*%
D18*
%TO.C,H1*%
X128915322Y-133308780D03*
D19*
X134965558Y-125630587D03*
X128999999Y-124600001D03*
X137597620Y-129975958D03*
D20*
X131604668Y-126920712D03*
X133396508Y-131588614D03*
%TD*%
D21*
%TO.C,SW2*%
X145929085Y-119285476D03*
X150684367Y-117740391D03*
%TD*%
M02*
