%TF.GenerationSoftware,KiCad,Pcbnew,9.0.3*%
%TF.CreationDate,2025-07-19T19:29:57+01:00*%
%TF.ProjectId,GhostPAW,47686f73-7450-4415-972e-6b696361645f,rev?*%
%TF.SameCoordinates,Original*%
%TF.FileFunction,Soldermask,Top*%
%TF.FilePolarity,Negative*%
%FSLAX46Y46*%
G04 Gerber Fmt 4.6, Leading zero omitted, Abs format (unit mm)*
G04 Created by KiCad (PCBNEW 9.0.3) date 2025-07-19 19:29:57*
%MOMM*%
%LPD*%
G01*
G04 APERTURE LIST*
G04 Aperture macros list*
%AMRoundRect*
0 Rectangle with rounded corners*
0 $1 Rounding radius*
0 $2 $3 $4 $5 $6 $7 $8 $9 X,Y pos of 4 corners*
0 Add a 4 corners polygon primitive as box body*
4,1,4,$2,$3,$4,$5,$6,$7,$8,$9,$2,$3,0*
0 Add four circle primitives for the rounded corners*
1,1,$1+$1,$2,$3*
1,1,$1+$1,$4,$5*
1,1,$1+$1,$6,$7*
1,1,$1+$1,$8,$9*
0 Add four rect primitives between the rounded corners*
20,1,$1+$1,$2,$3,$4,$5,0*
20,1,$1+$1,$4,$5,$6,$7,0*
20,1,$1+$1,$6,$7,$8,$9,0*
20,1,$1+$1,$8,$9,$2,$3,0*%
%AMRotRect*
0 Rectangle, with rotation*
0 The origin of the aperture is its center*
0 $1 length*
0 $2 width*
0 $3 Rotation angle, in degrees counterclockwise*
0 Add horizontal line*
21,1,$1,$2,0,0,$3*%
G04 Aperture macros list end*
%ADD10C,1.600200*%
%ADD11R,0.300000X1.200000*%
%ADD12RotRect,2.010000X2.010000X111.000000*%
%ADD13C,2.010000*%
%ADD14C,1.200000*%
%ADD15R,2.000000X1.300000*%
%ADD16R,0.300000X1.000000*%
%ADD17C,1.000000*%
%ADD18RotRect,3.000000X1.000000X65.000000*%
%ADD19RotRect,0.711200X1.498600X18.000000*%
%ADD20RotRect,0.990600X0.812800X18.000000*%
%ADD21C,1.447800*%
%ADD22RoundRect,0.140000X0.170000X-0.140000X0.170000X0.140000X-0.170000X0.140000X-0.170000X-0.140000X0*%
%ADD23RoundRect,0.135000X0.185000X-0.135000X0.185000X0.135000X-0.185000X0.135000X-0.185000X-0.135000X0*%
%ADD24RoundRect,0.135000X-0.185000X0.135000X-0.185000X-0.135000X0.185000X-0.135000X0.185000X0.135000X0*%
%ADD25RoundRect,0.140000X-0.170000X0.140000X-0.170000X-0.140000X0.170000X-0.140000X0.170000X0.140000X0*%
%ADD26RoundRect,0.250000X-0.876078X-0.273837X0.688958X-0.606496X0.876078X0.273837X-0.688958X0.606496X0*%
%ADD27R,0.200000X0.800000*%
%ADD28R,0.800000X0.200000*%
%ADD29R,2.750000X2.750000*%
%ADD30R,1.000000X3.000000*%
%ADD31R,0.950000X0.300000*%
%ADD32R,0.300000X0.950000*%
%ADD33RoundRect,0.140000X-0.140000X-0.170000X0.140000X-0.170000X0.140000X0.170000X-0.140000X0.170000X0*%
G04 APERTURE END LIST*
D10*
%TO.C,U6*%
X158732815Y-70276141D03*
X162633472Y-71105251D03*
%TD*%
%TO.C,M1*%
X165200000Y-118780000D03*
X167800000Y-118780000D03*
X167800000Y-116000000D03*
X167800000Y-109500001D03*
%TD*%
D11*
%TO.C,J2*%
X153400000Y-106200000D03*
X153900000Y-106200000D03*
X154400000Y-106200000D03*
X154900000Y-106200000D03*
X155400000Y-106200000D03*
X155900000Y-106200000D03*
X156400000Y-106200000D03*
X156900000Y-106200000D03*
X156900000Y-101600000D03*
X156400000Y-101600000D03*
X155900000Y-101600000D03*
X155400000Y-101600000D03*
X154900000Y-101600000D03*
X154400000Y-101600000D03*
X153900000Y-101600000D03*
X153400000Y-101600000D03*
%TD*%
D12*
%TO.C,H1*%
X128915322Y-133308780D03*
D13*
X134965558Y-125630587D03*
X128999999Y-124600001D03*
X137597620Y-129975958D03*
D14*
X131604668Y-126920712D03*
X133396508Y-131588614D03*
%TD*%
D15*
%TO.C,J1*%
X164200000Y-99400000D03*
X170800000Y-99400000D03*
D16*
X166500000Y-102100000D03*
X166999999Y-102100001D03*
X167500000Y-102100000D03*
X168000000Y-102100000D03*
X168500000Y-102100000D03*
%TD*%
D17*
%TO.C,TP29*%
X137550000Y-115800000D03*
%TD*%
%TO.C,TP34*%
X135200000Y-120800000D03*
%TD*%
%TO.C,TP28*%
X138350000Y-114250000D03*
%TD*%
%TO.C,TP30*%
X136800000Y-117300000D03*
%TD*%
%TO.C,TP32*%
X136050000Y-118900000D03*
%TD*%
D18*
%TO.C,TP25*%
X139400000Y-111600000D03*
%TD*%
D17*
%TO.C,TP1*%
X141600000Y-69700000D03*
%TD*%
%TO.C,TP9*%
X122600000Y-126800000D03*
%TD*%
D19*
%TO.C,SW2*%
X144912760Y-117775578D03*
X146339344Y-117312052D03*
X149192513Y-116385001D03*
X150619097Y-115921477D03*
D20*
X142371009Y-119337467D03*
X153593472Y-115691068D03*
X143019944Y-121334685D03*
X154242407Y-117688285D03*
D21*
X145929085Y-119285476D03*
X150684367Y-117740391D03*
%TD*%
D17*
%TO.C,TP6*%
X122600000Y-128500000D03*
%TD*%
%TO.C,TP12*%
X141700000Y-97800000D03*
%TD*%
D22*
%TO.C,C2*%
X193360000Y-124340000D03*
X193360000Y-123380000D03*
%TD*%
D23*
%TO.C,R2*%
X193060000Y-120900000D03*
X193060000Y-119880000D03*
%TD*%
D24*
%TO.C,R1*%
X189260000Y-124150000D03*
X189260000Y-125170000D03*
%TD*%
D17*
%TO.C,TP5*%
X141600000Y-74800000D03*
%TD*%
D25*
%TO.C,C3*%
X192210000Y-119870000D03*
X192210000Y-120830000D03*
%TD*%
D17*
%TO.C,TP2*%
X141600000Y-71400000D03*
%TD*%
D26*
%TO.C,SW1*%
X155617230Y-72053169D03*
X164518373Y-73945166D03*
X154681627Y-76454834D03*
X163582770Y-78346831D03*
%TD*%
D27*
%TO.C,IC1*%
X189000000Y-118200000D03*
X188600000Y-118200000D03*
X188200000Y-118200000D03*
X187800000Y-118200000D03*
X187400000Y-118200000D03*
X187000000Y-118200000D03*
X186600000Y-118200000D03*
D28*
X185800000Y-119000000D03*
X185800000Y-119400000D03*
X185800000Y-119800000D03*
X185800000Y-120200000D03*
X185800000Y-120600000D03*
X185800000Y-121000000D03*
X185800000Y-121400000D03*
D27*
X186600000Y-122200000D03*
X187000000Y-122200000D03*
X187400000Y-122200000D03*
X187800000Y-122200000D03*
X188200000Y-122200000D03*
X188600000Y-122200000D03*
X189000000Y-122200000D03*
D28*
X189800000Y-121400000D03*
X189800000Y-121000000D03*
X189800000Y-120600000D03*
X189800000Y-120200000D03*
X189800000Y-119800000D03*
X189800000Y-119400000D03*
X189800000Y-119000000D03*
D29*
X187800000Y-120200000D03*
%TD*%
D17*
%TO.C,TP10*%
X141700000Y-99400000D03*
%TD*%
D30*
%TO.C,TP11*%
X122300000Y-134700000D03*
%TD*%
D31*
%TO.C,IC2*%
X190310000Y-123130000D03*
X190310000Y-123630000D03*
X190310000Y-124130000D03*
X190310000Y-124630000D03*
D32*
X191260000Y-124780000D03*
D31*
X192210000Y-124630000D03*
X192210000Y-124130000D03*
X192210000Y-123630000D03*
X192210000Y-123130000D03*
D32*
X191260000Y-122980000D03*
%TD*%
D23*
%TO.C,R3*%
X191360000Y-120880000D03*
X191360000Y-119860000D03*
%TD*%
D17*
%TO.C,TP7*%
X141600000Y-94600000D03*
%TD*%
D30*
%TO.C,TP3*%
X122300000Y-131100000D03*
%TD*%
D17*
%TO.C,TP23*%
X141000000Y-108800000D03*
%TD*%
%TO.C,TP8*%
X141600000Y-96200000D03*
%TD*%
%TO.C,TP4*%
X141600000Y-73100000D03*
%TD*%
D33*
%TO.C,C1*%
X186640000Y-123590000D03*
X187600000Y-123590000D03*
%TD*%
D17*
%TO.C,TP14*%
X141750000Y-101300000D03*
%TD*%
%TO.C,TP18*%
X141750000Y-104850000D03*
%TD*%
M02*
