%TF.GenerationSoftware,KiCad,Pcbnew,9.0.3*%
%TF.CreationDate,2025-07-19T19:29:57+01:00*%
%TF.ProjectId,GhostPAW,47686f73-7450-4415-972e-6b696361645f,rev?*%
%TF.SameCoordinates,Original*%
%TF.FileFunction,Copper,L4,Bot*%
%TF.FilePolarity,Positive*%
%FSLAX46Y46*%
G04 Gerber Fmt 4.6, Leading zero omitted, Abs format (unit mm)*
G04 Created by KiCad (PCBNEW 9.0.3) date 2025-07-19 19:29:57*
%MOMM*%
%LPD*%
G01*
G04 APERTURE LIST*
G04 Aperture macros list*
%AMRotRect*
0 Rectangle, with rotation*
0 The origin of the aperture is its center*
0 $1 length*
0 $2 width*
0 $3 Rotation angle, in degrees counterclockwise*
0 Add horizontal line*
21,1,$1,$2,0,0,$3*%
G04 Aperture macros list end*
%TA.AperFunction,EtchedComponent*%
%ADD10C,0.000000*%
%TD*%
%TA.AperFunction,SMDPad,CuDef*%
%ADD11RotRect,0.812800X1.498600X348.000000*%
%TD*%
%TA.AperFunction,ComponentPad*%
%ADD12C,1.600200*%
%TD*%
%TA.AperFunction,SMDPad,CuDef*%
%ADD13RotRect,3.987800X1.244600X348.000000*%
%TD*%
%TA.AperFunction,SMDPad,CuDef*%
%ADD14R,0.700000X0.500000*%
%TD*%
%TA.AperFunction,SMDPad,CuDef*%
%ADD15R,1.100000X0.200000*%
%TD*%
%TA.AperFunction,SMDPad,CuDef*%
%ADD16R,0.500000X0.700000*%
%TD*%
%TA.AperFunction,SMDPad,CuDef*%
%ADD17R,0.200000X1.100000*%
%TD*%
%TA.AperFunction,SMDPad,CuDef*%
%ADD18R,0.800000X0.900000*%
%TD*%
%TA.AperFunction,ComponentPad*%
%ADD19RotRect,2.010000X2.010000X111.000000*%
%TD*%
%TA.AperFunction,ComponentPad*%
%ADD20C,2.010000*%
%TD*%
%TA.AperFunction,ComponentPad*%
%ADD21C,1.447800*%
%TD*%
G04 APERTURE END LIST*
D10*
%TA.AperFunction,EtchedComponent*%
%TO.C,G\u002A\u002A\u002A*%
G36*
X161900349Y-87255964D02*
G01*
X159400000Y-87255964D01*
X156899651Y-87255964D01*
X156899651Y-84799999D01*
X156899651Y-83440384D01*
X157197517Y-83440384D01*
X157199168Y-83443409D01*
X157207859Y-83446546D01*
X157222766Y-83450098D01*
X157238944Y-83453650D01*
X157331284Y-83474912D01*
X157427635Y-83498604D01*
X157522750Y-83523403D01*
X157611378Y-83547987D01*
X157652424Y-83559679D01*
X157743208Y-83584643D01*
X157824923Y-83605682D01*
X157898938Y-83623090D01*
X157966623Y-83637160D01*
X158029347Y-83648185D01*
X158088480Y-83656458D01*
X158145390Y-83662272D01*
X158198649Y-83666705D01*
X158196836Y-83711089D01*
X158197032Y-83748302D01*
X158204523Y-83800734D01*
X158221504Y-83853384D01*
X158235643Y-83888389D01*
X158215136Y-83940041D01*
X158207232Y-83960967D01*
X158195981Y-83995659D01*
X158186149Y-84033439D01*
X158177251Y-84076490D01*
X158168802Y-84126997D01*
X158160317Y-84187144D01*
X158157095Y-84210477D01*
X158148780Y-84260216D01*
X158138907Y-84303148D01*
X158126421Y-84342834D01*
X158110270Y-84382832D01*
X158089398Y-84426704D01*
X158088915Y-84427668D01*
X158056898Y-84502395D01*
X158032764Y-84581459D01*
X158017939Y-84660199D01*
X158015902Y-84680647D01*
X158013836Y-84719845D01*
X158013138Y-84764677D01*
X158013723Y-84812237D01*
X158015503Y-84859618D01*
X158018394Y-84903913D01*
X158022308Y-84942216D01*
X158027160Y-84971621D01*
X158029059Y-84980015D01*
X158047701Y-85047500D01*
X158073114Y-85117589D01*
X158105855Y-85191552D01*
X158146480Y-85270662D01*
X158195547Y-85356190D01*
X158207200Y-85376023D01*
X158239856Y-85436627D01*
X158270337Y-85501508D01*
X158299763Y-85573167D01*
X158329256Y-85654101D01*
X158331808Y-85661531D01*
X158337101Y-85678448D01*
X158339867Y-85692605D01*
X158340316Y-85707621D01*
X158338661Y-85727116D01*
X158335111Y-85754707D01*
X158330061Y-85796559D01*
X158324623Y-85864057D01*
X158322607Y-85933353D01*
X158323950Y-86007642D01*
X158328591Y-86090120D01*
X158329097Y-86097243D01*
X158333062Y-86157447D01*
X158335687Y-86208570D01*
X158336976Y-86253033D01*
X158336930Y-86293253D01*
X158335549Y-86331650D01*
X158332836Y-86370643D01*
X158328792Y-86412651D01*
X158328456Y-86415843D01*
X158325143Y-86450864D01*
X158322422Y-86485805D01*
X158320566Y-86516776D01*
X158319848Y-86539887D01*
X158318881Y-86563239D01*
X158312325Y-86597782D01*
X158298269Y-86627993D01*
X158275187Y-86657906D01*
X158266681Y-86666805D01*
X158239585Y-86689006D01*
X158206573Y-86707201D01*
X158164691Y-86723132D01*
X158164136Y-86723314D01*
X158126595Y-86740655D01*
X158094635Y-86765244D01*
X158069819Y-86795200D01*
X158053709Y-86828643D01*
X158047870Y-86863691D01*
X158048230Y-86873235D01*
X158053107Y-86891351D01*
X158065672Y-86909060D01*
X158072430Y-86916241D01*
X158086970Y-86928091D01*
X158104417Y-86937034D01*
X158126552Y-86943518D01*
X158155158Y-86947993D01*
X158192018Y-86950906D01*
X158238912Y-86952708D01*
X158248877Y-86952967D01*
X158284019Y-86953683D01*
X158310216Y-86953679D01*
X158329794Y-86952787D01*
X158345079Y-86950840D01*
X158358394Y-86947671D01*
X158372067Y-86943111D01*
X158388194Y-86937832D01*
X158416983Y-86930034D01*
X158444203Y-86924233D01*
X158463120Y-86920483D01*
X158485542Y-86914913D01*
X158501709Y-86909623D01*
X158520791Y-86901650D01*
X158509149Y-86923372D01*
X158505014Y-86931718D01*
X158498338Y-86955289D01*
X158502064Y-86974922D01*
X158516668Y-86991805D01*
X158542626Y-87007132D01*
X158546963Y-87009086D01*
X158582667Y-87020965D01*
X158627784Y-87030229D01*
X158680414Y-87036698D01*
X158738663Y-87040194D01*
X158800631Y-87040535D01*
X158864422Y-87037544D01*
X158883150Y-87035991D01*
X158942449Y-87028085D01*
X158991373Y-87016060D01*
X159030650Y-86999431D01*
X159061007Y-86977717D01*
X159083169Y-86950435D01*
X159097865Y-86917102D01*
X159105820Y-86877237D01*
X159110019Y-86839577D01*
X159132078Y-86875346D01*
X159133891Y-86878249D01*
X159171199Y-86926292D01*
X159218160Y-86967966D01*
X159274316Y-87003029D01*
X159339214Y-87031240D01*
X159412397Y-87052359D01*
X159493410Y-87066146D01*
X159494493Y-87066272D01*
X159524403Y-87068979D01*
X159562853Y-87071354D01*
X159606690Y-87073299D01*
X159652760Y-87074716D01*
X159697909Y-87075507D01*
X159738985Y-87075576D01*
X159772833Y-87074822D01*
X159834684Y-87071682D01*
X159951777Y-87062306D01*
X160063764Y-87048791D01*
X160169729Y-87031346D01*
X160268753Y-87010180D01*
X160359920Y-86985498D01*
X160442311Y-86957511D01*
X160515009Y-86926426D01*
X160577096Y-86892451D01*
X160600092Y-86877122D01*
X160641690Y-86842378D01*
X160673282Y-86804022D01*
X160696078Y-86760411D01*
X160711288Y-86709898D01*
X160711884Y-86707141D01*
X160715779Y-86690750D01*
X160720546Y-86680626D01*
X160728881Y-86674701D01*
X160743485Y-86670908D01*
X160767055Y-86667179D01*
X160813817Y-86656538D01*
X160871409Y-86635057D01*
X160929655Y-86605134D01*
X160986359Y-86568072D01*
X161039321Y-86525175D01*
X161086344Y-86477748D01*
X161139421Y-86411494D01*
X161195769Y-86324212D01*
X161242279Y-86230803D01*
X161278768Y-86131776D01*
X161305057Y-86027638D01*
X161320963Y-85918896D01*
X161326305Y-85806057D01*
X161325128Y-85751192D01*
X161314722Y-85637855D01*
X161293418Y-85528530D01*
X161261034Y-85422412D01*
X161217392Y-85318695D01*
X161208095Y-85299964D01*
X161180898Y-85251233D01*
X161149012Y-85202328D01*
X161111759Y-85152503D01*
X161068458Y-85101013D01*
X161018430Y-85047115D01*
X160960996Y-84990062D01*
X160895477Y-84929111D01*
X160821193Y-84863517D01*
X160737465Y-84792535D01*
X160698290Y-84759751D01*
X160662492Y-84729395D01*
X160633482Y-84704187D01*
X160609980Y-84682932D01*
X160590707Y-84664438D01*
X160574380Y-84647510D01*
X160559721Y-84630956D01*
X160545448Y-84613582D01*
X160540063Y-84606730D01*
X160503444Y-84552431D01*
X160478496Y-84499028D01*
X160465144Y-84446058D01*
X160463318Y-84393060D01*
X160472944Y-84339573D01*
X160493950Y-84285134D01*
X160506101Y-84263660D01*
X160530762Y-84230369D01*
X160560364Y-84198724D01*
X160591860Y-84171866D01*
X160622204Y-84152934D01*
X160628314Y-84150054D01*
X160685099Y-84130395D01*
X160744499Y-84122237D01*
X160806314Y-84125592D01*
X160870345Y-84140469D01*
X160887628Y-84146343D01*
X160928501Y-84164027D01*
X160967642Y-84187158D01*
X161007573Y-84217352D01*
X161050815Y-84256228D01*
X161057545Y-84262627D01*
X161089840Y-84291831D01*
X161117016Y-84313192D01*
X161140970Y-84327910D01*
X161163597Y-84337184D01*
X161186794Y-84342213D01*
X161192853Y-84342961D01*
X161219828Y-84343072D01*
X161242104Y-84335755D01*
X161264406Y-84319637D01*
X161274638Y-84310095D01*
X161292383Y-84288468D01*
X161303680Y-84264274D01*
X161309654Y-84234558D01*
X161311434Y-84196364D01*
X161310205Y-84162365D01*
X161305163Y-84130616D01*
X161295078Y-84102351D01*
X161278737Y-84075077D01*
X161254926Y-84046299D01*
X161222431Y-84013525D01*
X161215141Y-84006640D01*
X161142525Y-83946342D01*
X161064507Y-83895602D01*
X160982333Y-83855139D01*
X160897251Y-83825674D01*
X160887498Y-83823021D01*
X160866205Y-83817694D01*
X160846922Y-83813957D01*
X160826879Y-83811532D01*
X160803308Y-83810142D01*
X160773440Y-83809508D01*
X160734506Y-83809354D01*
X160712524Y-83809381D01*
X160679298Y-83809704D01*
X160653915Y-83810608D01*
X160633779Y-83812358D01*
X160616293Y-83815223D01*
X160598860Y-83819470D01*
X160578883Y-83825365D01*
X160510712Y-83850494D01*
X160449255Y-83882691D01*
X160393006Y-83923285D01*
X160339195Y-83973993D01*
X160331494Y-83982246D01*
X160279848Y-84046889D01*
X160238941Y-84116016D01*
X160208903Y-84188925D01*
X160189865Y-84264912D01*
X160181955Y-84343276D01*
X160185304Y-84423313D01*
X160200041Y-84504320D01*
X160226296Y-84585596D01*
X160252083Y-84645329D01*
X160286803Y-84711080D01*
X160326917Y-84772062D01*
X160373651Y-84829767D01*
X160428232Y-84885685D01*
X160491887Y-84941306D01*
X160565843Y-84998120D01*
X160600958Y-85023955D01*
X160658474Y-85067848D01*
X160707493Y-85107840D01*
X160749194Y-85145161D01*
X160784760Y-85181039D01*
X160815372Y-85216704D01*
X160842211Y-85253385D01*
X160866458Y-85292313D01*
X160889296Y-85334715D01*
X160911009Y-85380613D01*
X160945818Y-85472302D01*
X160969970Y-85564678D01*
X160983556Y-85656938D01*
X160986662Y-85748277D01*
X160979379Y-85837891D01*
X160961795Y-85924974D01*
X160933999Y-86008723D01*
X160896080Y-86088333D01*
X160848126Y-86163000D01*
X160790226Y-86231919D01*
X160774168Y-86248477D01*
X160758011Y-86264549D01*
X160746344Y-86275469D01*
X160740971Y-86279496D01*
X160740832Y-86279452D01*
X160738437Y-86273057D01*
X160734900Y-86257362D01*
X160730677Y-86234599D01*
X160726221Y-86207000D01*
X160711881Y-86124628D01*
X160679158Y-85985836D01*
X160636364Y-85849315D01*
X160584051Y-85716178D01*
X160522768Y-85587540D01*
X160453067Y-85464517D01*
X160375500Y-85348224D01*
X160290616Y-85239774D01*
X160198968Y-85140283D01*
X160179829Y-85121449D01*
X160124930Y-85070423D01*
X160068230Y-85022394D01*
X160008370Y-84976443D01*
X159943989Y-84931654D01*
X159873724Y-84887107D01*
X159796214Y-84841884D01*
X159710099Y-84795068D01*
X159614017Y-84745740D01*
X159516838Y-84695519D01*
X159397264Y-84628863D01*
X159288484Y-84562190D01*
X159189911Y-84495153D01*
X159180011Y-84487979D01*
X159150039Y-84465723D01*
X159117023Y-84440562D01*
X159082208Y-84413505D01*
X159046838Y-84385563D01*
X159012156Y-84357747D01*
X158979407Y-84331066D01*
X158949833Y-84306531D01*
X158924680Y-84285152D01*
X158905191Y-84267941D01*
X158892609Y-84255907D01*
X158888179Y-84250060D01*
X158890921Y-84247147D01*
X158901582Y-84239866D01*
X158917521Y-84230533D01*
X158931131Y-84221611D01*
X158952728Y-84203367D01*
X158971346Y-84183316D01*
X158995916Y-84152233D01*
X159035213Y-84154022D01*
X159056699Y-84154057D01*
X159101252Y-84148871D01*
X159145139Y-84137499D01*
X159185614Y-84120953D01*
X159219935Y-84100249D01*
X159245357Y-84076398D01*
X159254099Y-84063232D01*
X159263237Y-84034412D01*
X159261249Y-84003256D01*
X159248103Y-83970984D01*
X159241205Y-83957148D01*
X159233643Y-83932114D01*
X159229349Y-83899729D01*
X159228578Y-83891820D01*
X159221736Y-83851501D01*
X159210454Y-83807302D01*
X159196175Y-83764298D01*
X159180345Y-83727561D01*
X159175043Y-83716768D01*
X159168710Y-83702753D01*
X159166240Y-83695561D01*
X159166247Y-83695507D01*
X159172241Y-83694354D01*
X159188175Y-83693847D01*
X159212237Y-83693924D01*
X159242619Y-83694521D01*
X159277509Y-83695577D01*
X159315097Y-83697029D01*
X159353572Y-83698815D01*
X159391125Y-83700872D01*
X159425945Y-83703138D01*
X159456221Y-83705551D01*
X159465692Y-83706416D01*
X159504665Y-83710288D01*
X159542787Y-83714671D01*
X159581436Y-83719805D01*
X159621986Y-83725929D01*
X159665813Y-83733281D01*
X159714294Y-83742100D01*
X159768804Y-83752625D01*
X159830720Y-83765093D01*
X159901417Y-83779745D01*
X159982271Y-83796819D01*
X160008145Y-83801999D01*
X160034811Y-83806388D01*
X160052932Y-83808097D01*
X160061060Y-83806940D01*
X160061192Y-83806798D01*
X160059460Y-83800575D01*
X160047976Y-83790450D01*
X160027886Y-83777021D01*
X160000335Y-83760886D01*
X159966469Y-83742642D01*
X159927434Y-83722889D01*
X159884376Y-83702222D01*
X159838440Y-83681242D01*
X159790772Y-83660544D01*
X159742518Y-83640727D01*
X159723670Y-83633319D01*
X159662471Y-83610344D01*
X159595794Y-83586699D01*
X159525696Y-83563025D01*
X159454233Y-83539959D01*
X159383460Y-83518142D01*
X159315434Y-83498211D01*
X159252211Y-83480805D01*
X159195846Y-83466564D01*
X159148396Y-83456126D01*
X159112978Y-83449158D01*
X159112978Y-83394482D01*
X159112340Y-83370769D01*
X159109106Y-83329474D01*
X159103673Y-83286597D01*
X159096645Y-83246608D01*
X159088624Y-83213979D01*
X159081120Y-83190401D01*
X159071680Y-83164728D01*
X159063888Y-83148574D01*
X159058184Y-83142963D01*
X159055832Y-83143491D01*
X159044245Y-83149623D01*
X159026626Y-83161378D01*
X159005073Y-83177183D01*
X158981685Y-83195466D01*
X158958562Y-83214652D01*
X158937803Y-83233169D01*
X158929677Y-83240681D01*
X158913908Y-83254675D01*
X158902615Y-83263877D01*
X158897833Y-83266588D01*
X158897641Y-83266187D01*
X158895730Y-83257859D01*
X158892795Y-83241412D01*
X158889389Y-83219897D01*
X158875119Y-83149275D01*
X158847017Y-83060756D01*
X158808198Y-82973818D01*
X158759281Y-82889634D01*
X158700883Y-82809378D01*
X158633621Y-82734222D01*
X158615245Y-82716256D01*
X158567182Y-82674906D01*
X158520443Y-82642755D01*
X158475831Y-82620236D01*
X158434146Y-82607784D01*
X158396192Y-82605831D01*
X158371724Y-82610306D01*
X158331225Y-82625534D01*
X158289957Y-82649416D01*
X158249829Y-82680409D01*
X158212750Y-82716970D01*
X158180627Y-82757555D01*
X158155369Y-82800621D01*
X158149019Y-82813885D01*
X158139541Y-82834318D01*
X158133019Y-82849231D01*
X158130592Y-82856076D01*
X158132953Y-82855500D01*
X158141432Y-82848490D01*
X158153954Y-82836253D01*
X158163313Y-82827233D01*
X158181215Y-82812363D01*
X158196592Y-82802212D01*
X158204271Y-82798961D01*
X158227904Y-82792959D01*
X158256525Y-82789179D01*
X158285457Y-82788112D01*
X158310028Y-82790253D01*
X158314493Y-82791172D01*
X158325937Y-82795662D01*
X158333437Y-82804776D01*
X158340289Y-82821970D01*
X158341796Y-82826798D01*
X158347033Y-82848458D01*
X158352119Y-82875701D01*
X158356136Y-82903784D01*
X158357688Y-82919049D01*
X158359108Y-82967313D01*
X158354912Y-83017202D01*
X158344770Y-83071447D01*
X158328350Y-83132780D01*
X158327339Y-83136170D01*
X158317006Y-83171516D01*
X158309292Y-83196935D01*
X158302821Y-83213513D01*
X158296223Y-83222334D01*
X158288123Y-83224486D01*
X158277149Y-83221052D01*
X158261929Y-83213119D01*
X158241088Y-83201773D01*
X158224213Y-83193093D01*
X158191623Y-83177521D01*
X158162847Y-83165321D01*
X158139511Y-83157098D01*
X158123242Y-83153459D01*
X158115666Y-83155010D01*
X158115265Y-83155708D01*
X158110845Y-83168820D01*
X158106288Y-83190467D01*
X158102015Y-83217647D01*
X158098444Y-83247361D01*
X158095994Y-83276609D01*
X158095084Y-83302390D01*
X158095084Y-83354251D01*
X157978204Y-83358269D01*
X157813809Y-83366136D01*
X157639827Y-83379212D01*
X157470063Y-83396835D01*
X157307992Y-83418694D01*
X157277797Y-83423332D01*
X157243046Y-83428946D01*
X157218632Y-83433456D01*
X157203730Y-83437168D01*
X157197517Y-83440384D01*
X156899651Y-83440384D01*
X156899651Y-82344035D01*
X159400000Y-82344035D01*
X161900349Y-82344035D01*
X161900349Y-84799999D01*
X161900349Y-85806057D01*
X161900349Y-87255964D01*
G37*
%TD.AperFunction*%
%TA.AperFunction,EtchedComponent*%
G36*
X158733357Y-85989515D02*
G01*
X158739224Y-85994273D01*
X158746542Y-86005596D01*
X158752305Y-86014874D01*
X158764202Y-86031930D01*
X158780001Y-86053429D01*
X158797853Y-86076806D01*
X158840766Y-86131933D01*
X158834730Y-86325554D01*
X158834661Y-86327778D01*
X158832384Y-86395888D01*
X158830099Y-86453423D01*
X158827696Y-86501610D01*
X158825067Y-86541672D01*
X158822103Y-86574834D01*
X158818695Y-86602321D01*
X158814734Y-86625357D01*
X158810110Y-86645168D01*
X158804716Y-86662978D01*
X158799652Y-86677021D01*
X158778684Y-86719887D01*
X158751700Y-86753660D01*
X158717204Y-86779906D01*
X158673699Y-86800194D01*
X158652852Y-86809346D01*
X158626701Y-86823312D01*
X158602683Y-86838355D01*
X158599132Y-86840807D01*
X158581572Y-86852721D01*
X158568480Y-86861262D01*
X158562466Y-86864717D01*
X158561942Y-86862724D01*
X158561213Y-86850898D01*
X158560675Y-86829859D01*
X158560350Y-86801239D01*
X158560264Y-86766669D01*
X158560441Y-86727783D01*
X158561036Y-86687432D01*
X158565045Y-86593406D01*
X158573001Y-86506341D01*
X158585329Y-86423104D01*
X158602459Y-86340559D01*
X158624816Y-86255573D01*
X158625989Y-86251526D01*
X158637693Y-86213581D01*
X158650973Y-86174115D01*
X158665178Y-86134727D01*
X158679655Y-86097014D01*
X158693754Y-86062576D01*
X158706822Y-86033008D01*
X158718208Y-86009910D01*
X158727260Y-85994880D01*
X158733326Y-85989514D01*
X158733357Y-85989515D01*
G37*
%TD.AperFunction*%
%TA.AperFunction,EtchedComponent*%
G36*
X166618275Y-82101410D02*
G01*
X166631403Y-82119600D01*
X166641264Y-82146731D01*
X166647486Y-82182415D01*
X166649700Y-82226268D01*
X166649702Y-82231502D01*
X166649103Y-82268702D01*
X166647116Y-82301573D01*
X166643319Y-82333804D01*
X166637293Y-82369086D01*
X166628616Y-82411106D01*
X166624924Y-82426385D01*
X166616830Y-82454470D01*
X166607073Y-82483996D01*
X166596723Y-82511965D01*
X166586853Y-82535378D01*
X166578534Y-82551239D01*
X166573632Y-82560217D01*
X166572590Y-82565692D01*
X166572945Y-82565912D01*
X166580401Y-82568832D01*
X166595828Y-82574249D01*
X166617235Y-82581476D01*
X166642628Y-82589828D01*
X166670562Y-82599516D01*
X166720017Y-82619173D01*
X166770047Y-82641829D01*
X166817864Y-82666112D01*
X166860676Y-82690655D01*
X166895695Y-82714085D01*
X166915050Y-82729222D01*
X166949870Y-82760214D01*
X166981678Y-82793183D01*
X167008278Y-82825772D01*
X167027472Y-82855621D01*
X167031831Y-82864599D01*
X167040893Y-82885971D01*
X167051575Y-82913541D01*
X167062886Y-82944723D01*
X167073839Y-82976928D01*
X167092961Y-83031876D01*
X167118510Y-83094676D01*
X167146178Y-83150382D01*
X167177164Y-83201123D01*
X167212668Y-83249026D01*
X167253889Y-83296218D01*
X167255115Y-83297528D01*
X167274242Y-83318145D01*
X167287099Y-83332829D01*
X167294826Y-83343446D01*
X167298559Y-83351862D01*
X167299437Y-83359945D01*
X167298598Y-83369560D01*
X167296685Y-83382864D01*
X167292356Y-83402076D01*
X167285453Y-83422299D01*
X167274978Y-83446307D01*
X167259930Y-83476875D01*
X167237743Y-83518835D01*
X167202229Y-83578514D01*
X167166712Y-83628585D01*
X167130577Y-83669800D01*
X167093207Y-83702912D01*
X167053987Y-83728675D01*
X167012239Y-83748086D01*
X166965552Y-83763475D01*
X166920268Y-83772639D01*
X166879837Y-83780402D01*
X166836540Y-83796719D01*
X166797889Y-83821624D01*
X166761724Y-83856257D01*
X166743403Y-83878926D01*
X166713900Y-83928115D01*
X166692320Y-83983682D01*
X166679029Y-84044563D01*
X166674395Y-84109693D01*
X166675319Y-84150613D01*
X166679622Y-84199347D01*
X166687893Y-84247994D01*
X166700631Y-84298848D01*
X166718340Y-84354200D01*
X166741520Y-84416342D01*
X166748258Y-84434723D01*
X166760761Y-84474868D01*
X166772244Y-84518872D01*
X166781569Y-84562190D01*
X166787597Y-84600274D01*
X166788013Y-84603981D01*
X166790471Y-84636955D01*
X166791700Y-84676148D01*
X166791764Y-84718716D01*
X166790726Y-84761818D01*
X166788650Y-84802611D01*
X166785600Y-84838251D01*
X166781639Y-84865895D01*
X166781440Y-84866936D01*
X166778963Y-84880890D01*
X166776186Y-84897691D01*
X166768123Y-84939267D01*
X166753797Y-84995635D01*
X166735289Y-85056235D01*
X166713498Y-85118362D01*
X166689323Y-85179313D01*
X166663662Y-85236380D01*
X166638188Y-85287258D01*
X166601080Y-85353631D01*
X166561759Y-85414275D01*
X166518337Y-85471821D01*
X166468932Y-85528900D01*
X166411656Y-85588144D01*
X166407677Y-85592096D01*
X166381364Y-85618857D01*
X166356406Y-85645248D01*
X166334428Y-85669481D01*
X166317056Y-85689771D01*
X166305915Y-85704333D01*
X166295396Y-85720734D01*
X166266196Y-85775482D01*
X166241384Y-85836051D01*
X166222283Y-85898896D01*
X166210218Y-85960475D01*
X166206828Y-85989820D01*
X166204837Y-86022098D01*
X166205029Y-86054757D01*
X166207558Y-86089814D01*
X166212577Y-86129284D01*
X166220240Y-86175184D01*
X166230700Y-86229531D01*
X166235813Y-86254980D01*
X166242861Y-86290119D01*
X166249081Y-86321196D01*
X166254144Y-86346563D01*
X166257720Y-86364571D01*
X166259479Y-86373571D01*
X166261486Y-86383807D01*
X166264497Y-86398031D01*
X166265863Y-86404514D01*
X166269193Y-86420706D01*
X166274177Y-86445111D01*
X166280552Y-86476444D01*
X166288057Y-86513418D01*
X166296431Y-86554747D01*
X166305412Y-86599144D01*
X166313502Y-86639161D01*
X166321936Y-86680858D01*
X166329520Y-86718331D01*
X166335995Y-86750294D01*
X166341098Y-86775460D01*
X166344571Y-86792543D01*
X166346151Y-86800256D01*
X166346405Y-86801476D01*
X166348644Y-86812365D01*
X166352595Y-86831686D01*
X166357898Y-86857670D01*
X166364191Y-86888548D01*
X166371114Y-86922552D01*
X166378171Y-86955880D01*
X166386389Y-86991497D01*
X166394100Y-87021622D01*
X166400853Y-87044516D01*
X166406200Y-87058439D01*
X166412791Y-87070805D01*
X166439355Y-87111340D01*
X166469603Y-87145252D01*
X166501723Y-87170417D01*
X166527450Y-87187869D01*
X166563796Y-87220309D01*
X166589798Y-87255697D01*
X166605584Y-87294226D01*
X166611281Y-87336088D01*
X166611189Y-87343573D01*
X166604610Y-87378745D01*
X166588278Y-87410452D01*
X166562780Y-87438268D01*
X166528705Y-87461769D01*
X166486642Y-87480532D01*
X166437178Y-87494132D01*
X166380903Y-87502145D01*
X166377938Y-87502401D01*
X166358972Y-87504184D01*
X166345247Y-87505721D01*
X166339560Y-87506705D01*
X166335923Y-87507246D01*
X166323359Y-87507493D01*
X166304307Y-87507255D01*
X166281277Y-87506622D01*
X166256783Y-87505678D01*
X166233336Y-87504512D01*
X166213450Y-87503210D01*
X166199637Y-87501860D01*
X166153993Y-87493854D01*
X166080372Y-87472599D01*
X166011943Y-87442048D01*
X165949256Y-87402631D01*
X165892862Y-87354775D01*
X165843311Y-87298910D01*
X165801153Y-87235464D01*
X165766939Y-87164865D01*
X165761240Y-87151303D01*
X165752825Y-87133042D01*
X165746137Y-87120665D01*
X165742261Y-87116305D01*
X165740926Y-87116518D01*
X165730795Y-87117988D01*
X165715879Y-87120054D01*
X165713869Y-87120338D01*
X165699658Y-87122510D01*
X165677189Y-87126082D01*
X165648438Y-87130736D01*
X165615381Y-87136153D01*
X165579992Y-87142012D01*
X165571155Y-87143482D01*
X165536156Y-87149282D01*
X165503976Y-87154583D01*
X165476590Y-87159061D01*
X165455974Y-87162393D01*
X165444105Y-87164256D01*
X165436254Y-87165434D01*
X165423917Y-87167333D01*
X165411014Y-87169415D01*
X165395009Y-87172101D01*
X165373366Y-87175813D01*
X165343549Y-87180972D01*
X165332466Y-87182808D01*
X165307331Y-87186421D01*
X165285304Y-87188892D01*
X165270170Y-87189767D01*
X165265996Y-87189749D01*
X165258351Y-87190125D01*
X165256543Y-87191839D01*
X165261529Y-87195804D01*
X165274263Y-87202932D01*
X165295702Y-87214134D01*
X165298287Y-87215483D01*
X165342673Y-87241971D01*
X165376222Y-87269114D01*
X165398931Y-87296909D01*
X165410796Y-87325351D01*
X165411812Y-87354435D01*
X165409769Y-87364150D01*
X165396747Y-87393147D01*
X165374317Y-87420754D01*
X165343575Y-87446165D01*
X165305621Y-87468572D01*
X165261550Y-87487168D01*
X165212460Y-87501145D01*
X165206083Y-87502430D01*
X165198141Y-87503670D01*
X165188507Y-87504763D01*
X165176570Y-87505716D01*
X165161718Y-87506535D01*
X165143340Y-87507225D01*
X165120822Y-87507795D01*
X165093553Y-87508249D01*
X165060922Y-87508594D01*
X165022315Y-87508837D01*
X164977122Y-87508984D01*
X164924729Y-87509041D01*
X164864526Y-87509015D01*
X164795900Y-87508912D01*
X164718239Y-87508739D01*
X164630931Y-87508501D01*
X164533364Y-87508206D01*
X164486153Y-87508049D01*
X164405154Y-87507741D01*
X164327472Y-87507395D01*
X164253792Y-87507016D01*
X164184801Y-87506611D01*
X164121188Y-87506185D01*
X164063637Y-87505743D01*
X164012836Y-87505291D01*
X163969472Y-87504833D01*
X163934232Y-87504376D01*
X163907803Y-87503925D01*
X163890870Y-87503486D01*
X163884122Y-87503063D01*
X163880139Y-87502066D01*
X163865330Y-87499202D01*
X163847448Y-87496450D01*
X163787694Y-87485099D01*
X163716678Y-87464116D01*
X163644944Y-87435612D01*
X163574877Y-87400669D01*
X163508862Y-87360369D01*
X163449284Y-87315795D01*
X163438133Y-87306214D01*
X163414044Y-87284130D01*
X163388825Y-87259550D01*
X163364830Y-87234859D01*
X163344409Y-87212444D01*
X163329913Y-87194690D01*
X163326734Y-87190903D01*
X163311823Y-87177668D01*
X163289919Y-87162034D01*
X163263162Y-87145575D01*
X163183275Y-87096896D01*
X163089157Y-87031303D01*
X162998534Y-86958385D01*
X162909109Y-86876397D01*
X162836653Y-86801833D01*
X162756019Y-86706731D01*
X162685468Y-86608391D01*
X162624705Y-86506302D01*
X162573432Y-86399956D01*
X162531352Y-86288844D01*
X162498169Y-86172458D01*
X162494303Y-86155966D01*
X162488458Y-86129080D01*
X162483793Y-86105248D01*
X162481068Y-86088208D01*
X162479808Y-86078533D01*
X162477640Y-86064738D01*
X162476038Y-86058030D01*
X162474186Y-86052525D01*
X162471655Y-86036011D01*
X162469576Y-86011261D01*
X162467948Y-85979868D01*
X162466770Y-85943423D01*
X162466040Y-85903517D01*
X162465759Y-85861743D01*
X162465925Y-85819690D01*
X162466537Y-85778951D01*
X162467595Y-85741117D01*
X162469098Y-85707780D01*
X162471044Y-85680530D01*
X162473433Y-85660959D01*
X162476264Y-85650659D01*
X162477063Y-85647963D01*
X162479123Y-85636865D01*
X162481490Y-85620757D01*
X162486005Y-85591857D01*
X162496132Y-85541569D01*
X162509604Y-85485773D01*
X162525722Y-85427112D01*
X162543789Y-85368228D01*
X162563106Y-85311763D01*
X162582005Y-85261699D01*
X162609616Y-85194629D01*
X162641000Y-85124715D01*
X162676578Y-85051146D01*
X162716773Y-84973105D01*
X162762007Y-84889781D01*
X162812702Y-84800358D01*
X162869279Y-84704022D01*
X162932161Y-84599961D01*
X162937842Y-84590662D01*
X162995867Y-84494249D01*
X163047508Y-84405555D01*
X163093112Y-84323854D01*
X163133024Y-84248419D01*
X163167591Y-84178525D01*
X163197160Y-84113445D01*
X163222076Y-84052453D01*
X163242687Y-83994823D01*
X163259337Y-83939829D01*
X163272375Y-83886745D01*
X163276129Y-83869077D01*
X163282730Y-83834704D01*
X163287204Y-83804229D01*
X163289929Y-83773965D01*
X163291287Y-83740223D01*
X163291655Y-83699315D01*
X163291645Y-83691964D01*
X163291029Y-83651143D01*
X163289156Y-83616510D01*
X163285607Y-83584047D01*
X163279961Y-83549740D01*
X163271798Y-83509572D01*
X163252929Y-83436148D01*
X163226004Y-83360730D01*
X163193362Y-83293392D01*
X163155284Y-83234414D01*
X163112053Y-83184071D01*
X163063948Y-83142643D01*
X163011252Y-83110408D01*
X162954245Y-83087642D01*
X162893208Y-83074624D01*
X162828424Y-83071631D01*
X162811006Y-83072624D01*
X162778410Y-83076410D01*
X162746757Y-83082216D01*
X162719355Y-83089384D01*
X162699515Y-83097255D01*
X162697502Y-83098513D01*
X162686983Y-83106932D01*
X162672275Y-83120265D01*
X162655904Y-83136251D01*
X162646748Y-83145046D01*
X162612147Y-83171907D01*
X162573154Y-83194168D01*
X162531724Y-83211259D01*
X162489811Y-83222610D01*
X162449371Y-83227649D01*
X162412358Y-83225808D01*
X162380728Y-83216516D01*
X162364072Y-83207793D01*
X162340298Y-83189506D01*
X162322904Y-83165800D01*
X162309607Y-83134025D01*
X162303145Y-83107439D01*
X162301482Y-83064996D01*
X162309695Y-83022205D01*
X162327220Y-82979622D01*
X162353493Y-82937806D01*
X162387951Y-82897312D01*
X162430032Y-82858699D01*
X162479170Y-82822524D01*
X162534804Y-82789342D01*
X162596369Y-82759713D01*
X162663302Y-82734192D01*
X162735039Y-82713337D01*
X162739237Y-82712300D01*
X162773196Y-82704324D01*
X162802289Y-82698593D01*
X162829662Y-82694754D01*
X162858460Y-82692453D01*
X162891829Y-82691334D01*
X162932913Y-82691043D01*
X162968357Y-82691294D01*
X163003741Y-82692443D01*
X163033491Y-82694839D01*
X163060466Y-82698819D01*
X163087525Y-82704721D01*
X163117528Y-82712884D01*
X163187138Y-82736833D01*
X163267501Y-82774589D01*
X163342634Y-82821245D01*
X163412001Y-82876192D01*
X163475065Y-82938823D01*
X163531289Y-83008533D01*
X163580139Y-83084713D01*
X163621076Y-83166757D01*
X163653565Y-83254058D01*
X163677068Y-83346008D01*
X163682004Y-83374598D01*
X163688080Y-83426377D01*
X163691868Y-83482906D01*
X163693316Y-83541121D01*
X163692370Y-83597959D01*
X163688979Y-83650356D01*
X163683089Y-83695250D01*
X163681364Y-83705036D01*
X163678146Y-83723504D01*
X163674574Y-83744169D01*
X163670267Y-83766641D01*
X163663210Y-83799372D01*
X163654412Y-83837547D01*
X163644513Y-83878517D01*
X163634157Y-83919630D01*
X163623983Y-83958236D01*
X163614636Y-83991686D01*
X163600832Y-84037832D01*
X163574401Y-84119625D01*
X163545191Y-84201880D01*
X163512747Y-84285636D01*
X163476611Y-84371930D01*
X163436327Y-84461799D01*
X163391437Y-84556282D01*
X163341485Y-84656416D01*
X163286015Y-84763238D01*
X163224569Y-84877786D01*
X163222802Y-84881034D01*
X163206849Y-84910413D01*
X163190732Y-84940156D01*
X163176238Y-84966961D01*
X163165157Y-84987524D01*
X163159691Y-84997676D01*
X163145489Y-85023930D01*
X163129759Y-85052891D01*
X163115012Y-85079927D01*
X163105624Y-85097320D01*
X163084153Y-85138465D01*
X163061360Y-85183701D01*
X163038334Y-85230757D01*
X163016164Y-85277359D01*
X162995937Y-85321236D01*
X162978742Y-85360116D01*
X162965667Y-85391726D01*
X162960033Y-85406550D01*
X162947661Y-85441641D01*
X162935261Y-85479768D01*
X162923614Y-85518295D01*
X162913503Y-85554583D01*
X162905709Y-85585992D01*
X162901014Y-85609886D01*
X162898979Y-85623667D01*
X162894830Y-85654328D01*
X162892072Y-85680831D01*
X162890438Y-85706932D01*
X162889663Y-85736386D01*
X162889481Y-85772950D01*
X162889502Y-85784322D01*
X162889918Y-85821127D01*
X162891132Y-85851041D01*
X162893496Y-85877199D01*
X162897363Y-85902740D01*
X162903086Y-85930801D01*
X162911018Y-85964518D01*
X162915555Y-85982283D01*
X162944714Y-86071377D01*
X162984500Y-86160158D01*
X163034962Y-86248704D01*
X163096149Y-86337094D01*
X163168109Y-86425407D01*
X163250892Y-86513720D01*
X163251715Y-86514545D01*
X163274285Y-86536991D01*
X163294044Y-86556360D01*
X163309783Y-86571490D01*
X163320293Y-86581218D01*
X163324366Y-86584382D01*
X163325068Y-86580169D01*
X163326317Y-86567047D01*
X163327841Y-86547251D01*
X163329453Y-86523047D01*
X163330732Y-86503339D01*
X163332437Y-86479435D01*
X163333958Y-86460576D01*
X163335073Y-86449668D01*
X163335682Y-86444414D01*
X163337149Y-86428443D01*
X163338905Y-86406539D01*
X163340691Y-86381829D01*
X163341745Y-86366921D01*
X163343447Y-86344849D01*
X163344917Y-86328054D01*
X163345924Y-86319321D01*
X163346302Y-86316697D01*
X163347626Y-86304099D01*
X163349337Y-86284918D01*
X163351160Y-86262144D01*
X163351866Y-86253039D01*
X163353776Y-86230057D01*
X163355526Y-86211123D01*
X163356807Y-86199636D01*
X163358204Y-86188059D01*
X163360168Y-86169336D01*
X163362210Y-86147999D01*
X163364165Y-86127595D01*
X163366157Y-86108664D01*
X163367656Y-86096362D01*
X163368765Y-86087949D01*
X163370854Y-86070312D01*
X163373064Y-86050160D01*
X163374635Y-86035645D01*
X163376801Y-86016810D01*
X163378435Y-86003958D01*
X163379546Y-85995640D01*
X163381735Y-85978046D01*
X163384114Y-85957947D01*
X163385861Y-85943475D01*
X163388216Y-85925795D01*
X163390000Y-85914464D01*
X163391212Y-85906836D01*
X163393349Y-85890350D01*
X163395550Y-85870789D01*
X163397248Y-85855895D01*
X163399208Y-85841826D01*
X163400615Y-85835268D01*
X163401747Y-85830569D01*
X163403764Y-85817643D01*
X163406004Y-85799937D01*
X163407840Y-85785211D01*
X163409953Y-85771163D01*
X163411439Y-85764607D01*
X163412591Y-85759908D01*
X163414628Y-85746982D01*
X163416875Y-85729276D01*
X163418720Y-85714553D01*
X163420877Y-85700422D01*
X163422426Y-85693759D01*
X163423265Y-85691087D01*
X163425425Y-85679946D01*
X163427839Y-85663863D01*
X163429170Y-85654513D01*
X163431473Y-85640833D01*
X163433113Y-85634231D01*
X163433737Y-85632416D01*
X163435849Y-85622291D01*
X163438299Y-85607053D01*
X163441829Y-85585946D01*
X163447770Y-85555153D01*
X163455536Y-85517692D01*
X163464685Y-85475554D01*
X163474776Y-85430730D01*
X163485369Y-85385213D01*
X163496022Y-85340994D01*
X163506293Y-85300064D01*
X163508797Y-85290382D01*
X163550738Y-85142367D01*
X163597140Y-85003626D01*
X163647938Y-84874316D01*
X163703066Y-84754593D01*
X163762458Y-84644613D01*
X163826048Y-84544532D01*
X163855168Y-84503979D01*
X163924308Y-84418966D01*
X163998566Y-84342130D01*
X164077271Y-84274076D01*
X164159752Y-84215408D01*
X164245339Y-84166729D01*
X164262197Y-84158636D01*
X164307049Y-84139486D01*
X164356381Y-84121126D01*
X164406720Y-84104720D01*
X164454595Y-84091433D01*
X164496535Y-84082431D01*
X164511179Y-84079965D01*
X164545626Y-84074610D01*
X164579260Y-84070188D01*
X164617912Y-84065905D01*
X164622028Y-84065464D01*
X164658722Y-84060703D01*
X164701768Y-84053979D01*
X164747734Y-84045918D01*
X164793188Y-84037149D01*
X164834699Y-84028299D01*
X164868834Y-84019997D01*
X164927249Y-84002997D01*
X165007287Y-83974024D01*
X165078118Y-83940652D01*
X165140366Y-83902423D01*
X165194654Y-83858878D01*
X165241607Y-83809560D01*
X165281849Y-83754012D01*
X165316002Y-83691774D01*
X165318454Y-83686603D01*
X165329715Y-83662029D01*
X165339904Y-83637995D01*
X165349672Y-83612663D01*
X165359670Y-83584194D01*
X165370552Y-83550747D01*
X165382967Y-83510485D01*
X165397568Y-83461568D01*
X165412077Y-83413313D01*
X165436542Y-83336780D01*
X165460724Y-83268698D01*
X165485536Y-83207617D01*
X165511893Y-83152085D01*
X165540708Y-83100653D01*
X165572897Y-83051869D01*
X165609373Y-83004282D01*
X165651051Y-82956442D01*
X165698844Y-82906899D01*
X165753668Y-82854201D01*
X165816435Y-82796898D01*
X165825548Y-82788727D01*
X165849136Y-82767555D01*
X165870921Y-82747970D01*
X165888804Y-82731860D01*
X165900685Y-82721113D01*
X165903852Y-82718260D01*
X165918989Y-82704910D01*
X165940933Y-82685823D01*
X165968544Y-82661972D01*
X166000685Y-82634331D01*
X166036216Y-82603875D01*
X166073999Y-82571577D01*
X166112894Y-82538410D01*
X166151764Y-82505350D01*
X166189469Y-82473369D01*
X166224870Y-82443441D01*
X166256829Y-82416541D01*
X166296370Y-82382958D01*
X166350851Y-82335002D01*
X166397147Y-82291877D01*
X166435867Y-82252989D01*
X166467621Y-82217740D01*
X166493019Y-82185533D01*
X166499490Y-82176756D01*
X166516667Y-82154467D01*
X166533337Y-82134034D01*
X166546651Y-82118990D01*
X166562988Y-82104332D01*
X166583697Y-82093389D01*
X166602250Y-82092544D01*
X166618275Y-82101410D01*
G37*
%TD.AperFunction*%
%TD*%
D11*
%TO.P,U6,1,1*%
%TO.N,L1_BUTTON*%
X156835841Y-71015495D03*
%TO.P,U6,2,2*%
%TO.N,GND*%
X164065721Y-72552253D03*
D12*
%TO.P,U6,5*%
%TO.N,N/C*%
X158732815Y-70276141D03*
%TO.P,U6,4*%
X162633472Y-71105251D03*
D13*
%TO.P,U6,3,3*%
%TO.N,GND*%
X161000001Y-69199999D03*
%TD*%
D14*
%TO.P,S4,1,1*%
%TO.N,GND*%
X143650000Y-106875000D03*
%TO.P,S4,2,2*%
X143650000Y-111125000D03*
%TO.P,S4,3,3*%
%TO.N,D_LEFT_BUTTON*%
X147150000Y-106875000D03*
%TO.P,S4,4,4*%
X147150000Y-111125000D03*
D15*
%TO.P,S4,5,5*%
%TO.N,GND*%
X143650000Y-106525000D03*
%TO.P,S4,6,6*%
X143650000Y-111475000D03*
%TO.P,S4,7,7*%
%TO.N,D_LEFT_BUTTON*%
X147150000Y-106525000D03*
%TO.P,S4,8,8*%
X147150000Y-111475000D03*
%TD*%
D14*
%TO.P,S3,1,1*%
%TO.N,GND*%
X156650000Y-106875000D03*
%TO.P,S3,2,2*%
X156650000Y-111125000D03*
%TO.P,S3,3,3*%
%TO.N,D_DOWN_BUTTON*%
X160150000Y-106875000D03*
%TO.P,S3,4,4*%
X160150000Y-111125000D03*
D15*
%TO.P,S3,5,5*%
%TO.N,GND*%
X156650000Y-106525000D03*
%TO.P,S3,6,6*%
X156650000Y-111475000D03*
%TO.P,S3,7,7*%
%TO.N,D_DOWN_BUTTON*%
X160150000Y-106525000D03*
%TO.P,S3,8,8*%
X160150000Y-111475000D03*
%TD*%
D16*
%TO.P,S2,1,1*%
%TO.N,GND*%
X154125000Y-113850000D03*
%TO.P,S2,2,2*%
X149875000Y-113850000D03*
%TO.P,S2,3,3*%
%TO.N,D_RIGHT_BUTTON*%
X154125000Y-117350000D03*
%TO.P,S2,4,4*%
X149875000Y-117350000D03*
D17*
%TO.P,S2,5,5*%
%TO.N,GND*%
X154475000Y-113850000D03*
%TO.P,S2,6,6*%
X149525000Y-113850000D03*
%TO.P,S2,7,7*%
%TO.N,D_RIGHT_BUTTON*%
X154475000Y-117350000D03*
%TO.P,S2,8,8*%
X149525000Y-117350000D03*
%TD*%
D16*
%TO.P,S1,1,1*%
%TO.N,GND*%
X154125000Y-100850000D03*
%TO.P,S1,2,2*%
X149875000Y-100850000D03*
%TO.P,S1,3,3*%
%TO.N,D_UP_BUTTON*%
X154125000Y-104350000D03*
%TO.P,S1,4,4*%
X149875000Y-104350000D03*
D17*
%TO.P,S1,5,5*%
%TO.N,GND*%
X154475000Y-100850000D03*
%TO.P,S1,6,6*%
X149525000Y-100850000D03*
%TO.P,S1,7,7*%
%TO.N,D_UP_BUTTON*%
X154475000Y-104350000D03*
%TO.P,S1,8,8*%
X149525000Y-104350000D03*
%TD*%
D12*
%TO.P,M1,1,1*%
%TO.N,RUMBLE+*%
X165200000Y-118780000D03*
%TO.P,M1,2,2*%
%TO.N,RUMBLE-*%
X167800000Y-118780000D03*
%TO.P,M1,3*%
%TO.N,N/C*%
X167800000Y-116000000D03*
%TO.P,M1,4*%
X167800000Y-109500001D03*
%TD*%
D18*
%TO.P,LED1,1,ANODE*%
%TO.N,VDD*%
X142200000Y-70200000D03*
%TO.P,LED1,2,RED_CATHODE*%
%TO.N,R-*%
X141000000Y-70200000D03*
%TO.P,LED1,3,GREEN_CATHODE*%
%TO.N,G-*%
X141000000Y-68400000D03*
%TO.P,LED1,4,BLUE_CATHODE*%
%TO.N,B-*%
X142200000Y-68400000D03*
%TD*%
D19*
%TO.P,H1,1,SLEEVE*%
%TO.N,GND*%
X128915322Y-133308780D03*
D20*
%TO.P,H1,2,TIP*%
%TO.N,GC_AUX_DATA*%
X134965558Y-125630587D03*
%TO.P,H1,3,RING_1*%
%TO.N,+5V*%
X128999999Y-124600001D03*
%TO.P,H1,4,RING_2*%
%TO.N,+3V3*%
X137597620Y-129975958D03*
%TD*%
D21*
%TO.P,SW2,9*%
%TO.N,N/C*%
X145929085Y-119285476D03*
%TO.P,SW2,10*%
X150684367Y-117740391D03*
%TD*%
%TA.AperFunction,Conductor*%
%TO.N,GND*%
G36*
X141553917Y-68006246D02*
G01*
X141648971Y-68009041D01*
X141683879Y-68024718D01*
X141697500Y-68059019D01*
X141697500Y-68860091D01*
X141697501Y-68860095D01*
X141700382Y-68874583D01*
X141703447Y-68889993D01*
X141726102Y-68923898D01*
X141760007Y-68946553D01*
X141789905Y-68952500D01*
X142610094Y-68952499D01*
X142639993Y-68946553D01*
X142673898Y-68923898D01*
X142683290Y-68909840D01*
X142688850Y-68906125D01*
X142691793Y-68900118D01*
X142704203Y-68895867D01*
X142715108Y-68888581D01*
X142721667Y-68889885D01*
X142727997Y-68887718D01*
X142739777Y-68893487D01*
X142752641Y-68896046D01*
X142762365Y-68904550D01*
X142809774Y-68958312D01*
X142813813Y-68963555D01*
X142816470Y-68967522D01*
X142827231Y-68978261D01*
X142829409Y-68980578D01*
X142839457Y-68991972D01*
X142839458Y-68991972D01*
X142843243Y-68994860D01*
X142848232Y-68999219D01*
X142902687Y-69053564D01*
X142903290Y-69054907D01*
X142916778Y-69067628D01*
X142917279Y-69068128D01*
X142917280Y-69068129D01*
X142930510Y-69081332D01*
X142935621Y-69085399D01*
X143030749Y-69175114D01*
X143035315Y-69179420D01*
X143036129Y-69181073D01*
X143049812Y-69193092D01*
X143063063Y-69205589D01*
X143063072Y-69205597D01*
X143069492Y-69210379D01*
X143124949Y-69259091D01*
X143125332Y-69259839D01*
X143139962Y-69272279D01*
X143140239Y-69272522D01*
X143140248Y-69272530D01*
X143156156Y-69286503D01*
X143159297Y-69288718D01*
X143258000Y-69372646D01*
X143258615Y-69373777D01*
X143273205Y-69385575D01*
X143287480Y-69397713D01*
X143288428Y-69398519D01*
X143293192Y-69401737D01*
X143341517Y-69440814D01*
X143341519Y-69440816D01*
X143345760Y-69444245D01*
X143346182Y-69444993D01*
X143361242Y-69456767D01*
X143361555Y-69457020D01*
X143361608Y-69457062D01*
X143378001Y-69470317D01*
X143381297Y-69472445D01*
X143476309Y-69546723D01*
X143477280Y-69548306D01*
X143491997Y-69558988D01*
X143506344Y-69570204D01*
X143506347Y-69570205D01*
X143506367Y-69570215D01*
X143513223Y-69574394D01*
X143519926Y-69579259D01*
X143559329Y-69607859D01*
X143559330Y-69607859D01*
X143564144Y-69611353D01*
X143564958Y-69612599D01*
X143580273Y-69623060D01*
X143595297Y-69633965D01*
X143595298Y-69633965D01*
X143595922Y-69634418D01*
X143601653Y-69637664D01*
X143697433Y-69703089D01*
X143699295Y-69705596D01*
X143713869Y-69714316D01*
X143727874Y-69723883D01*
X143727880Y-69723884D01*
X143731620Y-69725479D01*
X143737691Y-69728570D01*
X143791377Y-69760694D01*
X143792795Y-69762440D01*
X143808450Y-69770910D01*
X143823753Y-69780067D01*
X143823755Y-69780068D01*
X143824896Y-69780475D01*
X143831887Y-69783590D01*
X143936901Y-69840410D01*
X143939746Y-69843393D01*
X143954363Y-69849857D01*
X143956118Y-69850807D01*
X143956120Y-69850808D01*
X143968439Y-69857474D01*
X143973143Y-69858927D01*
X143973026Y-69859303D01*
X143979755Y-69861089D01*
X144043746Y-69889393D01*
X144045633Y-69891183D01*
X144061953Y-69897446D01*
X144077935Y-69904515D01*
X144077936Y-69904515D01*
X144080201Y-69905022D01*
X144087203Y-69907135D01*
X144133622Y-69924950D01*
X144203730Y-69951856D01*
X144203731Y-69951856D01*
X144211053Y-69954666D01*
X144214351Y-69957319D01*
X144229597Y-69961782D01*
X144244430Y-69967475D01*
X144244434Y-69967474D01*
X144249285Y-69968308D01*
X144249224Y-69968663D01*
X144256187Y-69969566D01*
X144335807Y-69992878D01*
X144337764Y-69994308D01*
X144354922Y-69998474D01*
X144371854Y-70003432D01*
X144371854Y-70003431D01*
X144371855Y-70003432D01*
X144373594Y-70003586D01*
X144380971Y-70004800D01*
X144531321Y-70041312D01*
X144534480Y-70043289D01*
X144550641Y-70046004D01*
X144552383Y-70046427D01*
X144566554Y-70049869D01*
X144571475Y-70050075D01*
X144571452Y-70050600D01*
X144578211Y-70050635D01*
X144675854Y-70067040D01*
X144677655Y-70068070D01*
X144695510Y-70070343D01*
X144713241Y-70073322D01*
X144713245Y-70073320D01*
X144713904Y-70073302D01*
X144721713Y-70073678D01*
X144900999Y-70096503D01*
X144903873Y-70097919D01*
X144920737Y-70099016D01*
X144937488Y-70101149D01*
X144937494Y-70101147D01*
X144941842Y-70100844D01*
X144948580Y-70100828D01*
X144948826Y-70100844D01*
X145064086Y-70108345D01*
X145065746Y-70109092D01*
X145083979Y-70109640D01*
X145102170Y-70110824D01*
X145102170Y-70110823D01*
X145102233Y-70110828D01*
X145110146Y-70110426D01*
X145315601Y-70116603D01*
X145318314Y-70117646D01*
X145335502Y-70117202D01*
X145352666Y-70117718D01*
X145352676Y-70117714D01*
X145355943Y-70117166D01*
X145362927Y-70116493D01*
X145493562Y-70113119D01*
X145495182Y-70113681D01*
X145513501Y-70112604D01*
X145531821Y-70112131D01*
X145531822Y-70112130D01*
X145532106Y-70112123D01*
X145539524Y-70111074D01*
X145764681Y-70097840D01*
X145767414Y-70098624D01*
X145784552Y-70096672D01*
X145801758Y-70095661D01*
X145801760Y-70095659D01*
X145804776Y-70094874D01*
X145811739Y-70093575D01*
X145952083Y-70077594D01*
X145953768Y-70078017D01*
X145971878Y-70075339D01*
X145976252Y-70074841D01*
X145990303Y-70073242D01*
X145997709Y-70071520D01*
X146233856Y-70036613D01*
X146236774Y-70037171D01*
X146253541Y-70033703D01*
X146270472Y-70031201D01*
X146273826Y-70030003D01*
X146280515Y-70028125D01*
X146424394Y-69998373D01*
X146426230Y-69998657D01*
X146443888Y-69994342D01*
X146461727Y-69990654D01*
X146461731Y-69990651D01*
X146461759Y-69990640D01*
X146469380Y-69988114D01*
X146707091Y-69930038D01*
X146710300Y-69930331D01*
X146726406Y-69925319D01*
X146742800Y-69921314D01*
X146742803Y-69921311D01*
X146746831Y-69919435D01*
X146753086Y-69917016D01*
X146894490Y-69873017D01*
X146896523Y-69873123D01*
X146913509Y-69867099D01*
X146930723Y-69861743D01*
X146930728Y-69861738D01*
X146931205Y-69861480D01*
X146938378Y-69858279D01*
X147168967Y-69776508D01*
X147172521Y-69776450D01*
X147187699Y-69769866D01*
X147203300Y-69764334D01*
X147203301Y-69764332D01*
X147207532Y-69761812D01*
X147207831Y-69762314D01*
X147213444Y-69758697D01*
X147347683Y-69700472D01*
X147349937Y-69700337D01*
X147365953Y-69692547D01*
X147382294Y-69685460D01*
X147382295Y-69685458D01*
X147382297Y-69685458D01*
X147383311Y-69684756D01*
X147389912Y-69680895D01*
X147399270Y-69676344D01*
X147606075Y-69575770D01*
X147609995Y-69575233D01*
X147623944Y-69567080D01*
X147638474Y-69560014D01*
X147638477Y-69560010D01*
X147642402Y-69557034D01*
X147642673Y-69557392D01*
X147647983Y-69553029D01*
X147771450Y-69480868D01*
X147773922Y-69480407D01*
X147788634Y-69470824D01*
X147803797Y-69461963D01*
X147803801Y-69461957D01*
X147805330Y-69460603D01*
X147811214Y-69456119D01*
X148000739Y-69332683D01*
X148007242Y-69328448D01*
X148011481Y-69327278D01*
X148023883Y-69317610D01*
X148037061Y-69309028D01*
X148037063Y-69309024D01*
X148040585Y-69305585D01*
X148040801Y-69305806D01*
X148045664Y-69300630D01*
X148155483Y-69215029D01*
X148158117Y-69214148D01*
X148171175Y-69202796D01*
X148184827Y-69192156D01*
X148184830Y-69192150D01*
X148186726Y-69189956D01*
X148191763Y-69184900D01*
X148363516Y-69035610D01*
X148367904Y-69033675D01*
X148378495Y-69022590D01*
X148390072Y-69012528D01*
X148390075Y-69012520D01*
X148393087Y-69008633D01*
X148393234Y-69008747D01*
X148397436Y-69002766D01*
X148491701Y-68904114D01*
X148494352Y-68902759D01*
X148505443Y-68889732D01*
X148517266Y-68877360D01*
X148517266Y-68877358D01*
X148517268Y-68877357D01*
X148519191Y-68874332D01*
X148523321Y-68868735D01*
X148530679Y-68860094D01*
X148972995Y-68340626D01*
X148983345Y-68331430D01*
X149075194Y-68270276D01*
X149082954Y-68266049D01*
X149191602Y-68218791D01*
X149199980Y-68215999D01*
X149315260Y-68188623D01*
X149323997Y-68187351D01*
X149444769Y-68180578D01*
X149447563Y-68180501D01*
X149448387Y-68180500D01*
X149473644Y-68181323D01*
X149475182Y-68180500D01*
X149482928Y-68180500D01*
X152356785Y-68180500D01*
X152365461Y-68182417D01*
X152365644Y-68181368D01*
X152372126Y-68182498D01*
X152372128Y-68182499D01*
X152372129Y-68182498D01*
X152372130Y-68182499D01*
X152385282Y-68181323D01*
X152392264Y-68180698D01*
X152394582Y-68180545D01*
X152395636Y-68180500D01*
X152409991Y-68180500D01*
X152411638Y-68179817D01*
X152417755Y-68179556D01*
X152417863Y-68179595D01*
X152418423Y-68179532D01*
X152457885Y-68178378D01*
X152463851Y-68178561D01*
X152519592Y-68183627D01*
X152525492Y-68184523D01*
X152564001Y-68192751D01*
X152564509Y-68192863D01*
X152569847Y-68194064D01*
X152570688Y-68194628D01*
X152585525Y-68197594D01*
X152586072Y-68197718D01*
X152586137Y-68197764D01*
X152588428Y-68198310D01*
X152609099Y-68204041D01*
X152609102Y-68204040D01*
X152613401Y-68204077D01*
X152622778Y-68205045D01*
X158363293Y-69353148D01*
X158395090Y-69374442D01*
X158402516Y-69411983D01*
X158381222Y-69443780D01*
X158372622Y-69448371D01*
X158305275Y-69476267D01*
X158157441Y-69575045D01*
X158031719Y-69700767D01*
X157932941Y-69848601D01*
X157932940Y-69848603D01*
X157864901Y-70012862D01*
X157864901Y-70012864D01*
X157830215Y-70187239D01*
X157830215Y-70365042D01*
X157864901Y-70539417D01*
X157864901Y-70539419D01*
X157932940Y-70703678D01*
X157932942Y-70703682D01*
X157946450Y-70723898D01*
X158025343Y-70841972D01*
X158031720Y-70851515D01*
X158157441Y-70977236D01*
X158305274Y-71076014D01*
X158469536Y-71144054D01*
X158643917Y-71178741D01*
X158643923Y-71178741D01*
X158821707Y-71178741D01*
X158821713Y-71178741D01*
X158996094Y-71144054D01*
X159160356Y-71076014D01*
X159308189Y-70977236D01*
X159433910Y-70851515D01*
X159532688Y-70703682D01*
X159600728Y-70539420D01*
X159635415Y-70365039D01*
X159635415Y-70187243D01*
X159600728Y-70012862D01*
X159532688Y-69848600D01*
X159433910Y-69700767D01*
X159383811Y-69650668D01*
X159369166Y-69615313D01*
X159383811Y-69579958D01*
X159419166Y-69565313D01*
X159428971Y-69566283D01*
X162343692Y-70149228D01*
X162375488Y-70170522D01*
X162382914Y-70208063D01*
X162361620Y-70239860D01*
X162353019Y-70244451D01*
X162205934Y-70305376D01*
X162205932Y-70305377D01*
X162058098Y-70404155D01*
X161932376Y-70529877D01*
X161833598Y-70677711D01*
X161833597Y-70677713D01*
X161765558Y-70841972D01*
X161765558Y-70841974D01*
X161730872Y-71016349D01*
X161730872Y-71194152D01*
X161765558Y-71368527D01*
X161765558Y-71368529D01*
X161833597Y-71532788D01*
X161833598Y-71532790D01*
X161913576Y-71652488D01*
X161932377Y-71680625D01*
X162058098Y-71806346D01*
X162205931Y-71905124D01*
X162370193Y-71973164D01*
X162544574Y-72007851D01*
X162544580Y-72007851D01*
X162722364Y-72007851D01*
X162722370Y-72007851D01*
X162896751Y-71973164D01*
X163061013Y-71905124D01*
X163208846Y-71806346D01*
X163334567Y-71680625D01*
X163433345Y-71532792D01*
X163501385Y-71368530D01*
X163536072Y-71194149D01*
X163536072Y-71016353D01*
X163501385Y-70841972D01*
X163433345Y-70677710D01*
X163334567Y-70529877D01*
X163223244Y-70418554D01*
X163208599Y-70383199D01*
X163223244Y-70347844D01*
X163258599Y-70333199D01*
X163268398Y-70334169D01*
X166458133Y-70972116D01*
X166464168Y-70973325D01*
X166464380Y-70973510D01*
X166488641Y-70978229D01*
X166488674Y-70978251D01*
X166493175Y-70979360D01*
X166616513Y-71016358D01*
X166655217Y-71027968D01*
X166664386Y-71031745D01*
X166811429Y-71110192D01*
X166819673Y-71115705D01*
X166948341Y-71221630D01*
X166955334Y-71228661D01*
X167060566Y-71357897D01*
X167066034Y-71366170D01*
X167143690Y-71513632D01*
X167147418Y-71522822D01*
X167194442Y-71682708D01*
X167196283Y-71692453D01*
X167210827Y-71858475D01*
X167210709Y-71868390D01*
X167191842Y-72037242D01*
X167191070Y-72042029D01*
X167190977Y-72042467D01*
X167186091Y-72065323D01*
X167186124Y-72065427D01*
X167184752Y-72071923D01*
X167184750Y-72071924D01*
X167184750Y-72071934D01*
X166138586Y-77016536D01*
X166138459Y-77016898D01*
X166134428Y-77036095D01*
X166134411Y-77036180D01*
X166117677Y-77115171D01*
X166119552Y-77249731D01*
X166119553Y-77249740D01*
X166150871Y-77380618D01*
X166210115Y-77501464D01*
X166294392Y-77606376D01*
X166294394Y-77606378D01*
X166294397Y-77606381D01*
X166399625Y-77690280D01*
X166399626Y-77690280D01*
X166399627Y-77690281D01*
X166520678Y-77749078D01*
X166520684Y-77749080D01*
X166614458Y-77771157D01*
X166651679Y-77779920D01*
X166699595Y-77780328D01*
X166700009Y-77780500D01*
X166719437Y-77780500D01*
X166719552Y-77780500D01*
X166719748Y-77780503D01*
X166750728Y-77780821D01*
X166753269Y-77780500D01*
X168416646Y-77780500D01*
X168423364Y-77780502D01*
X168423611Y-77780643D01*
X168447843Y-77780513D01*
X168447888Y-77780532D01*
X168453486Y-77780836D01*
X168539662Y-77790693D01*
X168551225Y-77793439D01*
X168624167Y-77820266D01*
X168629794Y-77822336D01*
X168640393Y-77827743D01*
X168709900Y-77874379D01*
X168718921Y-77882136D01*
X168775444Y-77943876D01*
X168782378Y-77953547D01*
X168822710Y-78026894D01*
X168827162Y-78037927D01*
X168844583Y-78102315D01*
X168846037Y-78110077D01*
X169039011Y-79921283D01*
X169039013Y-79921362D01*
X169039496Y-79925881D01*
X169041848Y-79947908D01*
X169043735Y-79965611D01*
X169043739Y-79965619D01*
X169044215Y-79970076D01*
X169044216Y-79970078D01*
X169115464Y-80637094D01*
X169115466Y-80637211D01*
X169115928Y-80641517D01*
X169118097Y-80661742D01*
X169120179Y-80681226D01*
X169120188Y-80681243D01*
X169120720Y-80686198D01*
X169120721Y-80686200D01*
X169229103Y-81696446D01*
X169229105Y-81696529D01*
X169231867Y-81722213D01*
X169232155Y-81724895D01*
X169233839Y-81740584D01*
X169233843Y-81740592D01*
X169234370Y-81745489D01*
X169234371Y-81745491D01*
X169304380Y-82396326D01*
X169304382Y-82396440D01*
X169306925Y-82419983D01*
X169306927Y-82420003D01*
X169309659Y-82445395D01*
X169309683Y-82445511D01*
X169415968Y-83429273D01*
X169415967Y-83429273D01*
X169416418Y-83433453D01*
X169416417Y-83433462D01*
X169418041Y-83448463D01*
X169418198Y-83449908D01*
X169418379Y-83451581D01*
X169418379Y-83451593D01*
X169418381Y-83451593D01*
X169418381Y-83451595D01*
X169419903Y-83465682D01*
X169421190Y-83477587D01*
X169421201Y-83477641D01*
X169489666Y-84109756D01*
X169489941Y-84112296D01*
X169490145Y-84114176D01*
X169490140Y-84114196D01*
X169492310Y-84134156D01*
X169492312Y-84134178D01*
X169494952Y-84158557D01*
X169494972Y-84158658D01*
X169598055Y-85106881D01*
X169598855Y-85114239D01*
X169598852Y-85114250D01*
X169601197Y-85135782D01*
X169601198Y-85135794D01*
X169603652Y-85158372D01*
X169603661Y-85158420D01*
X169668650Y-85755173D01*
X169670475Y-85771930D01*
X169670473Y-85771939D01*
X169672433Y-85789906D01*
X169672432Y-85789907D01*
X169672433Y-85789907D01*
X169675281Y-85816063D01*
X169675290Y-85816105D01*
X169756852Y-86563840D01*
X169756855Y-86563855D01*
X169774566Y-86726198D01*
X169776252Y-86741648D01*
X169776252Y-86741649D01*
X169846345Y-87384207D01*
X169846345Y-87384221D01*
X169846347Y-87384221D01*
X169871576Y-87616088D01*
X169947199Y-88311082D01*
X169947200Y-88311101D01*
X169947201Y-88311101D01*
X170012676Y-88914864D01*
X170012668Y-88914889D01*
X170012681Y-88914916D01*
X170107696Y-89799808D01*
X170107701Y-89799855D01*
X170169593Y-90381473D01*
X170169605Y-90381587D01*
X170258678Y-91237189D01*
X170258682Y-91237280D01*
X170258688Y-91237280D01*
X170316398Y-91801528D01*
X170316417Y-91801721D01*
X170398996Y-92641260D01*
X170399009Y-92641399D01*
X170452433Y-93200619D01*
X170452458Y-93200890D01*
X170515723Y-93903441D01*
X170526952Y-94028138D01*
X170528522Y-94045567D01*
X170528538Y-94045746D01*
X170577619Y-94613739D01*
X170577646Y-94614060D01*
X170647300Y-95485391D01*
X170647315Y-95485589D01*
X170692165Y-96076165D01*
X170692189Y-96076493D01*
X170753415Y-96959681D01*
X170755744Y-96993279D01*
X170773516Y-97264720D01*
X170796625Y-97617659D01*
X170796644Y-97617958D01*
X170854512Y-98591176D01*
X170854521Y-98591341D01*
X170891765Y-99254693D01*
X170891771Y-99254939D01*
X170891779Y-99254939D01*
X170944559Y-100285334D01*
X170944565Y-100285462D01*
X170978577Y-100984595D01*
X170978585Y-100984773D01*
X171026874Y-102055935D01*
X171026875Y-102056022D01*
X171026878Y-102056022D01*
X171058088Y-102775735D01*
X171058092Y-102775839D01*
X171102601Y-103853953D01*
X171102601Y-103853994D01*
X171102603Y-103853994D01*
X171131377Y-104564974D01*
X171131378Y-104565003D01*
X171152934Y-105105429D01*
X171152934Y-105105439D01*
X171171852Y-105579803D01*
X171171932Y-105581809D01*
X171172442Y-105594581D01*
X171172442Y-105594584D01*
X171173697Y-105626053D01*
X171173700Y-105626073D01*
X171198662Y-106250836D01*
X171198647Y-106250879D01*
X171199462Y-106270862D01*
X171200443Y-106295396D01*
X171200471Y-106295604D01*
X171236743Y-107184213D01*
X171236743Y-107184214D01*
X171236939Y-107189030D01*
X171236923Y-107189077D01*
X171237718Y-107208138D01*
X171237741Y-107208694D01*
X171237778Y-107209569D01*
X171237777Y-107209570D01*
X171237778Y-107209608D01*
X171237779Y-107209609D01*
X171238754Y-107233473D01*
X171238785Y-107233699D01*
X171247017Y-107430844D01*
X171261683Y-107782050D01*
X171261643Y-107782163D01*
X171262505Y-107801763D01*
X171262511Y-107801894D01*
X171262523Y-107802161D01*
X171262522Y-107802162D01*
X171262526Y-107802269D01*
X171262527Y-107802270D01*
X171263534Y-107826384D01*
X171263614Y-107826950D01*
X171296439Y-108572432D01*
X171296438Y-108572432D01*
X171296654Y-108577342D01*
X171296625Y-108577425D01*
X171297516Y-108596887D01*
X171297518Y-108596922D01*
X171297540Y-108597402D01*
X171297544Y-108597490D01*
X171298615Y-108621833D01*
X171298677Y-108622259D01*
X171318778Y-109061343D01*
X171319006Y-109066310D01*
X171318949Y-109066471D01*
X171319913Y-109086114D01*
X171319911Y-109086117D01*
X171319913Y-109086117D01*
X171321026Y-109110420D01*
X171321145Y-109111235D01*
X171349373Y-109686411D01*
X171349616Y-109691366D01*
X171349582Y-109691463D01*
X171350609Y-109711591D01*
X171351794Y-109735719D01*
X171351865Y-109736201D01*
X171368387Y-110059739D01*
X171368637Y-110064643D01*
X171368604Y-110064740D01*
X171369624Y-110083992D01*
X171369645Y-110084389D01*
X171369646Y-110084392D01*
X171369651Y-110084487D01*
X171370905Y-110109023D01*
X171370979Y-110109515D01*
X171380917Y-110296774D01*
X171380917Y-110296777D01*
X171393969Y-110542997D01*
X171393969Y-110543032D01*
X171393971Y-110543032D01*
X171407958Y-110810297D01*
X171407979Y-110810735D01*
X171422485Y-111143934D01*
X171422507Y-111144517D01*
X171428977Y-111347571D01*
X171429002Y-111349102D01*
X171429358Y-111643256D01*
X171429348Y-111644334D01*
X171425240Y-111846324D01*
X171425178Y-111847996D01*
X171406245Y-112199507D01*
X171406193Y-112200331D01*
X171387865Y-112460530D01*
X171387772Y-112461667D01*
X171344053Y-112929726D01*
X171343994Y-112930327D01*
X171307874Y-113272386D01*
X171307757Y-113273393D01*
X171234337Y-113855392D01*
X171234251Y-113856040D01*
X171177289Y-114264473D01*
X171177096Y-114265738D01*
X171069660Y-114914321D01*
X171069503Y-114915219D01*
X170989006Y-115351636D01*
X170988628Y-115353489D01*
X170843383Y-116002350D01*
X170843058Y-116003710D01*
X170736879Y-116422711D01*
X170736083Y-116425509D01*
X170549935Y-117013976D01*
X170549252Y-117015985D01*
X170414842Y-117385556D01*
X170413994Y-117387729D01*
X170413817Y-117388153D01*
X170413072Y-117389848D01*
X170184605Y-117884747D01*
X170183371Y-117887236D01*
X170020984Y-118193098D01*
X170018490Y-118197289D01*
X169743431Y-118611998D01*
X169741773Y-118614348D01*
X169548734Y-118871909D01*
X169546027Y-118875216D01*
X169224936Y-119234965D01*
X169223475Y-119236533D01*
X168999707Y-119466594D01*
X168997755Y-119468495D01*
X168636099Y-119801885D01*
X168635199Y-119802694D01*
X168386958Y-120020661D01*
X168385803Y-120021645D01*
X167999625Y-120340502D01*
X167999039Y-120340978D01*
X167740147Y-120548252D01*
X167739204Y-120548989D01*
X167352356Y-120843786D01*
X167351741Y-120844247D01*
X167098745Y-121030967D01*
X167097531Y-121031835D01*
X166732152Y-121285009D01*
X166731278Y-121285601D01*
X166496924Y-121440766D01*
X166495244Y-121441831D01*
X166161639Y-121644095D01*
X166160567Y-121644727D01*
X166009151Y-121731451D01*
X165946314Y-121767442D01*
X165944808Y-121768271D01*
X165632015Y-121933289D01*
X165631433Y-121933591D01*
X165423532Y-122039814D01*
X165423372Y-122039896D01*
X165125730Y-122190621D01*
X165125729Y-122190620D01*
X165121166Y-122192930D01*
X165120797Y-122192962D01*
X165103626Y-122201813D01*
X165103341Y-122201958D01*
X165103275Y-122201993D01*
X165082547Y-122212491D01*
X165081048Y-122213453D01*
X164906013Y-122303689D01*
X164906014Y-122303690D01*
X164900991Y-122306279D01*
X164899855Y-122306400D01*
X164883304Y-122315397D01*
X164882810Y-122315653D01*
X164882775Y-122315672D01*
X164865077Y-122324796D01*
X164860769Y-122327650D01*
X164574602Y-122483242D01*
X164570544Y-122485216D01*
X164560904Y-122489379D01*
X164553694Y-122489335D01*
X164530671Y-122502437D01*
X164528143Y-122503530D01*
X164528032Y-122503531D01*
X164527349Y-122503865D01*
X164443207Y-122538500D01*
X164430989Y-122541798D01*
X164344011Y-122553763D01*
X164331356Y-122553887D01*
X164244162Y-122543630D01*
X164231880Y-122540572D01*
X164226552Y-122538500D01*
X164176926Y-122519200D01*
X164150059Y-122508751D01*
X164138939Y-122502708D01*
X164067723Y-122451358D01*
X164058477Y-122442716D01*
X164039221Y-122419494D01*
X164002440Y-122375136D01*
X163995660Y-122364451D01*
X163957173Y-122282377D01*
X163954621Y-122275741D01*
X163103393Y-119484501D01*
X163103775Y-119482514D01*
X163095582Y-119458889D01*
X163095308Y-119457989D01*
X163095308Y-119457988D01*
X163090299Y-119441565D01*
X163090298Y-119441564D01*
X163090298Y-119441562D01*
X163090296Y-119441560D01*
X163090272Y-119441514D01*
X163087081Y-119434235D01*
X163073047Y-119393692D01*
X163003017Y-119279311D01*
X163003015Y-119279309D01*
X163003012Y-119279304D01*
X162910147Y-119182564D01*
X162910141Y-119182559D01*
X162905206Y-119179253D01*
X162798717Y-119107911D01*
X162798718Y-119107911D01*
X162798716Y-119107910D01*
X162798714Y-119107909D01*
X162673902Y-119058825D01*
X162673903Y-119058825D01*
X162541482Y-119037575D01*
X162407581Y-119045143D01*
X162366511Y-119056623D01*
X162366509Y-119056624D01*
X162360913Y-119058187D01*
X162359585Y-119058062D01*
X162341726Y-119063550D01*
X162341113Y-119063720D01*
X162341111Y-119063720D01*
X162341090Y-119063727D01*
X162314660Y-119071099D01*
X162308937Y-119073626D01*
X156091969Y-120984255D01*
X156091922Y-120984269D01*
X156084660Y-120986492D01*
X156083098Y-120986184D01*
X156060116Y-120994009D01*
X156059369Y-120994238D01*
X156059138Y-120994215D01*
X156054267Y-120995512D01*
X155962752Y-121013298D01*
X155949193Y-121014054D01*
X155859712Y-121006837D01*
X155846450Y-121003917D01*
X155762214Y-120972890D01*
X155750227Y-120966510D01*
X155677438Y-120913954D01*
X155667612Y-120904585D01*
X155611654Y-120834385D01*
X155604713Y-120822722D01*
X155568286Y-120736696D01*
X155566070Y-120730274D01*
X155559931Y-120707592D01*
X155555702Y-120698071D01*
X155326732Y-119982537D01*
X155326289Y-119981075D01*
X155308006Y-119917204D01*
X155308004Y-119917200D01*
X155308004Y-119917199D01*
X155242480Y-119798401D01*
X155151994Y-119697314D01*
X155131146Y-119682599D01*
X155041151Y-119619081D01*
X155041147Y-119619079D01*
X154915598Y-119567687D01*
X154915597Y-119567686D01*
X154915595Y-119567686D01*
X154781712Y-119545741D01*
X154781709Y-119545741D01*
X154781708Y-119545741D01*
X154646317Y-119554365D01*
X154646313Y-119554366D01*
X154605041Y-119566629D01*
X154605042Y-119566630D01*
X154600035Y-119568117D01*
X154599516Y-119568069D01*
X154580919Y-119573798D01*
X154580644Y-119573879D01*
X154580643Y-119573879D01*
X154550697Y-119582807D01*
X154548616Y-119583748D01*
X144422666Y-122703259D01*
X144421720Y-122703540D01*
X144356180Y-122722323D01*
X144356171Y-122722327D01*
X144236322Y-122789515D01*
X144135026Y-122882359D01*
X144057672Y-122995921D01*
X144008366Y-123124174D01*
X143989725Y-123260311D01*
X143996315Y-123329567D01*
X144002740Y-123397098D01*
X144011633Y-123423345D01*
X144023932Y-123459641D01*
X144024485Y-123461377D01*
X144244253Y-124197123D01*
X144244269Y-124197177D01*
X144246370Y-124204240D01*
X144246101Y-124205513D01*
X144253603Y-124228556D01*
X144253788Y-124229176D01*
X144253767Y-124229373D01*
X144255039Y-124234385D01*
X144272241Y-124327887D01*
X144272890Y-124341121D01*
X144265211Y-124432500D01*
X144262363Y-124445439D01*
X144230950Y-124531603D01*
X144224802Y-124543340D01*
X144171865Y-124618222D01*
X144162851Y-124627932D01*
X144092103Y-124686283D01*
X144080854Y-124693285D01*
X143994406Y-124732294D01*
X143988195Y-124734614D01*
X143976520Y-124738111D01*
X143960291Y-124742972D01*
X143958621Y-124743728D01*
X139737030Y-126041917D01*
X139736651Y-126042032D01*
X139668380Y-126062434D01*
X139668380Y-126062435D01*
X139553612Y-126126356D01*
X139553611Y-126126357D01*
X139455464Y-126213666D01*
X139455459Y-126213671D01*
X139378614Y-126320199D01*
X139378609Y-126320208D01*
X139326721Y-126440886D01*
X139326717Y-126440898D01*
X139302270Y-126569954D01*
X139302269Y-126569965D01*
X139306424Y-126701258D01*
X139306425Y-126701264D01*
X139313788Y-126730169D01*
X139317783Y-126745854D01*
X139317724Y-126746292D01*
X139322707Y-126765193D01*
X139322741Y-126765327D01*
X139322752Y-126765368D01*
X139330630Y-126796149D01*
X139331313Y-126797836D01*
X140134320Y-129843383D01*
X140134324Y-129843400D01*
X140136020Y-129849843D01*
X140135955Y-129850093D01*
X140142257Y-129873531D01*
X140142315Y-129873749D01*
X140142309Y-129873788D01*
X140143362Y-129878754D01*
X140155718Y-129957758D01*
X140156229Y-129968482D01*
X140151597Y-130045602D01*
X140149807Y-130056186D01*
X140128822Y-130130535D01*
X140124813Y-130140494D01*
X140087002Y-130211345D01*
X140084556Y-130215445D01*
X140084349Y-130215756D01*
X140070772Y-130235697D01*
X140070727Y-130236289D01*
X140066919Y-130242030D01*
X140066661Y-130242203D01*
X140066239Y-130243029D01*
X138930498Y-131868314D01*
X138926761Y-131873030D01*
X138866534Y-131940285D01*
X138859286Y-131946929D01*
X138788448Y-132000057D01*
X138780040Y-132005154D01*
X138697945Y-132044460D01*
X138694258Y-132046047D01*
X138693794Y-132046224D01*
X138670408Y-132054711D01*
X138669806Y-132055424D01*
X138663163Y-132057973D01*
X138663156Y-132057972D01*
X138663135Y-132057984D01*
X129634750Y-135514395D01*
X129624501Y-135517115D01*
X129624144Y-135517170D01*
X129602889Y-135526528D01*
X129600903Y-135527352D01*
X129600647Y-135527451D01*
X129585398Y-135533290D01*
X129585205Y-135533471D01*
X129580526Y-135535296D01*
X129580471Y-135535294D01*
X129580271Y-135535395D01*
X129516950Y-135559682D01*
X129512340Y-135561198D01*
X129429461Y-135584060D01*
X129424725Y-135585122D01*
X129347917Y-135598469D01*
X129347541Y-135598533D01*
X129336566Y-135600354D01*
X129334545Y-135600647D01*
X129327788Y-135601486D01*
X129310894Y-135603584D01*
X129310893Y-135603584D01*
X129310237Y-135603666D01*
X129301132Y-135606232D01*
X122646916Y-136710296D01*
X122641767Y-136710878D01*
X122477553Y-136720863D01*
X122468045Y-136720534D01*
X122307052Y-136699514D01*
X122297779Y-136697391D01*
X122143679Y-136646260D01*
X122134976Y-136642418D01*
X121993348Y-136563024D01*
X121985530Y-136557605D01*
X121861502Y-136452825D01*
X121854852Y-136446022D01*
X121752915Y-136319649D01*
X121747674Y-136311710D01*
X121671515Y-136168313D01*
X121667878Y-136159540D01*
X121620251Y-136004299D01*
X121618342Y-135994997D01*
X121600787Y-135831746D01*
X121600500Y-135826400D01*
X121600500Y-131509555D01*
X132796008Y-131509555D01*
X132796008Y-131667672D01*
X132836931Y-131820399D01*
X132915985Y-131957327D01*
X132915991Y-131957334D01*
X133027787Y-132069130D01*
X133027794Y-132069136D01*
X133164722Y-132148190D01*
X133164724Y-132148191D01*
X133317451Y-132189114D01*
X133317455Y-132189114D01*
X133475561Y-132189114D01*
X133475565Y-132189114D01*
X133628292Y-132148191D01*
X133765224Y-132069134D01*
X133877028Y-131957330D01*
X133956085Y-131820398D01*
X133997008Y-131667671D01*
X133997008Y-131509557D01*
X133956085Y-131356830D01*
X133956084Y-131356828D01*
X133877030Y-131219900D01*
X133877024Y-131219893D01*
X133765228Y-131108097D01*
X133765221Y-131108091D01*
X133628293Y-131029037D01*
X133475566Y-130988114D01*
X133475565Y-130988114D01*
X133317451Y-130988114D01*
X133317449Y-130988114D01*
X133164722Y-131029037D01*
X133027794Y-131108091D01*
X133027787Y-131108097D01*
X132915991Y-131219893D01*
X132915985Y-131219900D01*
X132836931Y-131356828D01*
X132796008Y-131509555D01*
X121600500Y-131509555D01*
X121600500Y-129888792D01*
X136490120Y-129888792D01*
X136490120Y-130063123D01*
X136517388Y-130235291D01*
X136517389Y-130235296D01*
X136517390Y-130235298D01*
X136519634Y-130242203D01*
X136571258Y-130401090D01*
X136650402Y-130556417D01*
X136650404Y-130556420D01*
X136752861Y-130697440D01*
X136752864Y-130697443D01*
X136752866Y-130697446D01*
X136876132Y-130820712D01*
X136876134Y-130820713D01*
X136876137Y-130820716D01*
X137017157Y-130923173D01*
X137017163Y-130923177D01*
X137172487Y-131002319D01*
X137338280Y-131056188D01*
X137510454Y-131083457D01*
X137510455Y-131083458D01*
X137510458Y-131083458D01*
X137684785Y-131083458D01*
X137684785Y-131083457D01*
X137856960Y-131056188D01*
X138022753Y-131002319D01*
X138178077Y-130923177D01*
X138319108Y-130820712D01*
X138442374Y-130697446D01*
X138544839Y-130556415D01*
X138623981Y-130401091D01*
X138677850Y-130235298D01*
X138705120Y-130063120D01*
X138705120Y-129888796D01*
X138705120Y-129888792D01*
X138677851Y-129716624D01*
X138677850Y-129716623D01*
X138677850Y-129716618D01*
X138623981Y-129550825D01*
X138544839Y-129395501D01*
X138442374Y-129254470D01*
X138319108Y-129131204D01*
X138319105Y-129131202D01*
X138319102Y-129131199D01*
X138178082Y-129028742D01*
X138178079Y-129028740D01*
X138022752Y-128949596D01*
X137910828Y-128913230D01*
X137856960Y-128895728D01*
X137856958Y-128895727D01*
X137856953Y-128895726D01*
X137684786Y-128868458D01*
X137684782Y-128868458D01*
X137510458Y-128868458D01*
X137510454Y-128868458D01*
X137338286Y-128895726D01*
X137338280Y-128895728D01*
X137172487Y-128949596D01*
X137017160Y-129028740D01*
X137017157Y-129028742D01*
X136876137Y-129131199D01*
X136876128Y-129131207D01*
X136752869Y-129254466D01*
X136752861Y-129254475D01*
X136650404Y-129395495D01*
X136650402Y-129395498D01*
X136571258Y-129550825D01*
X136517390Y-129716618D01*
X136517388Y-129716624D01*
X136490120Y-129888792D01*
X121600500Y-129888792D01*
X121600500Y-126841653D01*
X131004168Y-126841653D01*
X131004168Y-126999770D01*
X131045091Y-127152497D01*
X131124145Y-127289425D01*
X131124151Y-127289432D01*
X131235947Y-127401228D01*
X131235954Y-127401234D01*
X131372882Y-127480288D01*
X131372884Y-127480289D01*
X131525611Y-127521212D01*
X131525615Y-127521212D01*
X131683721Y-127521212D01*
X131683725Y-127521212D01*
X131836452Y-127480289D01*
X131973384Y-127401232D01*
X132085188Y-127289428D01*
X132164245Y-127152496D01*
X132205168Y-126999769D01*
X132205168Y-126841655D01*
X132164245Y-126688928D01*
X132145782Y-126656948D01*
X132085190Y-126551998D01*
X132085184Y-126551991D01*
X131973388Y-126440195D01*
X131973381Y-126440189D01*
X131836453Y-126361135D01*
X131683726Y-126320212D01*
X131683725Y-126320212D01*
X131525611Y-126320212D01*
X131525609Y-126320212D01*
X131372882Y-126361135D01*
X131235954Y-126440189D01*
X131235947Y-126440195D01*
X131124151Y-126551991D01*
X131124145Y-126551998D01*
X131045091Y-126688926D01*
X131004168Y-126841653D01*
X121600500Y-126841653D01*
X121600500Y-124824444D01*
X121600809Y-124818892D01*
X121610311Y-124733858D01*
X121618793Y-124657948D01*
X121620684Y-124648835D01*
X121667719Y-124495702D01*
X121671273Y-124487090D01*
X121745910Y-124345360D01*
X121751003Y-124337553D01*
X121850658Y-124212134D01*
X121857111Y-124205411D01*
X121858486Y-124204223D01*
X121978306Y-124100678D01*
X121985891Y-124095271D01*
X122124438Y-124014848D01*
X122132886Y-124010947D01*
X122283957Y-123957639D01*
X122292982Y-123955375D01*
X122453601Y-123930687D01*
X122458401Y-123930187D01*
X128328998Y-123604829D01*
X128365108Y-123617494D01*
X128381686Y-123651985D01*
X128369021Y-123688097D01*
X128361153Y-123695202D01*
X128278519Y-123755240D01*
X128278507Y-123755250D01*
X128155248Y-123878509D01*
X128155240Y-123878518D01*
X128052783Y-124019538D01*
X128052781Y-124019541D01*
X127973637Y-124174868D01*
X127919769Y-124340661D01*
X127919767Y-124340667D01*
X127892499Y-124512835D01*
X127892499Y-124687166D01*
X127919767Y-124859334D01*
X127919769Y-124859340D01*
X127973637Y-125025133D01*
X128052781Y-125180460D01*
X128052783Y-125180463D01*
X128155240Y-125321483D01*
X128155243Y-125321486D01*
X128155245Y-125321489D01*
X128278511Y-125444755D01*
X128278513Y-125444756D01*
X128278516Y-125444759D01*
X128419536Y-125547216D01*
X128419542Y-125547220D01*
X128574866Y-125626362D01*
X128740659Y-125680231D01*
X128912833Y-125707500D01*
X128912834Y-125707501D01*
X128912837Y-125707501D01*
X129087164Y-125707501D01*
X129087164Y-125707500D01*
X129259339Y-125680231D01*
X129425132Y-125626362D01*
X129580456Y-125547220D01*
X129585685Y-125543421D01*
X133858058Y-125543421D01*
X133858058Y-125717752D01*
X133885326Y-125889920D01*
X133885328Y-125889926D01*
X133939196Y-126055719D01*
X134018340Y-126211046D01*
X134018342Y-126211049D01*
X134120799Y-126352069D01*
X134120802Y-126352072D01*
X134120804Y-126352075D01*
X134244070Y-126475341D01*
X134244072Y-126475342D01*
X134244075Y-126475345D01*
X134385095Y-126577802D01*
X134385101Y-126577806D01*
X134540425Y-126656948D01*
X134706218Y-126710817D01*
X134878392Y-126738086D01*
X134878393Y-126738087D01*
X134878396Y-126738087D01*
X135052723Y-126738087D01*
X135052723Y-126738086D01*
X135224898Y-126710817D01*
X135390691Y-126656948D01*
X135546015Y-126577806D01*
X135687046Y-126475341D01*
X135810312Y-126352075D01*
X135912777Y-126211044D01*
X135991919Y-126055720D01*
X136045788Y-125889927D01*
X136073058Y-125717749D01*
X136073058Y-125543425D01*
X136073058Y-125543421D01*
X136045789Y-125371253D01*
X136045788Y-125371252D01*
X136045788Y-125371247D01*
X135991919Y-125205454D01*
X135912777Y-125050130D01*
X135912773Y-125050124D01*
X135810316Y-124909104D01*
X135810308Y-124909095D01*
X135687049Y-124785836D01*
X135687040Y-124785828D01*
X135546020Y-124683371D01*
X135546017Y-124683369D01*
X135390690Y-124604225D01*
X135278766Y-124567859D01*
X135224898Y-124550357D01*
X135224896Y-124550356D01*
X135224891Y-124550355D01*
X135052724Y-124523087D01*
X135052720Y-124523087D01*
X134878396Y-124523087D01*
X134878392Y-124523087D01*
X134706224Y-124550355D01*
X134706218Y-124550357D01*
X134540425Y-124604225D01*
X134385098Y-124683369D01*
X134385095Y-124683371D01*
X134244075Y-124785828D01*
X134244066Y-124785836D01*
X134120807Y-124909095D01*
X134120799Y-124909104D01*
X134018342Y-125050124D01*
X134018340Y-125050127D01*
X133939196Y-125205454D01*
X133885328Y-125371247D01*
X133885326Y-125371253D01*
X133858058Y-125543421D01*
X129585685Y-125543421D01*
X129721487Y-125444755D01*
X129844753Y-125321489D01*
X129947218Y-125180458D01*
X130026360Y-125025134D01*
X130080229Y-124859341D01*
X130107499Y-124687163D01*
X130107499Y-124512839D01*
X130107499Y-124512835D01*
X130080230Y-124340667D01*
X130080229Y-124340666D01*
X130080229Y-124340661D01*
X130026360Y-124174868D01*
X129947218Y-124019544D01*
X129902244Y-123957642D01*
X129844757Y-123878518D01*
X129844749Y-123878509D01*
X129721490Y-123755250D01*
X129721481Y-123755242D01*
X129580461Y-123652785D01*
X129580458Y-123652783D01*
X129577981Y-123651520D01*
X129538076Y-123631188D01*
X129513224Y-123602090D01*
X129516227Y-123563939D01*
X129545326Y-123539086D01*
X129558007Y-123536716D01*
X130756729Y-123470281D01*
X130757151Y-123470259D01*
X130918303Y-123462939D01*
X131176959Y-123423345D01*
X131242345Y-123413336D01*
X131242345Y-123413335D01*
X131242351Y-123413335D01*
X131559291Y-123329566D01*
X131865530Y-123212581D01*
X132157600Y-123063706D01*
X132432189Y-122884628D01*
X132686186Y-122677377D01*
X132916714Y-122444300D01*
X133103513Y-122210159D01*
X133121157Y-122188043D01*
X133121158Y-122188041D01*
X133121160Y-122188039D01*
X133277900Y-121941827D01*
X133297197Y-121911515D01*
X133297199Y-121911510D01*
X133297208Y-121911497D01*
X133369957Y-121764810D01*
X133414721Y-121675347D01*
X134651265Y-119204079D01*
X145102685Y-119204079D01*
X145102685Y-119366872D01*
X145134442Y-119526525D01*
X145134442Y-119526528D01*
X145196737Y-119676921D01*
X145196738Y-119676923D01*
X145210362Y-119697313D01*
X145280775Y-119802694D01*
X145287178Y-119812276D01*
X145402285Y-119927383D01*
X145537638Y-120017823D01*
X145688033Y-120080118D01*
X145847692Y-120111876D01*
X145847698Y-120111876D01*
X146010472Y-120111876D01*
X146010478Y-120111876D01*
X146170137Y-120080118D01*
X146320532Y-120017823D01*
X146455885Y-119927383D01*
X146570992Y-119812276D01*
X146661432Y-119676923D01*
X146723727Y-119526528D01*
X146755485Y-119366869D01*
X146755485Y-119204083D01*
X146723727Y-119044424D01*
X146723252Y-119043278D01*
X146661432Y-118894030D01*
X146661432Y-118894029D01*
X146570992Y-118758676D01*
X146503414Y-118691098D01*
X164297400Y-118691098D01*
X164297400Y-118868901D01*
X164332086Y-119043276D01*
X164332086Y-119043278D01*
X164400125Y-119207537D01*
X164400127Y-119207541D01*
X164498905Y-119355374D01*
X164624626Y-119481095D01*
X164772459Y-119579873D01*
X164936721Y-119647913D01*
X165111102Y-119682600D01*
X165111108Y-119682600D01*
X165288892Y-119682600D01*
X165288898Y-119682600D01*
X165463279Y-119647913D01*
X165627541Y-119579873D01*
X165775374Y-119481095D01*
X165901095Y-119355374D01*
X165999873Y-119207541D01*
X166067913Y-119043279D01*
X166102600Y-118868898D01*
X166102600Y-118691102D01*
X166102599Y-118691098D01*
X166897400Y-118691098D01*
X166897400Y-118868901D01*
X166932086Y-119043276D01*
X166932086Y-119043278D01*
X167000125Y-119207537D01*
X167000127Y-119207541D01*
X167098905Y-119355374D01*
X167224626Y-119481095D01*
X167372459Y-119579873D01*
X167536721Y-119647913D01*
X167711102Y-119682600D01*
X167711108Y-119682600D01*
X167888892Y-119682600D01*
X167888898Y-119682600D01*
X168063279Y-119647913D01*
X168227541Y-119579873D01*
X168375374Y-119481095D01*
X168501095Y-119355374D01*
X168599873Y-119207541D01*
X168667913Y-119043279D01*
X168702600Y-118868898D01*
X168702600Y-118691102D01*
X168667913Y-118516721D01*
X168599873Y-118352459D01*
X168501095Y-118204626D01*
X168375374Y-118078905D01*
X168227541Y-117980127D01*
X168227539Y-117980126D01*
X168227537Y-117980125D01*
X168063277Y-117912086D01*
X167888901Y-117877400D01*
X167888898Y-117877400D01*
X167711102Y-117877400D01*
X167711098Y-117877400D01*
X167536723Y-117912086D01*
X167536721Y-117912086D01*
X167372462Y-117980125D01*
X167372460Y-117980126D01*
X167224626Y-118078904D01*
X167098904Y-118204626D01*
X167000126Y-118352460D01*
X167000125Y-118352462D01*
X166932086Y-118516721D01*
X166932086Y-118516723D01*
X166897400Y-118691098D01*
X166102599Y-118691098D01*
X166067913Y-118516721D01*
X165999873Y-118352459D01*
X165901095Y-118204626D01*
X165775374Y-118078905D01*
X165627541Y-117980127D01*
X165627539Y-117980126D01*
X165627537Y-117980125D01*
X165463277Y-117912086D01*
X165288901Y-117877400D01*
X165288898Y-117877400D01*
X165111102Y-117877400D01*
X165111098Y-117877400D01*
X164936723Y-117912086D01*
X164936721Y-117912086D01*
X164772462Y-117980125D01*
X164772460Y-117980126D01*
X164624626Y-118078904D01*
X164498904Y-118204626D01*
X164400126Y-118352460D01*
X164400125Y-118352462D01*
X164332086Y-118516721D01*
X164332086Y-118516723D01*
X164297400Y-118691098D01*
X146503414Y-118691098D01*
X146455885Y-118643569D01*
X146320532Y-118553129D01*
X146320530Y-118553128D01*
X146320531Y-118553128D01*
X146170136Y-118490833D01*
X146010481Y-118459076D01*
X146010478Y-118459076D01*
X145847692Y-118459076D01*
X145847688Y-118459076D01*
X145688035Y-118490833D01*
X145688032Y-118490833D01*
X145537639Y-118553128D01*
X145402285Y-118643568D01*
X145287177Y-118758676D01*
X145196737Y-118894030D01*
X145134442Y-119044423D01*
X145134442Y-119044426D01*
X145102685Y-119204079D01*
X134651265Y-119204079D01*
X134663687Y-119179253D01*
X135859240Y-116789905D01*
X149322500Y-116789905D01*
X149322500Y-116789906D01*
X149322500Y-116789908D01*
X149322500Y-117910091D01*
X149322501Y-117910094D01*
X149328447Y-117939993D01*
X149351102Y-117973898D01*
X149385007Y-117996553D01*
X149414905Y-118002500D01*
X149635094Y-118002499D01*
X149664993Y-117996553D01*
X149698898Y-117973898D01*
X149721553Y-117939993D01*
X149727500Y-117910095D01*
X149727499Y-117852499D01*
X149727500Y-117852498D01*
X149737179Y-117829129D01*
X149742143Y-117817144D01*
X149777498Y-117802499D01*
X149813097Y-117802499D01*
X149848452Y-117817144D01*
X149862136Y-117842745D01*
X149889724Y-117981440D01*
X149889724Y-117981443D01*
X149952019Y-118131836D01*
X149952020Y-118131838D01*
X150042460Y-118267191D01*
X150157567Y-118382298D01*
X150292920Y-118472738D01*
X150443315Y-118535033D01*
X150602974Y-118566791D01*
X150602980Y-118566791D01*
X150765754Y-118566791D01*
X150765760Y-118566791D01*
X150925419Y-118535033D01*
X151075814Y-118472738D01*
X151211167Y-118382298D01*
X151326274Y-118267191D01*
X151416714Y-118131838D01*
X151479009Y-117981443D01*
X151510767Y-117821784D01*
X151510767Y-117658998D01*
X151479009Y-117499339D01*
X151474390Y-117488188D01*
X151433657Y-117389848D01*
X151416714Y-117348944D01*
X151326274Y-117213591D01*
X151211167Y-117098484D01*
X151211041Y-117098400D01*
X151107211Y-117029023D01*
X151075814Y-117008044D01*
X151075812Y-117008043D01*
X151075813Y-117008043D01*
X151032024Y-116989905D01*
X153772500Y-116989905D01*
X153772500Y-116989906D01*
X153772500Y-116989908D01*
X153772500Y-117710091D01*
X153772501Y-117710094D01*
X153778447Y-117739993D01*
X153801102Y-117773898D01*
X153835007Y-117796553D01*
X153864905Y-117802500D01*
X154222500Y-117802499D01*
X154257855Y-117817144D01*
X154272500Y-117852498D01*
X154272500Y-117910091D01*
X154272501Y-117910094D01*
X154278447Y-117939993D01*
X154301102Y-117973898D01*
X154335007Y-117996553D01*
X154364905Y-118002500D01*
X154585094Y-118002499D01*
X154614993Y-117996553D01*
X154648898Y-117973898D01*
X154671553Y-117939993D01*
X154677500Y-117910095D01*
X154677499Y-116789906D01*
X154671553Y-116760007D01*
X154648898Y-116726102D01*
X154614993Y-116703447D01*
X154585095Y-116697500D01*
X154585090Y-116697500D01*
X154364908Y-116697500D01*
X154364904Y-116697501D01*
X154335006Y-116703447D01*
X154312351Y-116718585D01*
X154301102Y-116726102D01*
X154278447Y-116760007D01*
X154272500Y-116789905D01*
X154272500Y-116789906D01*
X154272500Y-116789908D01*
X154272500Y-116847500D01*
X154257855Y-116882855D01*
X154222500Y-116897500D01*
X153864908Y-116897500D01*
X153864904Y-116897501D01*
X153835006Y-116903447D01*
X153819227Y-116913991D01*
X153801102Y-116926102D01*
X153778447Y-116960007D01*
X153772500Y-116989905D01*
X151032024Y-116989905D01*
X150925418Y-116945748D01*
X150765763Y-116913991D01*
X150765760Y-116913991D01*
X150602974Y-116913991D01*
X150602970Y-116913991D01*
X150443317Y-116945748D01*
X150443314Y-116945748D01*
X150292100Y-117008383D01*
X150253832Y-117008383D01*
X150226772Y-116981323D01*
X150223926Y-116971941D01*
X150221553Y-116960007D01*
X150198898Y-116926102D01*
X150164993Y-116903447D01*
X150135095Y-116897500D01*
X150135090Y-116897500D01*
X149777499Y-116897500D01*
X149742144Y-116882855D01*
X149727499Y-116847500D01*
X149727499Y-116789908D01*
X149727499Y-116789906D01*
X149721553Y-116760007D01*
X149698898Y-116726102D01*
X149664993Y-116703447D01*
X149635095Y-116697500D01*
X149635090Y-116697500D01*
X149414908Y-116697500D01*
X149414904Y-116697501D01*
X149385006Y-116703447D01*
X149362351Y-116718585D01*
X149351102Y-116726102D01*
X149328447Y-116760007D01*
X149322500Y-116789905D01*
X135859240Y-116789905D01*
X135871664Y-116765075D01*
X136298967Y-115911098D01*
X166897400Y-115911098D01*
X166897400Y-116088901D01*
X166932086Y-116263276D01*
X166932086Y-116263278D01*
X166998126Y-116422711D01*
X167000127Y-116427541D01*
X167098905Y-116575374D01*
X167224626Y-116701095D01*
X167372459Y-116799873D01*
X167536721Y-116867913D01*
X167711102Y-116902600D01*
X167711108Y-116902600D01*
X167888892Y-116902600D01*
X167888898Y-116902600D01*
X168063279Y-116867913D01*
X168227541Y-116799873D01*
X168375374Y-116701095D01*
X168501095Y-116575374D01*
X168599873Y-116427541D01*
X168667913Y-116263279D01*
X168702600Y-116088898D01*
X168702600Y-115911102D01*
X168667913Y-115736721D01*
X168599873Y-115572459D01*
X168501095Y-115424626D01*
X168375374Y-115298905D01*
X168227541Y-115200127D01*
X168227539Y-115200126D01*
X168227537Y-115200125D01*
X168063277Y-115132086D01*
X167888901Y-115097400D01*
X167888898Y-115097400D01*
X167711102Y-115097400D01*
X167711098Y-115097400D01*
X167536723Y-115132086D01*
X167536721Y-115132086D01*
X167372462Y-115200125D01*
X167372460Y-115200126D01*
X167224626Y-115298904D01*
X167098904Y-115424626D01*
X167000126Y-115572460D01*
X167000125Y-115572462D01*
X166932086Y-115736721D01*
X166932086Y-115736723D01*
X166897400Y-115911098D01*
X136298967Y-115911098D01*
X136311389Y-115886272D01*
X137324104Y-113862331D01*
X138573736Y-111364905D01*
X146497500Y-111364905D01*
X146497500Y-111364906D01*
X146497500Y-111364908D01*
X146497500Y-111585091D01*
X146497501Y-111585094D01*
X146503447Y-111614993D01*
X146526102Y-111648898D01*
X146560007Y-111671553D01*
X146589905Y-111677500D01*
X147710094Y-111677499D01*
X147739993Y-111671553D01*
X147773898Y-111648898D01*
X147796553Y-111614993D01*
X147802500Y-111585095D01*
X147802499Y-111364906D01*
X147802499Y-111364905D01*
X159497500Y-111364905D01*
X159497500Y-111364906D01*
X159497500Y-111364908D01*
X159497500Y-111585091D01*
X159497501Y-111585094D01*
X159503447Y-111614993D01*
X159526102Y-111648898D01*
X159560007Y-111671553D01*
X159589905Y-111677500D01*
X160710094Y-111677499D01*
X160739993Y-111671553D01*
X160773898Y-111648898D01*
X160796553Y-111614993D01*
X160802500Y-111585095D01*
X160802499Y-111364906D01*
X160796553Y-111335007D01*
X160773898Y-111301102D01*
X160739993Y-111278447D01*
X160710095Y-111272500D01*
X160710090Y-111272500D01*
X160652499Y-111272500D01*
X160617144Y-111257855D01*
X160602499Y-111222500D01*
X160602499Y-110864908D01*
X160602499Y-110864906D01*
X160596553Y-110835007D01*
X160573898Y-110801102D01*
X160539993Y-110778447D01*
X160510095Y-110772500D01*
X160510090Y-110772500D01*
X159789908Y-110772500D01*
X159789904Y-110772501D01*
X159760006Y-110778447D01*
X159737351Y-110793585D01*
X159726102Y-110801102D01*
X159703447Y-110835007D01*
X159697500Y-110864905D01*
X159697500Y-110864906D01*
X159697500Y-110864908D01*
X159697500Y-111222500D01*
X159682855Y-111257855D01*
X159647501Y-111272500D01*
X159589908Y-111272500D01*
X159589904Y-111272501D01*
X159560006Y-111278447D01*
X159537351Y-111293585D01*
X159526104Y-111301101D01*
X159526101Y-111301103D01*
X159503448Y-111335006D01*
X159503447Y-111335007D01*
X159497500Y-111364905D01*
X147802499Y-111364905D01*
X147796553Y-111335007D01*
X147773898Y-111301102D01*
X147739993Y-111278447D01*
X147710095Y-111272500D01*
X147710090Y-111272500D01*
X147652499Y-111272500D01*
X147617144Y-111257855D01*
X147602499Y-111222500D01*
X147602499Y-110864908D01*
X147602499Y-110864906D01*
X147596553Y-110835007D01*
X147573898Y-110801102D01*
X147539993Y-110778447D01*
X147510095Y-110772500D01*
X147510090Y-110772500D01*
X146789908Y-110772500D01*
X146789904Y-110772501D01*
X146760006Y-110778447D01*
X146737351Y-110793585D01*
X146726102Y-110801102D01*
X146703447Y-110835007D01*
X146697500Y-110864905D01*
X146697500Y-110864906D01*
X146697500Y-110864908D01*
X146697500Y-111222500D01*
X146682855Y-111257855D01*
X146647501Y-111272500D01*
X146589908Y-111272500D01*
X146589904Y-111272501D01*
X146560006Y-111278447D01*
X146537351Y-111293585D01*
X146526104Y-111301101D01*
X146526101Y-111301103D01*
X146503448Y-111335006D01*
X146503447Y-111335007D01*
X146497500Y-111364905D01*
X138573736Y-111364905D01*
X139551358Y-109411099D01*
X166897400Y-109411099D01*
X166897400Y-109588902D01*
X166932086Y-109763277D01*
X166932086Y-109763279D01*
X167000125Y-109927538D01*
X167000126Y-109927540D01*
X167091733Y-110064642D01*
X167098905Y-110075375D01*
X167224626Y-110201096D01*
X167372459Y-110299874D01*
X167536721Y-110367914D01*
X167711102Y-110402601D01*
X167711108Y-110402601D01*
X167888892Y-110402601D01*
X167888898Y-110402601D01*
X168063279Y-110367914D01*
X168227541Y-110299874D01*
X168375374Y-110201096D01*
X168501095Y-110075375D01*
X168599873Y-109927542D01*
X168667913Y-109763280D01*
X168702600Y-109588899D01*
X168702600Y-109411103D01*
X168667913Y-109236722D01*
X168599873Y-109072460D01*
X168501095Y-108924627D01*
X168375374Y-108798906D01*
X168227541Y-108700128D01*
X168227539Y-108700127D01*
X168227537Y-108700126D01*
X168063277Y-108632087D01*
X167888901Y-108597401D01*
X167888898Y-108597401D01*
X167711102Y-108597401D01*
X167711098Y-108597401D01*
X167536723Y-108632087D01*
X167536721Y-108632087D01*
X167372462Y-108700126D01*
X167372460Y-108700127D01*
X167224626Y-108798905D01*
X167098904Y-108924627D01*
X167000126Y-109072461D01*
X167000125Y-109072463D01*
X166932086Y-109236722D01*
X166932086Y-109236724D01*
X166897400Y-109411099D01*
X139551358Y-109411099D01*
X140158187Y-108198332D01*
X140158855Y-108197877D01*
X140170233Y-108174256D01*
X140178822Y-108157093D01*
X140178822Y-108157091D01*
X140179976Y-108154786D01*
X140181205Y-108151499D01*
X140239556Y-108030347D01*
X140356255Y-107734477D01*
X140450992Y-107430863D01*
X140523261Y-107121130D01*
X140572674Y-106806940D01*
X140598966Y-106489976D01*
X140599687Y-106414905D01*
X146497500Y-106414905D01*
X146497500Y-106414906D01*
X146497500Y-106414908D01*
X146497500Y-106635091D01*
X146497501Y-106635094D01*
X146503447Y-106664993D01*
X146526102Y-106698898D01*
X146560007Y-106721553D01*
X146560009Y-106721553D01*
X146560010Y-106721554D01*
X146579847Y-106725499D01*
X146589905Y-106727500D01*
X146647500Y-106727499D01*
X146682855Y-106742143D01*
X146697500Y-106777498D01*
X146697500Y-107135091D01*
X146697501Y-107135094D01*
X146703447Y-107164993D01*
X146726102Y-107198898D01*
X146760007Y-107221553D01*
X146789905Y-107227500D01*
X147510094Y-107227499D01*
X147539993Y-107221553D01*
X147573898Y-107198898D01*
X147596553Y-107164993D01*
X147602500Y-107135095D01*
X147602499Y-106777498D01*
X147617144Y-106742144D01*
X147652499Y-106727499D01*
X147710092Y-106727499D01*
X147710094Y-106727499D01*
X147739993Y-106721553D01*
X147773898Y-106698898D01*
X147796553Y-106664993D01*
X147802500Y-106635095D01*
X147802499Y-106414906D01*
X147802499Y-106414905D01*
X159497500Y-106414905D01*
X159497500Y-106414906D01*
X159497500Y-106414908D01*
X159497500Y-106635091D01*
X159497501Y-106635094D01*
X159503447Y-106664993D01*
X159526102Y-106698898D01*
X159560007Y-106721553D01*
X159560009Y-106721553D01*
X159560010Y-106721554D01*
X159579847Y-106725499D01*
X159589905Y-106727500D01*
X159647500Y-106727499D01*
X159682855Y-106742143D01*
X159697500Y-106777498D01*
X159697500Y-107135091D01*
X159697501Y-107135094D01*
X159703447Y-107164993D01*
X159726102Y-107198898D01*
X159760007Y-107221553D01*
X159789905Y-107227500D01*
X160510094Y-107227499D01*
X160539993Y-107221553D01*
X160573898Y-107198898D01*
X160596553Y-107164993D01*
X160602500Y-107135095D01*
X160602499Y-106777498D01*
X160617144Y-106742144D01*
X160652499Y-106727499D01*
X160710092Y-106727499D01*
X160710094Y-106727499D01*
X160739993Y-106721553D01*
X160773898Y-106698898D01*
X160796553Y-106664993D01*
X160802500Y-106635095D01*
X160802499Y-106414906D01*
X160796553Y-106385007D01*
X160773898Y-106351102D01*
X160739993Y-106328447D01*
X160710095Y-106322500D01*
X160710090Y-106322500D01*
X159589908Y-106322500D01*
X159589904Y-106322501D01*
X159560006Y-106328447D01*
X159537351Y-106343585D01*
X159526102Y-106351102D01*
X159503447Y-106385007D01*
X159497500Y-106414905D01*
X147802499Y-106414905D01*
X147796553Y-106385007D01*
X147773898Y-106351102D01*
X147739993Y-106328447D01*
X147710095Y-106322500D01*
X147710090Y-106322500D01*
X146589908Y-106322500D01*
X146589904Y-106322501D01*
X146560006Y-106328447D01*
X146537351Y-106343585D01*
X146526102Y-106351102D01*
X146503447Y-106385007D01*
X146497500Y-106414905D01*
X140599687Y-106414905D01*
X140600256Y-106355672D01*
X140600500Y-106353336D01*
X140600500Y-106330699D01*
X140600502Y-106330223D01*
X140600519Y-106328447D01*
X140600752Y-106304030D01*
X140600750Y-106304028D01*
X140600798Y-106299080D01*
X140600500Y-106296721D01*
X140600500Y-103789905D01*
X149322500Y-103789905D01*
X149322500Y-103789906D01*
X149322500Y-103789908D01*
X149322500Y-104910091D01*
X149322501Y-104910094D01*
X149328447Y-104939993D01*
X149351102Y-104973898D01*
X149385007Y-104996553D01*
X149414905Y-105002500D01*
X149635094Y-105002499D01*
X149664993Y-104996553D01*
X149698898Y-104973898D01*
X149721553Y-104939993D01*
X149727500Y-104910095D01*
X149727499Y-104852498D01*
X149742143Y-104817144D01*
X149777498Y-104802499D01*
X150135092Y-104802499D01*
X150135094Y-104802499D01*
X150164993Y-104796553D01*
X150198898Y-104773898D01*
X150221553Y-104739993D01*
X150227500Y-104710095D01*
X150227499Y-103989906D01*
X150227499Y-103989905D01*
X153772500Y-103989905D01*
X153772500Y-103989906D01*
X153772500Y-103989908D01*
X153772500Y-104710091D01*
X153772501Y-104710094D01*
X153778447Y-104739993D01*
X153801102Y-104773898D01*
X153835007Y-104796553D01*
X153864905Y-104802500D01*
X154222500Y-104802499D01*
X154257855Y-104817144D01*
X154272500Y-104852498D01*
X154272500Y-104910091D01*
X154272501Y-104910094D01*
X154278447Y-104939993D01*
X154301102Y-104973898D01*
X154335007Y-104996553D01*
X154364905Y-105002500D01*
X154585094Y-105002499D01*
X154614993Y-104996553D01*
X154648898Y-104973898D01*
X154671553Y-104939993D01*
X154677500Y-104910095D01*
X154677499Y-103789906D01*
X154671553Y-103760007D01*
X154648898Y-103726102D01*
X154614993Y-103703447D01*
X154585095Y-103697500D01*
X154585090Y-103697500D01*
X154364908Y-103697500D01*
X154364904Y-103697501D01*
X154335006Y-103703447D01*
X154312351Y-103718585D01*
X154301102Y-103726102D01*
X154278447Y-103760007D01*
X154272500Y-103789905D01*
X154272500Y-103789906D01*
X154272500Y-103789908D01*
X154272500Y-103847500D01*
X154257855Y-103882855D01*
X154222500Y-103897500D01*
X153864908Y-103897500D01*
X153864904Y-103897501D01*
X153835006Y-103903447D01*
X153812351Y-103918585D01*
X153801102Y-103926102D01*
X153778447Y-103960007D01*
X153772500Y-103989905D01*
X150227499Y-103989905D01*
X150221553Y-103960007D01*
X150198898Y-103926102D01*
X150164993Y-103903447D01*
X150135095Y-103897500D01*
X150135090Y-103897500D01*
X149777499Y-103897500D01*
X149742144Y-103882855D01*
X149727499Y-103847500D01*
X149727499Y-103789908D01*
X149727499Y-103789906D01*
X149721553Y-103760007D01*
X149698898Y-103726102D01*
X149664993Y-103703447D01*
X149635095Y-103697500D01*
X149635090Y-103697500D01*
X149414908Y-103697500D01*
X149414904Y-103697501D01*
X149385006Y-103703447D01*
X149362351Y-103718585D01*
X149351102Y-103726102D01*
X149328447Y-103760007D01*
X149322500Y-103789905D01*
X140600500Y-103789905D01*
X140600500Y-87960006D01*
X165229500Y-87960006D01*
X165229500Y-92299993D01*
X165244798Y-92336926D01*
X165244802Y-92336932D01*
X165273067Y-92365197D01*
X165273073Y-92365201D01*
X165310006Y-92380499D01*
X165310007Y-92380499D01*
X165310009Y-92380500D01*
X165310010Y-92380500D01*
X169769990Y-92380500D01*
X169769991Y-92380500D01*
X169806929Y-92365200D01*
X169835200Y-92336929D01*
X169850500Y-92299991D01*
X169850500Y-91006847D01*
X169850540Y-91006778D01*
X169850500Y-90979849D01*
X169850500Y-90960009D01*
X169850500Y-90955358D01*
X169850465Y-90955004D01*
X169850272Y-90817433D01*
X169815899Y-90494425D01*
X169748013Y-90176765D01*
X169647357Y-89867921D01*
X169515028Y-89571264D01*
X169352472Y-89290032D01*
X169161461Y-89027294D01*
X168944082Y-88785918D01*
X168702706Y-88568539D01*
X168702703Y-88568536D01*
X168702701Y-88568535D01*
X168702699Y-88568534D01*
X168644567Y-88526272D01*
X168439968Y-88377528D01*
X168158736Y-88214972D01*
X167862079Y-88082643D01*
X167553235Y-87981987D01*
X167553232Y-87981986D01*
X167235577Y-87914101D01*
X167235566Y-87914099D01*
X166912573Y-87879728D01*
X166774897Y-87879533D01*
X166774897Y-87879532D01*
X166770054Y-87879525D01*
X166769991Y-87879500D01*
X166750158Y-87879500D01*
X166750151Y-87879500D01*
X166750076Y-87879499D01*
X166716943Y-87879450D01*
X166716562Y-87879500D01*
X165310006Y-87879500D01*
X165273073Y-87894798D01*
X165273067Y-87894802D01*
X165244802Y-87923067D01*
X165244798Y-87923073D01*
X165229500Y-87960006D01*
X140600500Y-87960006D01*
X140600500Y-82344033D01*
X156792151Y-82344033D01*
X156792151Y-87255969D01*
X156797410Y-87289178D01*
X156797412Y-87289184D01*
X156832462Y-87337425D01*
X156836464Y-87342933D01*
X156899651Y-87363464D01*
X156899652Y-87363464D01*
X161900352Y-87363464D01*
X161900353Y-87363463D01*
X161916958Y-87360833D01*
X161933563Y-87358204D01*
X161933564Y-87358203D01*
X161933568Y-87358203D01*
X161987318Y-87319151D01*
X162007849Y-87255964D01*
X162007849Y-83069209D01*
X162194064Y-83069209D01*
X162195727Y-83111649D01*
X162198683Y-83132816D01*
X162198688Y-83132841D01*
X162205147Y-83159412D01*
X162205150Y-83159423D01*
X162210441Y-83175527D01*
X162210444Y-83175535D01*
X162223737Y-83207301D01*
X162236232Y-83229395D01*
X162253625Y-83253099D01*
X162274754Y-83274712D01*
X162274762Y-83274719D01*
X162298515Y-83292991D01*
X162298527Y-83292998D01*
X162298530Y-83293001D01*
X162314198Y-83303024D01*
X162314206Y-83303028D01*
X162314209Y-83303030D01*
X162316153Y-83304048D01*
X162330854Y-83311747D01*
X162350428Y-83319657D01*
X162382058Y-83328949D01*
X162382061Y-83328949D01*
X162382063Y-83328950D01*
X162407015Y-83333175D01*
X162409998Y-83333323D01*
X162444031Y-83335016D01*
X162462663Y-83334324D01*
X162503087Y-83329287D01*
X162503088Y-83329287D01*
X162503089Y-83329286D01*
X162503103Y-83329285D01*
X162517912Y-83326372D01*
X162559825Y-83315021D01*
X162572719Y-83310635D01*
X162614149Y-83293544D01*
X162626452Y-83287525D01*
X162665445Y-83265264D01*
X162678068Y-83256823D01*
X162712669Y-83229962D01*
X162721218Y-83222573D01*
X162730374Y-83213778D01*
X162731008Y-83213164D01*
X162743511Y-83200953D01*
X162765803Y-83188350D01*
X162766839Y-83188079D01*
X162768316Y-83187694D01*
X162771920Y-83186893D01*
X162792726Y-83183076D01*
X162795942Y-83182595D01*
X162818821Y-83179937D01*
X162821705Y-83179688D01*
X162826449Y-83179417D01*
X162831567Y-83179390D01*
X162875328Y-83181411D01*
X162883438Y-83182457D01*
X162918714Y-83189981D01*
X162926819Y-83192444D01*
X162958988Y-83205290D01*
X162966534Y-83209070D01*
X162996950Y-83227677D01*
X163003476Y-83232435D01*
X163018096Y-83245025D01*
X163032918Y-83257790D01*
X163038218Y-83263097D01*
X163066729Y-83296298D01*
X163070796Y-83301745D01*
X163097836Y-83343628D01*
X163100822Y-83348938D01*
X163125538Y-83399925D01*
X163127635Y-83404923D01*
X163135055Y-83425706D01*
X163149270Y-83465525D01*
X163150600Y-83469865D01*
X163166678Y-83532428D01*
X163167249Y-83534913D01*
X163174029Y-83568272D01*
X163174367Y-83570111D01*
X163178839Y-83597284D01*
X163179207Y-83599970D01*
X163181823Y-83623897D01*
X163182046Y-83626632D01*
X163183519Y-83653883D01*
X163183586Y-83655827D01*
X163184140Y-83692488D01*
X163184146Y-83693179D01*
X163184153Y-83698624D01*
X163184151Y-83699138D01*
X163183812Y-83736797D01*
X163183774Y-83738357D01*
X163182672Y-83765753D01*
X163182510Y-83768228D01*
X163180532Y-83790189D01*
X163180204Y-83792966D01*
X163176873Y-83815657D01*
X163176506Y-83817825D01*
X163170851Y-83847272D01*
X163170656Y-83848235D01*
X163167731Y-83862000D01*
X163167380Y-83863533D01*
X163155938Y-83910118D01*
X163155236Y-83912679D01*
X163140929Y-83959938D01*
X163140153Y-83962290D01*
X163122028Y-84012966D01*
X163121236Y-84015035D01*
X163098801Y-84069955D01*
X163098036Y-84071730D01*
X163070776Y-84131728D01*
X163070080Y-84133193D01*
X163061226Y-84151097D01*
X163037616Y-84198835D01*
X163036994Y-84200052D01*
X162998904Y-84272042D01*
X162998389Y-84272991D01*
X162954306Y-84351966D01*
X162953862Y-84352744D01*
X162909454Y-84429017D01*
X162903603Y-84439066D01*
X162903233Y-84439691D01*
X162845958Y-84534858D01*
X162845788Y-84535137D01*
X162840396Y-84543965D01*
X162840186Y-84544309D01*
X162840187Y-84544310D01*
X162777299Y-84648379D01*
X162776878Y-84649087D01*
X162776583Y-84649583D01*
X162776536Y-84649662D01*
X162776517Y-84649695D01*
X162720038Y-84745861D01*
X162719209Y-84747298D01*
X162668463Y-84836810D01*
X162667553Y-84838452D01*
X162665768Y-84841741D01*
X162624284Y-84918158D01*
X162622287Y-84921836D01*
X162621168Y-84923950D01*
X162581024Y-85001891D01*
X162579812Y-85004321D01*
X162544228Y-85077900D01*
X162542916Y-85080715D01*
X162511557Y-85150574D01*
X162510189Y-85153755D01*
X162482597Y-85220778D01*
X162481439Y-85223712D01*
X162462533Y-85273795D01*
X162461388Y-85276979D01*
X162442091Y-85333385D01*
X162442076Y-85333432D01*
X162441018Y-85336695D01*
X162426003Y-85385633D01*
X162422949Y-85395585D01*
X162422051Y-85398674D01*
X162405944Y-85457296D01*
X162405103Y-85460554D01*
X162391640Y-85516312D01*
X162390747Y-85520349D01*
X162380619Y-85570643D01*
X162379795Y-85575250D01*
X162375260Y-85604279D01*
X162375240Y-85604412D01*
X162375132Y-85605128D01*
X162374339Y-85610521D01*
X162373193Y-85618315D01*
X162372885Y-85620165D01*
X162372704Y-85621140D01*
X162371758Y-85625258D01*
X162369779Y-85632459D01*
X162369777Y-85632469D01*
X162367042Y-85646330D01*
X162366725Y-85647935D01*
X162366723Y-85647946D01*
X162364339Y-85667469D01*
X162363816Y-85672885D01*
X162361868Y-85700161D01*
X162361708Y-85702917D01*
X162360202Y-85736305D01*
X162360135Y-85738122D01*
X162359079Y-85775923D01*
X162359048Y-85777340D01*
X162358437Y-85818014D01*
X162358428Y-85819039D01*
X162358426Y-85819266D01*
X162358260Y-85861319D01*
X162358260Y-85861439D01*
X162358260Y-85862450D01*
X162358541Y-85904214D01*
X162358547Y-85904627D01*
X162358558Y-85905483D01*
X162359288Y-85945389D01*
X162359310Y-85946244D01*
X162359327Y-85946934D01*
X162360505Y-85983389D01*
X162360589Y-85985396D01*
X162362221Y-86016854D01*
X162362449Y-86020214D01*
X162362859Y-86025095D01*
X162364328Y-86042586D01*
X162364534Y-86045028D01*
X162365395Y-86052290D01*
X162367926Y-86068809D01*
X162371783Y-86084692D01*
X162372589Y-86088731D01*
X162373291Y-86093200D01*
X162373478Y-86094496D01*
X162374467Y-86102089D01*
X162374517Y-86102431D01*
X162374917Y-86105183D01*
X162374920Y-86105200D01*
X162377643Y-86122235D01*
X162378290Y-86125878D01*
X162382969Y-86149781D01*
X162383395Y-86151838D01*
X162383408Y-86151900D01*
X162383412Y-86151917D01*
X162385111Y-86159734D01*
X162389277Y-86178894D01*
X162389646Y-86180531D01*
X162393503Y-86196983D01*
X162394786Y-86201923D01*
X162427969Y-86318310D01*
X162430825Y-86326931D01*
X162472902Y-86438036D01*
X162476588Y-86446619D01*
X162527873Y-86552991D01*
X162532335Y-86561296D01*
X162593088Y-86663368D01*
X162598124Y-86671060D01*
X162668666Y-86769387D01*
X162674027Y-86776256D01*
X162754649Y-86871344D01*
X162759569Y-86876763D01*
X162832012Y-86951312D01*
X162836139Y-86955322D01*
X162836461Y-86955634D01*
X162925886Y-87037622D01*
X162925894Y-87037629D01*
X162925904Y-87037638D01*
X162931133Y-87042131D01*
X163021778Y-87115067D01*
X163027665Y-87119478D01*
X163027692Y-87119498D01*
X163121810Y-87185091D01*
X163121832Y-87185106D01*
X163125267Y-87187346D01*
X163127337Y-87188696D01*
X163132840Y-87192049D01*
X163207081Y-87237289D01*
X163207051Y-87237338D01*
X163207257Y-87237396D01*
X163229013Y-87250778D01*
X163231854Y-87252663D01*
X163242257Y-87260089D01*
X163251937Y-87269162D01*
X163261144Y-87280439D01*
X163264928Y-87284824D01*
X163285375Y-87307269D01*
X163287736Y-87309779D01*
X163311740Y-87334478D01*
X163313743Y-87336484D01*
X163313782Y-87336522D01*
X163313793Y-87336533D01*
X163322231Y-87344757D01*
X163336233Y-87358405D01*
X163339012Y-87361113D01*
X163341399Y-87363370D01*
X163365488Y-87385454D01*
X163368076Y-87387751D01*
X163379227Y-87397332D01*
X163384885Y-87401871D01*
X163419773Y-87427973D01*
X163444459Y-87446442D01*
X163444482Y-87446458D01*
X163452840Y-87452117D01*
X163452872Y-87452138D01*
X163512493Y-87488534D01*
X163518864Y-87492423D01*
X163526901Y-87496870D01*
X163555050Y-87510908D01*
X163596969Y-87531814D01*
X163605246Y-87535514D01*
X163676983Y-87564019D01*
X163676993Y-87564023D01*
X163686214Y-87567209D01*
X163686217Y-87567210D01*
X163757233Y-87588193D01*
X163767632Y-87590710D01*
X163827386Y-87602061D01*
X163827419Y-87602066D01*
X163827426Y-87602068D01*
X163831095Y-87602699D01*
X163845992Y-87604991D01*
X163847883Y-87605319D01*
X163855519Y-87606796D01*
X163857820Y-87607306D01*
X163858015Y-87607345D01*
X163858019Y-87607346D01*
X163877397Y-87610352D01*
X163877407Y-87610352D01*
X163877410Y-87610353D01*
X163884144Y-87610775D01*
X163884801Y-87610804D01*
X163888084Y-87610950D01*
X163905017Y-87611389D01*
X163905969Y-87611409D01*
X163932398Y-87611860D01*
X163932716Y-87611865D01*
X163932770Y-87611866D01*
X163932797Y-87611866D01*
X163932838Y-87611867D01*
X163968078Y-87612324D01*
X163968323Y-87612326D01*
X163968410Y-87612328D01*
X163968409Y-87612328D01*
X163978397Y-87612433D01*
X164011701Y-87612785D01*
X164011880Y-87612787D01*
X164062681Y-87613239D01*
X164062806Y-87613239D01*
X164062810Y-87613240D01*
X164062811Y-87613240D01*
X164120362Y-87613682D01*
X164120468Y-87613683D01*
X164184081Y-87614109D01*
X164184155Y-87614109D01*
X164184339Y-87614110D01*
X164198161Y-87614191D01*
X164253021Y-87614513D01*
X164253190Y-87614514D01*
X164253239Y-87614515D01*
X164326919Y-87614894D01*
X164326993Y-87614894D01*
X164404675Y-87615240D01*
X164404745Y-87615240D01*
X164485744Y-87615548D01*
X164485796Y-87615548D01*
X164532339Y-87615702D01*
X164532391Y-87615704D01*
X164533037Y-87615705D01*
X164533039Y-87615706D01*
X164630606Y-87616001D01*
X164630638Y-87616001D01*
X164717946Y-87616239D01*
X164718000Y-87616239D01*
X164795661Y-87616412D01*
X164795739Y-87616412D01*
X164864365Y-87616515D01*
X164864402Y-87616515D01*
X164864480Y-87616515D01*
X164924683Y-87616541D01*
X164924694Y-87616541D01*
X164924819Y-87616541D01*
X164924846Y-87616541D01*
X164977239Y-87616484D01*
X164977318Y-87616483D01*
X164977520Y-87616483D01*
X164977520Y-87616482D01*
X165022665Y-87616336D01*
X165022666Y-87616335D01*
X165022745Y-87616368D01*
X165022825Y-87616335D01*
X165022992Y-87616335D01*
X165023070Y-87616335D01*
X165061614Y-87616092D01*
X165062100Y-87616088D01*
X165077555Y-87615924D01*
X165094690Y-87615743D01*
X165095258Y-87615735D01*
X165095271Y-87615735D01*
X165095273Y-87615734D01*
X165095343Y-87615734D01*
X165122612Y-87615280D01*
X165123542Y-87615261D01*
X165146060Y-87614691D01*
X165147373Y-87614649D01*
X165165751Y-87613959D01*
X165167637Y-87613872D01*
X165182489Y-87613053D01*
X165185125Y-87612875D01*
X165197062Y-87611922D01*
X165200625Y-87611578D01*
X165210259Y-87610485D01*
X165214724Y-87609883D01*
X165214740Y-87609880D01*
X165214751Y-87609879D01*
X165218804Y-87609246D01*
X165222666Y-87608643D01*
X165225240Y-87608183D01*
X165227286Y-87607818D01*
X165227298Y-87607815D01*
X165227318Y-87607812D01*
X165233695Y-87606527D01*
X165241898Y-87604536D01*
X165290988Y-87590559D01*
X165303342Y-87586212D01*
X165347413Y-87567616D01*
X165360273Y-87561143D01*
X165398227Y-87538736D01*
X165412064Y-87529023D01*
X165442806Y-87503612D01*
X165457750Y-87488541D01*
X165480180Y-87460934D01*
X165494812Y-87437186D01*
X165507834Y-87408189D01*
X165514968Y-87386273D01*
X165517011Y-87376558D01*
X165519246Y-87350682D01*
X165518230Y-87321598D01*
X165516729Y-87314728D01*
X165516969Y-87313387D01*
X165516249Y-87312230D01*
X165520316Y-87294735D01*
X165523488Y-87277063D01*
X165524607Y-87276284D01*
X165524916Y-87274956D01*
X165540160Y-87265463D01*
X165554901Y-87255208D01*
X165557401Y-87254728D01*
X165566165Y-87253275D01*
X165588730Y-87249536D01*
X165588795Y-87249525D01*
X165597632Y-87248055D01*
X165597631Y-87248054D01*
X165627794Y-87243060D01*
X165632687Y-87242251D01*
X165632761Y-87242239D01*
X165636693Y-87241594D01*
X165644318Y-87240344D01*
X165681576Y-87249074D01*
X165697402Y-87267878D01*
X165704414Y-87282346D01*
X165710181Y-87292444D01*
X165711618Y-87294960D01*
X165753761Y-87358385D01*
X165753773Y-87358401D01*
X165753775Y-87358404D01*
X165757568Y-87363331D01*
X165762891Y-87370247D01*
X165762896Y-87370253D01*
X165787960Y-87398510D01*
X165812439Y-87426108D01*
X165812446Y-87426115D01*
X165812449Y-87426118D01*
X165823294Y-87436729D01*
X165823320Y-87436752D01*
X165879690Y-87484588D01*
X165879694Y-87484591D01*
X165879700Y-87484596D01*
X165892033Y-87493635D01*
X165954720Y-87533052D01*
X165959329Y-87535514D01*
X165968117Y-87540209D01*
X166036537Y-87570756D01*
X166036554Y-87570763D01*
X166042859Y-87573067D01*
X166050554Y-87575881D01*
X166124175Y-87597136D01*
X166124188Y-87597139D01*
X166124196Y-87597141D01*
X166126980Y-87597785D01*
X166135421Y-87599738D01*
X166181065Y-87607744D01*
X166189180Y-87608850D01*
X166202993Y-87610200D01*
X166206427Y-87610480D01*
X166226313Y-87611782D01*
X166227986Y-87611878D01*
X166228083Y-87611884D01*
X166250324Y-87612989D01*
X166251444Y-87613045D01*
X166252643Y-87613098D01*
X166277137Y-87614042D01*
X166278323Y-87614081D01*
X166301353Y-87614714D01*
X166301375Y-87614714D01*
X166301395Y-87614715D01*
X166302939Y-87614747D01*
X166309283Y-87614825D01*
X166322016Y-87614985D01*
X166325472Y-87614972D01*
X166327633Y-87614929D01*
X166338009Y-87614726D01*
X166338020Y-87614725D01*
X166338036Y-87614725D01*
X166351739Y-87613576D01*
X166355376Y-87613035D01*
X166357888Y-87612631D01*
X166358923Y-87612451D01*
X166361901Y-87612026D01*
X166365068Y-87611672D01*
X166369570Y-87611169D01*
X166370413Y-87611082D01*
X166387447Y-87609480D01*
X166387599Y-87609466D01*
X166388608Y-87609379D01*
X166390163Y-87609246D01*
X166396031Y-87608575D01*
X166396032Y-87608574D01*
X166396057Y-87608572D01*
X166452332Y-87600559D01*
X166465677Y-87597785D01*
X166515141Y-87584185D01*
X166530435Y-87578707D01*
X166572498Y-87559944D01*
X166589738Y-87550263D01*
X166623813Y-87526762D01*
X166642024Y-87510908D01*
X166667522Y-87483092D01*
X166683845Y-87459678D01*
X166700177Y-87427971D01*
X166710277Y-87398510D01*
X166716856Y-87363338D01*
X166718681Y-87344894D01*
X166718773Y-87337409D01*
X166717799Y-87321592D01*
X166712102Y-87279730D01*
X166705058Y-87253470D01*
X166700461Y-87242251D01*
X166689277Y-87214953D01*
X166689276Y-87214952D01*
X166689272Y-87214941D01*
X166676427Y-87192045D01*
X166650425Y-87156657D01*
X166635378Y-87140108D01*
X166626627Y-87132298D01*
X166599035Y-87107670D01*
X166587799Y-87098907D01*
X166587800Y-87098907D01*
X166566534Y-87084481D01*
X166563767Y-87082462D01*
X166546950Y-87069286D01*
X166540478Y-87063215D01*
X166527359Y-87048507D01*
X166522862Y-87042642D01*
X166507844Y-87019725D01*
X166501709Y-87006467D01*
X166498007Y-86993913D01*
X166497527Y-86992173D01*
X166490978Y-86966592D01*
X166490719Y-86965522D01*
X166490362Y-86963976D01*
X166483240Y-86933105D01*
X166483044Y-86932222D01*
X166476403Y-86900856D01*
X166476324Y-86900474D01*
X166469532Y-86867112D01*
X166467796Y-86858596D01*
X166463233Y-86836203D01*
X166463227Y-86836174D01*
X166457924Y-86810190D01*
X166457915Y-86810149D01*
X166453964Y-86790828D01*
X166453941Y-86790714D01*
X166453175Y-86786991D01*
X166451692Y-86779777D01*
X166451692Y-86779776D01*
X166451435Y-86778539D01*
X166451406Y-86778399D01*
X166449899Y-86771040D01*
X166449884Y-86770970D01*
X166446443Y-86754043D01*
X166446438Y-86754018D01*
X166441351Y-86728931D01*
X166441349Y-86728922D01*
X166434880Y-86696987D01*
X166434882Y-86696986D01*
X166434878Y-86696978D01*
X166430701Y-86676341D01*
X166427300Y-86659534D01*
X166418869Y-86617853D01*
X166418870Y-86617848D01*
X166418868Y-86617849D01*
X166410780Y-86577842D01*
X166410780Y-86577841D01*
X166408128Y-86564729D01*
X166401797Y-86533433D01*
X166401790Y-86533399D01*
X166393416Y-86492070D01*
X166393409Y-86492034D01*
X166385904Y-86455060D01*
X166385894Y-86455011D01*
X166379519Y-86423678D01*
X166379503Y-86423601D01*
X166374519Y-86399196D01*
X166374489Y-86399051D01*
X166374463Y-86398924D01*
X166371179Y-86382952D01*
X166371065Y-86382407D01*
X166369694Y-86375900D01*
X166369666Y-86375768D01*
X166369663Y-86375752D01*
X166367496Y-86365517D01*
X166366884Y-86362627D01*
X166366775Y-86362096D01*
X166364970Y-86352887D01*
X166364968Y-86352876D01*
X166364965Y-86352858D01*
X166363216Y-86343912D01*
X166363164Y-86343646D01*
X166360726Y-86331370D01*
X166359585Y-86325625D01*
X166359565Y-86325522D01*
X166354502Y-86300155D01*
X166354490Y-86300099D01*
X166348270Y-86269022D01*
X166348262Y-86268978D01*
X166341214Y-86233839D01*
X166341207Y-86233805D01*
X166336185Y-86208813D01*
X166326146Y-86156653D01*
X166325962Y-86155628D01*
X166319111Y-86114592D01*
X166318835Y-86112708D01*
X166314738Y-86080496D01*
X166314473Y-86077848D01*
X166312622Y-86052189D01*
X166312496Y-86048924D01*
X166312459Y-86042586D01*
X166312365Y-86026754D01*
X166312458Y-86023436D01*
X166313863Y-86000642D01*
X166314098Y-85997993D01*
X166315549Y-85985435D01*
X166316300Y-85978933D01*
X166316902Y-85975065D01*
X166326240Y-85927406D01*
X166327460Y-85922512D01*
X166342091Y-85874372D01*
X166343659Y-85869970D01*
X166362653Y-85823602D01*
X166364792Y-85819050D01*
X166387280Y-85776886D01*
X166389296Y-85773447D01*
X166392890Y-85767845D01*
X166395255Y-85764474D01*
X166399811Y-85758519D01*
X166401511Y-85756419D01*
X166414638Y-85741086D01*
X166415515Y-85740091D01*
X166434975Y-85718633D01*
X166435642Y-85717915D01*
X166458435Y-85693814D01*
X166459071Y-85693154D01*
X166483756Y-85668049D01*
X166484080Y-85667724D01*
X166487411Y-85664416D01*
X166488943Y-85662863D01*
X166546219Y-85603619D01*
X166550213Y-85599253D01*
X166550227Y-85599237D01*
X166599602Y-85542193D01*
X166599608Y-85542185D01*
X166599618Y-85542174D01*
X166604149Y-85536571D01*
X166604157Y-85536559D01*
X166604167Y-85536548D01*
X166647560Y-85479040D01*
X166647564Y-85479034D01*
X166647571Y-85479025D01*
X166651958Y-85472759D01*
X166691279Y-85412115D01*
X166694911Y-85406090D01*
X166732019Y-85339717D01*
X166734312Y-85335386D01*
X166759786Y-85284508D01*
X166760224Y-85283584D01*
X166761699Y-85280483D01*
X166787375Y-85223383D01*
X166788663Y-85220334D01*
X166789250Y-85218947D01*
X166813425Y-85157996D01*
X166814939Y-85153942D01*
X166836730Y-85091815D01*
X166838101Y-85087635D01*
X166856609Y-85027035D01*
X166857985Y-85022114D01*
X166872311Y-84965746D01*
X166873657Y-84959734D01*
X166881720Y-84918158D01*
X166882247Y-84915222D01*
X166884884Y-84899263D01*
X166884985Y-84898678D01*
X166886506Y-84890114D01*
X166887104Y-84886738D01*
X166887221Y-84886109D01*
X166887227Y-84886079D01*
X166888052Y-84881143D01*
X166892013Y-84853499D01*
X166892709Y-84847417D01*
X166895759Y-84811777D01*
X166896011Y-84808075D01*
X166896039Y-84807538D01*
X166897240Y-84783917D01*
X166898087Y-84767282D01*
X166898195Y-84764406D01*
X166899233Y-84721304D01*
X166899264Y-84718554D01*
X166899200Y-84675986D01*
X166899147Y-84672779D01*
X166897918Y-84633586D01*
X166897674Y-84628964D01*
X166895216Y-84595990D01*
X166894842Y-84591993D01*
X166894841Y-84591992D01*
X166894839Y-84591961D01*
X166894673Y-84590491D01*
X166894426Y-84588286D01*
X166893775Y-84583468D01*
X166887747Y-84545384D01*
X166886662Y-84539567D01*
X166886079Y-84536857D01*
X166877345Y-84496284D01*
X166877337Y-84496249D01*
X166876261Y-84491728D01*
X166864778Y-84447724D01*
X166863398Y-84442902D01*
X166863394Y-84442889D01*
X166850899Y-84402769D01*
X166850895Y-84402757D01*
X166849190Y-84397724D01*
X166842452Y-84379343D01*
X166842434Y-84379293D01*
X166842273Y-84378856D01*
X166821984Y-84324466D01*
X166820361Y-84320116D01*
X166819589Y-84317884D01*
X166808846Y-84284306D01*
X166804551Y-84270882D01*
X166803678Y-84267816D01*
X166803580Y-84267425D01*
X166797727Y-84244058D01*
X166793646Y-84227763D01*
X166792856Y-84223997D01*
X166786660Y-84187558D01*
X166786147Y-84183586D01*
X166782853Y-84146278D01*
X166782675Y-84143066D01*
X166782033Y-84114620D01*
X166782145Y-84109984D01*
X166785452Y-84063509D01*
X166786476Y-84056398D01*
X166786630Y-84055695D01*
X166794728Y-84018596D01*
X166796969Y-84011162D01*
X166806023Y-83987848D01*
X166809254Y-83979526D01*
X166812979Y-83971919D01*
X166829938Y-83943644D01*
X166833923Y-83937944D01*
X166839026Y-83931629D01*
X166843307Y-83926972D01*
X166861334Y-83909707D01*
X166868819Y-83903802D01*
X166880681Y-83896159D01*
X166890126Y-83891405D01*
X166898641Y-83888195D01*
X166905140Y-83885746D01*
X166913329Y-83883434D01*
X166940538Y-83878211D01*
X166941590Y-83878003D01*
X166986874Y-83868839D01*
X166999205Y-83865572D01*
X167045892Y-83850183D01*
X167057562Y-83845564D01*
X167099310Y-83826153D01*
X167113007Y-83818524D01*
X167152227Y-83792761D01*
X167164499Y-83783371D01*
X167201869Y-83750259D01*
X167211409Y-83740669D01*
X167247544Y-83699454D01*
X167254393Y-83690780D01*
X167289910Y-83640709D01*
X167294609Y-83633488D01*
X167330123Y-83573809D01*
X167332776Y-83569085D01*
X167354963Y-83527125D01*
X167356377Y-83524354D01*
X167371425Y-83493786D01*
X167373508Y-83489297D01*
X167383983Y-83465289D01*
X167385452Y-83461501D01*
X167387189Y-83457027D01*
X167394084Y-83436826D01*
X167394092Y-83436803D01*
X167394096Y-83436786D01*
X167394101Y-83436773D01*
X167397222Y-83425722D01*
X167397227Y-83425706D01*
X167401556Y-83406494D01*
X167401559Y-83406479D01*
X167403092Y-83398160D01*
X167403904Y-83392508D01*
X167405004Y-83384860D01*
X167405691Y-83378905D01*
X167406530Y-83369290D01*
X167406308Y-83348336D01*
X167405430Y-83340253D01*
X167396826Y-83308275D01*
X167393093Y-83299859D01*
X167389450Y-83293544D01*
X167381749Y-83280196D01*
X167381747Y-83280193D01*
X167381744Y-83280188D01*
X167374017Y-83269571D01*
X167367978Y-83262013D01*
X167355121Y-83247329D01*
X167353050Y-83245032D01*
X167334090Y-83224595D01*
X167333160Y-83223563D01*
X167297780Y-83183056D01*
X167295282Y-83179954D01*
X167295083Y-83179686D01*
X167267728Y-83142777D01*
X167265226Y-83139064D01*
X167241504Y-83100219D01*
X167239395Y-83096401D01*
X167217406Y-83052128D01*
X167215873Y-83048729D01*
X167194064Y-82995122D01*
X167193156Y-82992714D01*
X167175537Y-82942086D01*
X167175464Y-82941874D01*
X167164661Y-82910109D01*
X167164635Y-82910035D01*
X167163952Y-82908089D01*
X167152621Y-82876853D01*
X167151845Y-82874785D01*
X167151837Y-82874765D01*
X167151814Y-82874703D01*
X167141132Y-82847133D01*
X167139864Y-82844006D01*
X167130802Y-82822634D01*
X167128536Y-82817647D01*
X167124177Y-82808669D01*
X167117891Y-82797478D01*
X167117888Y-82797474D01*
X167117884Y-82797466D01*
X167117879Y-82797458D01*
X167098707Y-82767644D01*
X167098703Y-82767639D01*
X167098697Y-82767629D01*
X167091558Y-82757797D01*
X167091551Y-82757788D01*
X167091549Y-82757785D01*
X167064954Y-82725203D01*
X167059058Y-82718561D01*
X167059057Y-82718560D01*
X167059042Y-82718543D01*
X167027234Y-82685574D01*
X167027226Y-82685567D01*
X167027219Y-82685559D01*
X167021344Y-82679915D01*
X166986529Y-82648928D01*
X166981274Y-82644542D01*
X166961925Y-82629410D01*
X166961920Y-82629406D01*
X166955474Y-82624739D01*
X166920455Y-82601309D01*
X166920447Y-82601304D01*
X166920435Y-82601296D01*
X166914144Y-82597395D01*
X166907852Y-82593788D01*
X166898607Y-82588488D01*
X166871351Y-82572862D01*
X166871329Y-82572850D01*
X166866539Y-82570263D01*
X166818722Y-82545980D01*
X166814393Y-82543902D01*
X166814388Y-82543900D01*
X166814374Y-82543893D01*
X166764377Y-82521252D01*
X166759715Y-82519271D01*
X166757265Y-82518297D01*
X166729821Y-82491628D01*
X166727693Y-82457982D01*
X166728114Y-82456523D01*
X166728220Y-82456154D01*
X166729417Y-82451634D01*
X166733109Y-82436355D01*
X166733895Y-82432846D01*
X166742572Y-82390826D01*
X166743259Y-82387184D01*
X166749285Y-82351902D01*
X166750081Y-82346381D01*
X166753878Y-82314150D01*
X166754420Y-82308059D01*
X166756407Y-82275188D01*
X166756589Y-82270433D01*
X166757188Y-82233233D01*
X166757202Y-82231461D01*
X166757200Y-82226227D01*
X166757063Y-82220848D01*
X166756779Y-82215229D01*
X166754850Y-82177018D01*
X166754848Y-82176987D01*
X166753388Y-82163950D01*
X166753388Y-82163949D01*
X166747166Y-82128265D01*
X166742298Y-82110009D01*
X166732437Y-82082878D01*
X166718572Y-82056689D01*
X166705444Y-82038499D01*
X166670317Y-82007347D01*
X166667229Y-82005639D01*
X166654291Y-81998480D01*
X166597363Y-81985155D01*
X166597354Y-81985155D01*
X166578807Y-81985999D01*
X166533473Y-81998342D01*
X166533472Y-81998343D01*
X166512769Y-82009283D01*
X166512749Y-82009295D01*
X166491200Y-82024314D01*
X166491199Y-82024315D01*
X166474864Y-82038971D01*
X166466130Y-82047765D01*
X166466126Y-82047770D01*
X166452854Y-82062767D01*
X166450033Y-82066087D01*
X166433388Y-82086489D01*
X166431505Y-82088864D01*
X166414366Y-82111102D01*
X166412897Y-82113052D01*
X166407989Y-82119707D01*
X166407018Y-82120980D01*
X166401271Y-82128270D01*
X166386411Y-82147114D01*
X166384298Y-82149620D01*
X166358630Y-82178113D01*
X166356913Y-82179926D01*
X166323064Y-82213922D01*
X166321712Y-82215229D01*
X166279190Y-82254838D01*
X166278147Y-82255783D01*
X166226424Y-82301312D01*
X166225755Y-82301890D01*
X166187341Y-82334517D01*
X166187171Y-82334661D01*
X166155645Y-82361197D01*
X166155569Y-82361261D01*
X166155482Y-82361333D01*
X166155467Y-82361346D01*
X166120066Y-82391274D01*
X166119933Y-82391387D01*
X166082303Y-82423304D01*
X166082117Y-82423463D01*
X166043311Y-82456468D01*
X166043198Y-82456563D01*
X166043142Y-82456612D01*
X166010744Y-82484239D01*
X166004183Y-82489834D01*
X166004148Y-82489864D01*
X166004147Y-82489865D01*
X165998838Y-82494402D01*
X165970886Y-82518297D01*
X165966365Y-82522162D01*
X165966255Y-82522256D01*
X165941013Y-82543893D01*
X165930724Y-82552712D01*
X165930617Y-82552804D01*
X165930616Y-82552803D01*
X165898446Y-82580470D01*
X165898305Y-82580592D01*
X165870730Y-82604409D01*
X165870731Y-82604410D01*
X165870660Y-82604472D01*
X165870383Y-82604713D01*
X165848439Y-82623800D01*
X165847883Y-82624286D01*
X165832746Y-82637636D01*
X165831901Y-82638390D01*
X165828734Y-82641243D01*
X165828571Y-82641390D01*
X165828344Y-82641594D01*
X165828325Y-82641612D01*
X165816928Y-82651922D01*
X165816853Y-82651990D01*
X165799089Y-82667993D01*
X165799050Y-82668027D01*
X165777359Y-82687527D01*
X165777330Y-82687554D01*
X165753802Y-82708672D01*
X165753782Y-82708689D01*
X165744772Y-82716766D01*
X165744773Y-82716767D01*
X165744702Y-82716830D01*
X165744670Y-82716860D01*
X165743955Y-82717507D01*
X165743891Y-82717564D01*
X165681228Y-82774772D01*
X165679162Y-82776708D01*
X165624327Y-82829416D01*
X165621486Y-82832252D01*
X165573683Y-82881806D01*
X165570006Y-82885816D01*
X165528306Y-82933680D01*
X165524060Y-82938874D01*
X165487576Y-82986473D01*
X165483171Y-82992659D01*
X165450979Y-83041448D01*
X165448980Y-83044733D01*
X165446924Y-83048110D01*
X165425209Y-83086868D01*
X165418097Y-83099563D01*
X165414773Y-83105996D01*
X165388427Y-83161505D01*
X165385942Y-83167154D01*
X165361116Y-83228267D01*
X165359425Y-83232709D01*
X165335254Y-83300761D01*
X165334492Y-83303023D01*
X165334146Y-83304048D01*
X165309681Y-83380581D01*
X165309675Y-83380600D01*
X165309115Y-83382404D01*
X165294647Y-83430522D01*
X165294648Y-83430523D01*
X165294621Y-83430614D01*
X165294559Y-83430821D01*
X165285345Y-83461688D01*
X165280149Y-83479093D01*
X165280018Y-83479522D01*
X165268202Y-83517844D01*
X165267969Y-83518582D01*
X165257994Y-83549240D01*
X165257622Y-83550338D01*
X165249039Y-83574777D01*
X165248516Y-83576197D01*
X165240532Y-83596904D01*
X165239914Y-83598431D01*
X165231640Y-83617949D01*
X165231060Y-83619265D01*
X165221136Y-83640919D01*
X165219516Y-83644142D01*
X165192349Y-83693649D01*
X165189006Y-83698928D01*
X165160742Y-83737943D01*
X165156464Y-83743086D01*
X165124081Y-83777100D01*
X165119153Y-83781627D01*
X165080809Y-83812384D01*
X165075690Y-83815988D01*
X165029277Y-83844491D01*
X165024422Y-83847115D01*
X164968090Y-83873656D01*
X164963798Y-83875439D01*
X164895414Y-83900194D01*
X164892372Y-83901186D01*
X164879918Y-83904811D01*
X164842161Y-83915798D01*
X164840009Y-83916372D01*
X164811479Y-83923312D01*
X164810086Y-83923630D01*
X164772316Y-83931682D01*
X164771362Y-83931876D01*
X164728631Y-83940119D01*
X164727797Y-83940272D01*
X164684675Y-83947835D01*
X164683755Y-83947988D01*
X164644116Y-83954180D01*
X164642833Y-83954363D01*
X164609940Y-83958631D01*
X164608860Y-83958759D01*
X164606460Y-83959017D01*
X164606072Y-83959059D01*
X164606048Y-83959061D01*
X164606026Y-83959064D01*
X164567366Y-83963348D01*
X164565231Y-83963606D01*
X164531651Y-83968020D01*
X164529163Y-83968378D01*
X164515913Y-83970437D01*
X164494666Y-83973741D01*
X164494611Y-83973749D01*
X164494559Y-83973758D01*
X164493351Y-83973954D01*
X164478663Y-83976427D01*
X164473971Y-83977325D01*
X164432064Y-83986320D01*
X164432039Y-83986326D01*
X164432035Y-83986327D01*
X164425847Y-83987848D01*
X164425837Y-83987850D01*
X164425836Y-83987851D01*
X164377985Y-84001131D01*
X164373405Y-84002512D01*
X164352132Y-84009445D01*
X164323070Y-84018917D01*
X164323059Y-84018921D01*
X164318886Y-84020376D01*
X164269538Y-84038742D01*
X164264838Y-84040619D01*
X164219975Y-84059773D01*
X164215673Y-84061724D01*
X164198825Y-84069813D01*
X164198815Y-84069818D01*
X164197453Y-84070531D01*
X164192196Y-84073283D01*
X164106587Y-84121975D01*
X164097449Y-84127803D01*
X164097426Y-84127819D01*
X164014981Y-84186462D01*
X164014961Y-84186477D01*
X164006951Y-84192765D01*
X163928252Y-84260814D01*
X163921264Y-84267425D01*
X163921257Y-84267432D01*
X163847008Y-84344259D01*
X163840912Y-84351132D01*
X163771763Y-84436156D01*
X163767854Y-84441268D01*
X163738732Y-84481823D01*
X163735303Y-84486898D01*
X163671723Y-84586963D01*
X163667870Y-84593530D01*
X163608474Y-84703518D01*
X163605417Y-84709635D01*
X163550301Y-84829332D01*
X163547877Y-84835019D01*
X163497082Y-84964324D01*
X163495185Y-84969543D01*
X163448784Y-85108281D01*
X163447314Y-85113041D01*
X163417198Y-85219328D01*
X163405369Y-85261075D01*
X163404721Y-85263465D01*
X163402189Y-85273255D01*
X163402014Y-85273947D01*
X163391784Y-85314706D01*
X163391785Y-85314707D01*
X163391486Y-85315923D01*
X163380879Y-85359951D01*
X163380688Y-85360752D01*
X163380689Y-85360753D01*
X163380667Y-85360846D01*
X163370862Y-85402979D01*
X163370052Y-85406459D01*
X163369918Y-85407041D01*
X163369901Y-85407120D01*
X163363065Y-85437486D01*
X163359788Y-85452041D01*
X163359614Y-85452830D01*
X163350511Y-85494754D01*
X163350301Y-85495742D01*
X163342504Y-85533346D01*
X163342226Y-85534740D01*
X163336263Y-85565644D01*
X163335803Y-85568202D01*
X163332263Y-85589375D01*
X163332177Y-85589893D01*
X163330288Y-85601634D01*
X163329868Y-85603909D01*
X163329763Y-85604412D01*
X163328809Y-85608213D01*
X163327141Y-85614929D01*
X163325463Y-85622992D01*
X163323163Y-85636655D01*
X163322743Y-85639354D01*
X163321483Y-85648204D01*
X163321429Y-85648571D01*
X163319616Y-85660652D01*
X163319253Y-85662763D01*
X163318919Y-85664483D01*
X163318081Y-85668082D01*
X163317720Y-85669405D01*
X163316167Y-85676085D01*
X163314611Y-85684178D01*
X163312447Y-85698357D01*
X163312052Y-85701194D01*
X163310240Y-85715661D01*
X163310230Y-85715743D01*
X163308279Y-85731107D01*
X163308068Y-85732589D01*
X163307403Y-85736810D01*
X163306683Y-85740481D01*
X163306591Y-85740869D01*
X163305116Y-85747379D01*
X163303648Y-85755176D01*
X163301537Y-85769210D01*
X163301161Y-85771946D01*
X163299354Y-85786444D01*
X163299342Y-85786538D01*
X163297400Y-85801879D01*
X163297198Y-85803310D01*
X163296484Y-85807885D01*
X163295838Y-85811261D01*
X163295510Y-85812701D01*
X163294095Y-85819297D01*
X163292737Y-85826981D01*
X163290777Y-85841054D01*
X163290776Y-85841062D01*
X163290440Y-85843718D01*
X163288742Y-85858612D01*
X163288724Y-85858769D01*
X163287467Y-85869935D01*
X163286668Y-85877033D01*
X163286567Y-85877868D01*
X163284892Y-85890786D01*
X163284689Y-85892193D01*
X163283842Y-85897531D01*
X163283829Y-85897613D01*
X163283795Y-85897825D01*
X163282030Y-85909029D01*
X163281652Y-85911635D01*
X163279310Y-85929216D01*
X163279120Y-85930721D01*
X163277388Y-85945066D01*
X163277367Y-85945237D01*
X163277359Y-85945311D01*
X163277167Y-85946934D01*
X163275042Y-85964880D01*
X163275006Y-85965174D01*
X163272960Y-85981616D01*
X163272904Y-85982050D01*
X163271890Y-85989648D01*
X163271891Y-85989649D01*
X163271804Y-85990316D01*
X163270160Y-86003241D01*
X163270004Y-86004531D01*
X163268884Y-86014279D01*
X163267839Y-86023364D01*
X163267831Y-86023436D01*
X163267746Y-86024194D01*
X163266188Y-86038593D01*
X163266180Y-86038664D01*
X163264086Y-86057758D01*
X163264037Y-86058189D01*
X163262130Y-86074288D01*
X163262050Y-86074927D01*
X163261317Y-86080496D01*
X163261078Y-86082313D01*
X163260945Y-86083359D01*
X163260932Y-86083463D01*
X163260928Y-86083497D01*
X163259448Y-86095637D01*
X163259237Y-86097501D01*
X163257268Y-86116215D01*
X163257166Y-86117230D01*
X163255193Y-86137812D01*
X163255186Y-86137889D01*
X163253216Y-86158472D01*
X163253181Y-86158820D01*
X163251420Y-86175602D01*
X163251333Y-86176370D01*
X163250067Y-86186868D01*
X163249981Y-86187608D01*
X163248692Y-86199169D01*
X163248688Y-86199209D01*
X163248482Y-86201229D01*
X163248092Y-86205455D01*
X163247513Y-86211715D01*
X163229676Y-86245572D01*
X163193122Y-86256900D01*
X163159265Y-86239063D01*
X163156614Y-86235570D01*
X163154242Y-86232144D01*
X163135768Y-86205455D01*
X163127277Y-86193189D01*
X163124947Y-86189488D01*
X163081670Y-86113550D01*
X163079483Y-86109241D01*
X163075317Y-86099946D01*
X163046190Y-86034950D01*
X163044308Y-86030080D01*
X163019341Y-85953792D01*
X163018420Y-85950625D01*
X163017572Y-85947306D01*
X163015537Y-85939335D01*
X163015311Y-85938414D01*
X163013471Y-85930592D01*
X163008273Y-85908497D01*
X163007956Y-85907052D01*
X163003497Y-85885189D01*
X163003051Y-85882681D01*
X163002322Y-85877868D01*
X163000493Y-85865783D01*
X163000133Y-85862803D01*
X162999806Y-85859185D01*
X162998543Y-85845223D01*
X162998385Y-85842806D01*
X162997420Y-85819001D01*
X162997385Y-85817646D01*
X162997002Y-85783765D01*
X162997000Y-85783517D01*
X162996981Y-85773139D01*
X162997153Y-85738603D01*
X162997169Y-85737560D01*
X162997300Y-85732589D01*
X162997826Y-85712570D01*
X162997906Y-85710784D01*
X162999159Y-85690779D01*
X162999328Y-85688759D01*
X163001507Y-85667820D01*
X163001679Y-85666371D01*
X163005416Y-85638757D01*
X163006820Y-85629250D01*
X163007216Y-85626951D01*
X163007281Y-85626623D01*
X163010446Y-85610510D01*
X163010978Y-85608118D01*
X163011959Y-85604164D01*
X163017305Y-85582620D01*
X163017663Y-85581262D01*
X163025100Y-85554571D01*
X163026713Y-85548782D01*
X163026980Y-85547860D01*
X163037729Y-85512303D01*
X163037972Y-85511529D01*
X163049315Y-85476653D01*
X163049650Y-85475665D01*
X163060808Y-85444016D01*
X163061170Y-85443026D01*
X163065370Y-85431977D01*
X163065860Y-85430743D01*
X163077368Y-85402921D01*
X163077795Y-85401923D01*
X163093777Y-85365784D01*
X163094079Y-85365119D01*
X163094832Y-85363487D01*
X163113408Y-85323189D01*
X163113634Y-85322707D01*
X163114178Y-85321565D01*
X163135060Y-85277668D01*
X163135288Y-85277198D01*
X163157502Y-85231801D01*
X163157706Y-85231388D01*
X163179689Y-85187760D01*
X163179974Y-85187206D01*
X163195208Y-85158014D01*
X163200413Y-85148037D01*
X163200735Y-85147431D01*
X163209387Y-85131403D01*
X163209491Y-85131212D01*
X163220502Y-85111024D01*
X163224133Y-85104368D01*
X163224224Y-85104199D01*
X163224283Y-85104090D01*
X163224294Y-85104096D01*
X163224308Y-85104044D01*
X163239954Y-85075238D01*
X163240041Y-85075078D01*
X163254243Y-85048824D01*
X163254343Y-85048638D01*
X163259791Y-85038520D01*
X163270872Y-85017957D01*
X163270871Y-85017956D01*
X163271277Y-85017203D01*
X163284578Y-84992606D01*
X163285248Y-84991372D01*
X163301365Y-84961629D01*
X163301364Y-84961628D01*
X163301854Y-84960724D01*
X163317273Y-84932332D01*
X163317272Y-84932331D01*
X163317949Y-84931087D01*
X163318999Y-84929159D01*
X163319045Y-84929075D01*
X163319214Y-84928761D01*
X163319242Y-84928709D01*
X163319475Y-84928276D01*
X163325029Y-84918049D01*
X163325063Y-84917859D01*
X163358903Y-84854773D01*
X163380746Y-84814054D01*
X163381419Y-84812779D01*
X163436889Y-84705957D01*
X163437680Y-84704403D01*
X163487632Y-84604269D01*
X163488535Y-84602414D01*
X163533425Y-84507931D01*
X163534423Y-84505771D01*
X163574707Y-84415902D01*
X163575768Y-84413452D01*
X163611904Y-84327158D01*
X163612989Y-84324466D01*
X163614398Y-84320830D01*
X163637646Y-84260813D01*
X163645433Y-84240710D01*
X163646493Y-84237854D01*
X163675703Y-84155599D01*
X163676693Y-84152680D01*
X163703124Y-84070887D01*
X163703823Y-84068640D01*
X163711389Y-84043346D01*
X163717623Y-84022509D01*
X163718169Y-84020622D01*
X163723615Y-84001131D01*
X163727517Y-83987167D01*
X163727934Y-83985631D01*
X163738108Y-83947025D01*
X163738401Y-83945888D01*
X163740402Y-83937944D01*
X163748748Y-83904811D01*
X163748998Y-83903798D01*
X163753359Y-83885747D01*
X163758905Y-83862794D01*
X163759166Y-83861689D01*
X163767964Y-83823514D01*
X163768295Y-83822029D01*
X163775352Y-83789298D01*
X163775845Y-83786876D01*
X163780152Y-83764404D01*
X163780503Y-83762479D01*
X163784050Y-83741958D01*
X163787232Y-83723698D01*
X163787232Y-83723693D01*
X163787241Y-83723679D01*
X163787248Y-83723606D01*
X163788957Y-83713912D01*
X163789676Y-83709234D01*
X163795566Y-83664340D01*
X163796255Y-83657299D01*
X163799646Y-83604902D01*
X163799855Y-83599748D01*
X163800801Y-83542910D01*
X163800783Y-83538448D01*
X163799335Y-83480233D01*
X163799127Y-83475719D01*
X163795339Y-83419190D01*
X163794847Y-83413848D01*
X163792744Y-83395923D01*
X163788773Y-83362081D01*
X163787937Y-83356308D01*
X163783943Y-83333175D01*
X163783001Y-83327719D01*
X163782713Y-83326372D01*
X163781218Y-83319379D01*
X163765475Y-83257790D01*
X163757716Y-83227436D01*
X163754314Y-83216564D01*
X163753279Y-83213784D01*
X163747621Y-83198580D01*
X163721825Y-83129263D01*
X163717267Y-83118761D01*
X163676330Y-83036717D01*
X163670632Y-83026685D01*
X163621782Y-82950505D01*
X163620279Y-82948419D01*
X163614982Y-82941068D01*
X163614974Y-82941057D01*
X163614965Y-82941045D01*
X163613214Y-82938874D01*
X163558758Y-82871354D01*
X163550808Y-82862538D01*
X163487754Y-82799918D01*
X163487740Y-82799905D01*
X163478758Y-82791932D01*
X163409381Y-82736977D01*
X163399740Y-82730199D01*
X163399345Y-82729921D01*
X163324212Y-82683265D01*
X163324204Y-82683261D01*
X163324195Y-82683255D01*
X163313213Y-82677291D01*
X163313195Y-82677282D01*
X163232859Y-82639539D01*
X163227480Y-82637358D01*
X163222111Y-82635181D01*
X163222101Y-82635177D01*
X163222093Y-82635174D01*
X163152499Y-82611230D01*
X163145740Y-82609151D01*
X163115768Y-82600997D01*
X163110443Y-82599692D01*
X163106587Y-82598851D01*
X163083375Y-82593788D01*
X163083099Y-82593737D01*
X163076176Y-82592473D01*
X163076162Y-82592471D01*
X163076157Y-82592470D01*
X163057111Y-82589659D01*
X163049169Y-82588488D01*
X163042133Y-82587687D01*
X163041003Y-82587596D01*
X163035367Y-82587142D01*
X163012360Y-82585289D01*
X163007238Y-82585000D01*
X162971793Y-82583849D01*
X162969172Y-82583798D01*
X162969166Y-82583797D01*
X162969118Y-82583797D01*
X162933674Y-82583546D01*
X162932152Y-82583546D01*
X162906816Y-82583725D01*
X162891045Y-82583837D01*
X162888889Y-82583880D01*
X162888226Y-82583894D01*
X162854857Y-82585013D01*
X162851951Y-82585178D01*
X162849874Y-82585296D01*
X162821115Y-82587594D01*
X162814737Y-82588295D01*
X162787338Y-82592137D01*
X162781497Y-82593122D01*
X162752432Y-82598847D01*
X162748614Y-82599671D01*
X162714788Y-82607617D01*
X162714746Y-82607626D01*
X162714657Y-82607648D01*
X162713457Y-82607937D01*
X162713449Y-82607939D01*
X162709236Y-82608979D01*
X162705022Y-82610112D01*
X162633301Y-82630962D01*
X162625002Y-82633746D01*
X162558068Y-82659267D01*
X162549754Y-82662845D01*
X162488179Y-82692479D01*
X162479740Y-82697015D01*
X162424108Y-82730195D01*
X162424094Y-82730204D01*
X162415446Y-82735947D01*
X162415426Y-82735962D01*
X162366305Y-82772124D01*
X162366288Y-82772138D01*
X162357360Y-82779484D01*
X162357355Y-82779488D01*
X162357352Y-82779491D01*
X162325642Y-82808588D01*
X162315259Y-82818115D01*
X162306079Y-82827645D01*
X162271633Y-82868126D01*
X162271618Y-82868144D01*
X162262465Y-82880619D01*
X162236193Y-82922433D01*
X162227813Y-82938704D01*
X162227802Y-82938727D01*
X162210285Y-82981292D01*
X162210281Y-82981303D01*
X162204125Y-83001926D01*
X162204123Y-83001937D01*
X162197400Y-83036967D01*
X162195909Y-83044733D01*
X162195352Y-83052128D01*
X162194064Y-83069209D01*
X162007849Y-83069209D01*
X162007849Y-82344035D01*
X162007849Y-82344033D01*
X162007849Y-82344031D01*
X162007848Y-82344029D01*
X162002589Y-82310820D01*
X162002587Y-82310814D01*
X161963536Y-82257066D01*
X161963535Y-82257065D01*
X161900350Y-82236535D01*
X161900349Y-82236535D01*
X156899651Y-82236535D01*
X156899645Y-82236535D01*
X156866436Y-82241794D01*
X156866430Y-82241796D01*
X156812682Y-82280847D01*
X156812681Y-82280848D01*
X156792151Y-82344033D01*
X140600500Y-82344033D01*
X140600500Y-71682972D01*
X156179775Y-71682972D01*
X156183558Y-71692453D01*
X156194886Y-71720845D01*
X156223340Y-71750054D01*
X156251348Y-71762087D01*
X156251351Y-71762087D01*
X156251352Y-71762088D01*
X157066130Y-71935273D01*
X157066135Y-71935274D01*
X157096617Y-71935674D01*
X157134491Y-71920564D01*
X157163700Y-71892110D01*
X157175733Y-71864102D01*
X157175874Y-71863441D01*
X157491505Y-70378507D01*
X157491505Y-70378506D01*
X157491506Y-70378502D01*
X157491907Y-70348020D01*
X157476796Y-70310145D01*
X157448342Y-70280936D01*
X157448139Y-70280849D01*
X157420329Y-70268901D01*
X156605551Y-70095716D01*
X156605554Y-70095716D01*
X156581838Y-70095404D01*
X156575065Y-70095316D01*
X156575064Y-70095316D01*
X156575063Y-70095316D01*
X156537190Y-70110426D01*
X156507981Y-70138880D01*
X156495947Y-70166891D01*
X156180176Y-71652482D01*
X156179775Y-71682972D01*
X140600500Y-71682972D01*
X140600500Y-70802499D01*
X140615145Y-70767144D01*
X140650500Y-70752499D01*
X141410092Y-70752499D01*
X141410094Y-70752499D01*
X141439993Y-70746553D01*
X141473898Y-70723898D01*
X141496553Y-70689993D01*
X141502500Y-70660095D01*
X141502499Y-69739906D01*
X141502499Y-69739905D01*
X141697500Y-69739905D01*
X141697500Y-69739906D01*
X141697500Y-69739908D01*
X141697500Y-70660091D01*
X141697501Y-70660094D01*
X141703447Y-70689993D01*
X141726102Y-70723898D01*
X141760007Y-70746553D01*
X141789905Y-70752500D01*
X142610094Y-70752499D01*
X142639993Y-70746553D01*
X142673898Y-70723898D01*
X142696553Y-70689993D01*
X142702500Y-70660095D01*
X142702499Y-69739906D01*
X142696553Y-69710007D01*
X142673898Y-69676102D01*
X142639993Y-69653447D01*
X142610095Y-69647500D01*
X142610090Y-69647500D01*
X141789908Y-69647500D01*
X141789904Y-69647501D01*
X141760006Y-69653447D01*
X141737351Y-69668585D01*
X141726104Y-69676101D01*
X141726101Y-69676103D01*
X141708031Y-69703146D01*
X141703447Y-69710007D01*
X141697500Y-69739905D01*
X141502499Y-69739905D01*
X141496553Y-69710007D01*
X141473898Y-69676102D01*
X141439993Y-69653447D01*
X141410095Y-69647500D01*
X141410090Y-69647500D01*
X140650500Y-69647500D01*
X140615145Y-69632855D01*
X140600500Y-69597500D01*
X140600500Y-69002499D01*
X140615145Y-68967144D01*
X140650500Y-68952499D01*
X141410092Y-68952499D01*
X141410094Y-68952499D01*
X141439993Y-68946553D01*
X141473898Y-68923898D01*
X141496553Y-68889993D01*
X141502500Y-68860095D01*
X141502499Y-68056224D01*
X141517144Y-68020870D01*
X141552499Y-68006225D01*
X141553917Y-68006246D01*
G37*
%TD.AperFunction*%
%TD*%
M02*
