%TF.GenerationSoftware,KiCad,Pcbnew,9.0.3*%
%TF.CreationDate,2025-07-19T19:29:57+01:00*%
%TF.ProjectId,GhostPAW,47686f73-7450-4415-972e-6b696361645f,rev?*%
%TF.SameCoordinates,Original*%
%TF.FileFunction,Legend,Top*%
%TF.FilePolarity,Positive*%
%FSLAX46Y46*%
G04 Gerber Fmt 4.6, Leading zero omitted, Abs format (unit mm)*
G04 Created by KiCad (PCBNEW 9.0.3) date 2025-07-19 19:29:57*
%MOMM*%
%LPD*%
G01*
G04 APERTURE LIST*
%ADD10C,0.150000*%
%ADD11C,0.400000*%
%ADD12C,0.200000*%
%ADD13C,0.160000*%
%ADD14C,0.254000*%
%ADD15C,0.152400*%
%ADD16C,0.508000*%
%ADD17C,0.100000*%
%ADD18C,0.120000*%
%ADD19C,0.000000*%
%ADD20C,0.250000*%
G04 APERTURE END LIST*
D10*
X138155826Y-117247342D02*
X138098684Y-117218771D01*
X138098684Y-117218771D02*
X138012969Y-117218771D01*
X138012969Y-117218771D02*
X137927255Y-117247342D01*
X137927255Y-117247342D02*
X137870112Y-117304485D01*
X137870112Y-117304485D02*
X137841541Y-117361628D01*
X137841541Y-117361628D02*
X137812969Y-117475914D01*
X137812969Y-117475914D02*
X137812969Y-117561628D01*
X137812969Y-117561628D02*
X137841541Y-117675914D01*
X137841541Y-117675914D02*
X137870112Y-117733057D01*
X137870112Y-117733057D02*
X137927255Y-117790200D01*
X137927255Y-117790200D02*
X138012969Y-117818771D01*
X138012969Y-117818771D02*
X138070112Y-117818771D01*
X138070112Y-117818771D02*
X138155826Y-117790200D01*
X138155826Y-117790200D02*
X138184398Y-117761628D01*
X138184398Y-117761628D02*
X138184398Y-117561628D01*
X138184398Y-117561628D02*
X138070112Y-117561628D01*
X138441541Y-117590200D02*
X138898684Y-117590200D01*
D11*
G36*
X143089201Y-91065327D02*
G01*
X143708211Y-91376665D01*
X144352261Y-91673633D01*
X144359130Y-91873319D01*
X144341565Y-92137530D01*
X144292016Y-92480515D01*
X144220737Y-92789036D01*
X144127934Y-93046331D01*
X144016181Y-93259554D01*
X143886824Y-93434774D01*
X143739906Y-93576777D01*
X143572348Y-93686793D01*
X143391509Y-93759499D01*
X143193859Y-93796223D01*
X142974888Y-93795471D01*
X142729411Y-93753017D01*
X142451814Y-93662145D01*
X142158602Y-93523034D01*
X141906513Y-93358060D01*
X141691101Y-93167332D01*
X141509138Y-92949675D01*
X141358743Y-92702682D01*
X141250381Y-92452594D01*
X141177551Y-92193122D01*
X141139693Y-91921970D01*
X141137486Y-91636535D01*
X141172820Y-91333989D01*
X141234330Y-91049264D01*
X141324619Y-90738931D01*
X142585823Y-91124630D01*
X142523322Y-91258550D01*
X142468372Y-91480586D01*
X142453871Y-91681562D01*
X142481194Y-91887689D01*
X142553361Y-92103074D01*
X142644973Y-92272117D01*
X142753598Y-92405954D01*
X142879605Y-92509402D01*
X143025065Y-92585236D01*
X143175751Y-92627904D01*
X143305247Y-92631463D01*
X143419843Y-92601032D01*
X143524582Y-92536226D01*
X143622284Y-92432175D01*
X143691812Y-92302382D01*
X143733053Y-92140888D01*
X143345898Y-92019982D01*
X142939284Y-91915548D01*
X143089201Y-91065327D01*
G37*
G36*
X141931054Y-87236376D02*
G01*
X143482506Y-87950778D01*
X144908550Y-88578894D01*
X144729050Y-89596887D01*
X144071446Y-89357796D01*
X144101477Y-89514502D01*
X144159882Y-89738151D01*
X143890108Y-89743781D01*
X143671461Y-89756938D01*
X144629774Y-90159912D01*
X144431793Y-91282717D01*
X142983586Y-90766576D01*
X142362710Y-90549068D01*
X141402893Y-90231724D01*
X141649415Y-88833630D01*
X143472281Y-89659690D01*
X143526755Y-89394004D01*
X143551384Y-89163604D01*
X141702281Y-88533807D01*
X141931054Y-87236376D01*
G37*
G36*
X143299669Y-84775311D02*
G01*
X143570529Y-84828141D01*
X143879463Y-84931551D01*
X144149009Y-85055160D01*
X144391843Y-85199226D01*
X144610223Y-85363678D01*
X144805945Y-85549000D01*
X144980304Y-85756226D01*
X145138052Y-85999518D01*
X145245201Y-86234997D01*
X145307317Y-86465426D01*
X145327755Y-86693964D01*
X145307491Y-86924014D01*
X145256488Y-87121909D01*
X145181205Y-87288051D01*
X145082713Y-87427323D01*
X144960162Y-87543175D01*
X144810850Y-87637387D01*
X144630419Y-87709929D01*
X144421032Y-87757290D01*
X144197204Y-87772646D01*
X143955757Y-87754191D01*
X143693252Y-87698646D01*
X143406097Y-87601374D01*
X143115244Y-87467332D01*
X142865012Y-87315412D01*
X142651098Y-87146251D01*
X142470008Y-86959690D01*
X142319164Y-86754784D01*
X142202736Y-86539506D01*
X142123468Y-86323046D01*
X142120178Y-86306781D01*
X143448310Y-86306781D01*
X143486914Y-86423507D01*
X143570723Y-86535214D01*
X143712157Y-86644884D01*
X143930259Y-86752226D01*
X144077121Y-86799038D01*
X144217234Y-86820909D01*
X144352519Y-86819613D01*
X144463598Y-86797750D01*
X144536797Y-86760783D01*
X144582604Y-86711215D01*
X144606364Y-86646929D01*
X144602397Y-86553154D01*
X144552833Y-86439829D01*
X144438527Y-86297029D01*
X144313822Y-86183058D01*
X144184971Y-86094387D01*
X144051129Y-86028762D01*
X143854042Y-85966034D01*
X143711968Y-85949733D01*
X143610070Y-85966260D01*
X143536461Y-86008411D01*
X143483758Y-86076681D01*
X143450796Y-86179040D01*
X143448310Y-86306781D01*
X142120178Y-86306781D01*
X142079026Y-86103333D01*
X142068557Y-85877978D01*
X142092720Y-85644380D01*
X142151637Y-85417004D01*
X142237873Y-85230197D01*
X142349839Y-85077375D01*
X142488415Y-84953919D01*
X142656864Y-84857526D01*
X142848179Y-84793953D01*
X143060775Y-84765646D01*
X143299669Y-84775311D01*
G37*
G36*
X144043585Y-82757039D02*
G01*
X143991110Y-82888346D01*
X143969132Y-82969353D01*
X143968752Y-83060317D01*
X144001131Y-83160259D01*
X144075490Y-83263627D01*
X144178589Y-83329009D01*
X144243044Y-83341513D01*
X144363159Y-83336975D01*
X144567580Y-83302363D01*
X144765042Y-83276876D01*
X144937640Y-83287000D01*
X145090569Y-83329105D01*
X145243794Y-83406925D01*
X145375700Y-83509203D01*
X145488616Y-83637652D01*
X145583441Y-83795654D01*
X145649683Y-83958941D01*
X145687564Y-84124327D01*
X145698055Y-84293815D01*
X145680746Y-84469606D01*
X145612802Y-84769734D01*
X145548476Y-84934926D01*
X145238274Y-84877625D01*
X144923521Y-84836634D01*
X145006653Y-84648853D01*
X145033747Y-84560689D01*
X145041834Y-84418510D01*
X145015141Y-84315363D01*
X144958968Y-84239618D01*
X144869461Y-84185374D01*
X144764675Y-84157826D01*
X144665495Y-84159537D01*
X144568107Y-84189714D01*
X144163803Y-84442450D01*
X144002103Y-84524503D01*
X143839557Y-84571141D01*
X143673365Y-84584592D01*
X143500341Y-84564623D01*
X143317156Y-84508561D01*
X143137078Y-84420858D01*
X142984677Y-84313758D01*
X142856751Y-84186971D01*
X142751256Y-84038999D01*
X142667423Y-83867221D01*
X142606572Y-83669581D01*
X142574161Y-83453884D01*
X142571869Y-83216882D01*
X142602651Y-82954963D01*
X142676107Y-82660303D01*
X142804361Y-82326853D01*
X144043585Y-82757039D01*
G37*
G36*
X143267869Y-79654920D02*
G01*
X144493134Y-80205409D01*
X144416085Y-80444050D01*
X144344536Y-80773875D01*
X144889778Y-81035191D01*
X146137500Y-81609171D01*
X145967002Y-82576111D01*
X144709632Y-82138075D01*
X144136747Y-81953357D01*
X144095289Y-82263376D01*
X144076910Y-82565933D01*
X142832687Y-82122961D01*
X143267869Y-79654920D01*
G37*
G36*
X144721258Y-77328552D02*
G01*
X144941278Y-77399073D01*
X145156255Y-77500897D01*
X145343850Y-77622702D01*
X145506853Y-77764569D01*
X145647267Y-77927457D01*
X145766238Y-78113162D01*
X145858944Y-78313271D01*
X145921618Y-78519578D01*
X145955076Y-78733947D01*
X145959039Y-78958511D01*
X145932140Y-79195592D01*
X146517461Y-79454303D01*
X146323680Y-80553295D01*
X144856000Y-80029442D01*
X143297081Y-79494523D01*
X143318552Y-79128824D01*
X143383102Y-78684879D01*
X144747852Y-78684879D01*
X145423226Y-78975094D01*
X145431461Y-78787884D01*
X145402831Y-78640937D01*
X145342709Y-78524484D01*
X145250768Y-78431847D01*
X145121086Y-78360446D01*
X145005580Y-78331169D01*
X144919406Y-78340731D01*
X144851773Y-78382720D01*
X144797231Y-78463131D01*
X144757485Y-78598596D01*
X144747852Y-78684879D01*
X143383102Y-78684879D01*
X143400551Y-78564871D01*
X143468115Y-78265650D01*
X143553202Y-78017759D01*
X143653305Y-77814011D01*
X143766892Y-77648164D01*
X143893498Y-77515096D01*
X144035407Y-77411084D01*
X144186011Y-77341406D01*
X144348020Y-77303790D01*
X144525031Y-77298546D01*
X144721258Y-77328552D01*
G37*
G36*
X145574889Y-75265679D02*
G01*
X147212303Y-75513663D01*
X147019888Y-76604898D01*
X146758970Y-76578236D01*
X146832831Y-76842928D01*
X146982012Y-77184703D01*
X146720623Y-77205017D01*
X146524823Y-77222575D01*
X146867268Y-77470453D01*
X146764110Y-78055488D01*
X145240990Y-77027450D01*
X144533188Y-76583778D01*
X144417619Y-76514969D01*
X145626921Y-76514969D01*
X145964351Y-76796560D01*
X146341129Y-77079696D01*
X146361869Y-76811223D01*
X146346590Y-76517055D01*
X145994945Y-76501738D01*
X145626921Y-76514969D01*
X144417619Y-76514969D01*
X143878161Y-76193781D01*
X144089120Y-74997373D01*
X145574889Y-75265679D01*
G37*
G36*
X144949242Y-70119379D02*
G01*
X146441207Y-71296682D01*
X147781402Y-72286141D01*
X147654801Y-73004130D01*
X146211997Y-72804411D01*
X147516876Y-73786341D01*
X147392025Y-74494408D01*
X145853491Y-74344958D01*
X145208596Y-74306636D01*
X144218520Y-74263509D01*
X144458107Y-72904743D01*
X145106948Y-73005758D01*
X145902354Y-73104716D01*
X145387020Y-72724420D01*
X144506807Y-72628552D01*
X144724732Y-71392637D01*
X145354913Y-71530912D01*
X146142730Y-71694006D01*
X145408103Y-71190224D01*
X144825695Y-70820050D01*
X144949242Y-70119379D01*
G37*
D10*
X139384398Y-113918771D02*
X139527255Y-114518771D01*
X139527255Y-114518771D02*
X139641541Y-114090200D01*
X139641541Y-114090200D02*
X139755826Y-114518771D01*
X139755826Y-114518771D02*
X139898684Y-113918771D01*
X140127255Y-114290200D02*
X140584398Y-114290200D01*
X142841541Y-71404485D02*
X142927255Y-71433057D01*
X142927255Y-71433057D02*
X142955826Y-71461628D01*
X142955826Y-71461628D02*
X142984398Y-71518771D01*
X142984398Y-71518771D02*
X142984398Y-71604485D01*
X142984398Y-71604485D02*
X142955826Y-71661628D01*
X142955826Y-71661628D02*
X142927255Y-71690200D01*
X142927255Y-71690200D02*
X142870112Y-71718771D01*
X142870112Y-71718771D02*
X142641541Y-71718771D01*
X142641541Y-71718771D02*
X142641541Y-71118771D01*
X142641541Y-71118771D02*
X142841541Y-71118771D01*
X142841541Y-71118771D02*
X142898684Y-71147342D01*
X142898684Y-71147342D02*
X142927255Y-71175914D01*
X142927255Y-71175914D02*
X142955826Y-71233057D01*
X142955826Y-71233057D02*
X142955826Y-71290200D01*
X142955826Y-71290200D02*
X142927255Y-71347342D01*
X142927255Y-71347342D02*
X142898684Y-71375914D01*
X142898684Y-71375914D02*
X142841541Y-71404485D01*
X142841541Y-71404485D02*
X142641541Y-71404485D01*
X143155826Y-71118771D02*
X143498684Y-71118771D01*
X143327255Y-71718771D02*
X143327255Y-71118771D01*
X143698684Y-71490200D02*
X144155827Y-71490200D01*
X138941541Y-115804485D02*
X139027255Y-115833057D01*
X139027255Y-115833057D02*
X139055826Y-115861628D01*
X139055826Y-115861628D02*
X139084398Y-115918771D01*
X139084398Y-115918771D02*
X139084398Y-116004485D01*
X139084398Y-116004485D02*
X139055826Y-116061628D01*
X139055826Y-116061628D02*
X139027255Y-116090200D01*
X139027255Y-116090200D02*
X138970112Y-116118771D01*
X138970112Y-116118771D02*
X138741541Y-116118771D01*
X138741541Y-116118771D02*
X138741541Y-115518771D01*
X138741541Y-115518771D02*
X138941541Y-115518771D01*
X138941541Y-115518771D02*
X138998684Y-115547342D01*
X138998684Y-115547342D02*
X139027255Y-115575914D01*
X139027255Y-115575914D02*
X139055826Y-115633057D01*
X139055826Y-115633057D02*
X139055826Y-115690200D01*
X139055826Y-115690200D02*
X139027255Y-115747342D01*
X139027255Y-115747342D02*
X138998684Y-115775914D01*
X138998684Y-115775914D02*
X138941541Y-115804485D01*
X138941541Y-115804485D02*
X138741541Y-115804485D01*
X139341541Y-115890200D02*
X139798684Y-115890200D01*
X142741541Y-70104485D02*
X142827255Y-70133057D01*
X142827255Y-70133057D02*
X142855826Y-70161628D01*
X142855826Y-70161628D02*
X142884398Y-70218771D01*
X142884398Y-70218771D02*
X142884398Y-70304485D01*
X142884398Y-70304485D02*
X142855826Y-70361628D01*
X142855826Y-70361628D02*
X142827255Y-70390200D01*
X142827255Y-70390200D02*
X142770112Y-70418771D01*
X142770112Y-70418771D02*
X142541541Y-70418771D01*
X142541541Y-70418771D02*
X142541541Y-69818771D01*
X142541541Y-69818771D02*
X142741541Y-69818771D01*
X142741541Y-69818771D02*
X142798684Y-69847342D01*
X142798684Y-69847342D02*
X142827255Y-69875914D01*
X142827255Y-69875914D02*
X142855826Y-69933057D01*
X142855826Y-69933057D02*
X142855826Y-69990200D01*
X142855826Y-69990200D02*
X142827255Y-70047342D01*
X142827255Y-70047342D02*
X142798684Y-70075914D01*
X142798684Y-70075914D02*
X142741541Y-70104485D01*
X142741541Y-70104485D02*
X142541541Y-70104485D01*
X143055826Y-69818771D02*
X143398684Y-69818771D01*
X143227255Y-70418771D02*
X143227255Y-69818771D01*
X143598684Y-70190200D02*
X144055827Y-70190200D01*
X143827255Y-70418771D02*
X143827255Y-69961628D01*
X142941541Y-97804485D02*
X142741541Y-97804485D01*
X142741541Y-98118771D02*
X142741541Y-97518771D01*
X142741541Y-97518771D02*
X143027255Y-97518771D01*
X143255827Y-97890200D02*
X143712970Y-97890200D01*
X142612969Y-94790200D02*
X142698684Y-94818771D01*
X142698684Y-94818771D02*
X142841541Y-94818771D01*
X142841541Y-94818771D02*
X142898684Y-94790200D01*
X142898684Y-94790200D02*
X142927255Y-94761628D01*
X142927255Y-94761628D02*
X142955826Y-94704485D01*
X142955826Y-94704485D02*
X142955826Y-94647342D01*
X142955826Y-94647342D02*
X142927255Y-94590200D01*
X142927255Y-94590200D02*
X142898684Y-94561628D01*
X142898684Y-94561628D02*
X142841541Y-94533057D01*
X142841541Y-94533057D02*
X142727255Y-94504485D01*
X142727255Y-94504485D02*
X142670112Y-94475914D01*
X142670112Y-94475914D02*
X142641541Y-94447342D01*
X142641541Y-94447342D02*
X142612969Y-94390200D01*
X142612969Y-94390200D02*
X142612969Y-94333057D01*
X142612969Y-94333057D02*
X142641541Y-94275914D01*
X142641541Y-94275914D02*
X142670112Y-94247342D01*
X142670112Y-94247342D02*
X142727255Y-94218771D01*
X142727255Y-94218771D02*
X142870112Y-94218771D01*
X142870112Y-94218771D02*
X142955826Y-94247342D01*
X143555827Y-94761628D02*
X143527255Y-94790200D01*
X143527255Y-94790200D02*
X143441541Y-94818771D01*
X143441541Y-94818771D02*
X143384398Y-94818771D01*
X143384398Y-94818771D02*
X143298684Y-94790200D01*
X143298684Y-94790200D02*
X143241541Y-94733057D01*
X143241541Y-94733057D02*
X143212970Y-94675914D01*
X143212970Y-94675914D02*
X143184398Y-94561628D01*
X143184398Y-94561628D02*
X143184398Y-94475914D01*
X143184398Y-94475914D02*
X143212970Y-94361628D01*
X143212970Y-94361628D02*
X143241541Y-94304485D01*
X143241541Y-94304485D02*
X143298684Y-94247342D01*
X143298684Y-94247342D02*
X143384398Y-94218771D01*
X143384398Y-94218771D02*
X143441541Y-94218771D01*
X143441541Y-94218771D02*
X143527255Y-94247342D01*
X143527255Y-94247342D02*
X143555827Y-94275914D01*
X144098684Y-94818771D02*
X143812970Y-94818771D01*
X143812970Y-94818771D02*
X143812970Y-94218771D01*
X137484398Y-119318771D02*
X137284398Y-119033057D01*
X137141541Y-119318771D02*
X137141541Y-118718771D01*
X137141541Y-118718771D02*
X137370112Y-118718771D01*
X137370112Y-118718771D02*
X137427255Y-118747342D01*
X137427255Y-118747342D02*
X137455826Y-118775914D01*
X137455826Y-118775914D02*
X137484398Y-118833057D01*
X137484398Y-118833057D02*
X137484398Y-118918771D01*
X137484398Y-118918771D02*
X137455826Y-118975914D01*
X137455826Y-118975914D02*
X137427255Y-119004485D01*
X137427255Y-119004485D02*
X137370112Y-119033057D01*
X137370112Y-119033057D02*
X137141541Y-119033057D01*
X137741541Y-119090200D02*
X138198684Y-119090200D01*
X123455826Y-133247342D02*
X123398684Y-133218771D01*
X123398684Y-133218771D02*
X123312969Y-133218771D01*
X123312969Y-133218771D02*
X123227255Y-133247342D01*
X123227255Y-133247342D02*
X123170112Y-133304485D01*
X123170112Y-133304485D02*
X123141541Y-133361628D01*
X123141541Y-133361628D02*
X123112969Y-133475914D01*
X123112969Y-133475914D02*
X123112969Y-133561628D01*
X123112969Y-133561628D02*
X123141541Y-133675914D01*
X123141541Y-133675914D02*
X123170112Y-133733057D01*
X123170112Y-133733057D02*
X123227255Y-133790200D01*
X123227255Y-133790200D02*
X123312969Y-133818771D01*
X123312969Y-133818771D02*
X123370112Y-133818771D01*
X123370112Y-133818771D02*
X123455826Y-133790200D01*
X123455826Y-133790200D02*
X123484398Y-133761628D01*
X123484398Y-133761628D02*
X123484398Y-133561628D01*
X123484398Y-133561628D02*
X123370112Y-133561628D01*
X123741541Y-133818771D02*
X123741541Y-133218771D01*
X123741541Y-133218771D02*
X124084398Y-133818771D01*
X124084398Y-133818771D02*
X124084398Y-133218771D01*
X124370112Y-133818771D02*
X124370112Y-133218771D01*
X124370112Y-133218771D02*
X124512969Y-133218771D01*
X124512969Y-133218771D02*
X124598683Y-133247342D01*
X124598683Y-133247342D02*
X124655826Y-133304485D01*
X124655826Y-133304485D02*
X124684397Y-133361628D01*
X124684397Y-133361628D02*
X124712969Y-133475914D01*
X124712969Y-133475914D02*
X124712969Y-133561628D01*
X124712969Y-133561628D02*
X124684397Y-133675914D01*
X124684397Y-133675914D02*
X124655826Y-133733057D01*
X124655826Y-133733057D02*
X124598683Y-133790200D01*
X124598683Y-133790200D02*
X124512969Y-133818771D01*
X124512969Y-133818771D02*
X124370112Y-133818771D01*
X141755826Y-109847342D02*
X141698684Y-109818771D01*
X141698684Y-109818771D02*
X141612969Y-109818771D01*
X141612969Y-109818771D02*
X141527255Y-109847342D01*
X141527255Y-109847342D02*
X141470112Y-109904485D01*
X141470112Y-109904485D02*
X141441541Y-109961628D01*
X141441541Y-109961628D02*
X141412969Y-110075914D01*
X141412969Y-110075914D02*
X141412969Y-110161628D01*
X141412969Y-110161628D02*
X141441541Y-110275914D01*
X141441541Y-110275914D02*
X141470112Y-110333057D01*
X141470112Y-110333057D02*
X141527255Y-110390200D01*
X141527255Y-110390200D02*
X141612969Y-110418771D01*
X141612969Y-110418771D02*
X141670112Y-110418771D01*
X141670112Y-110418771D02*
X141755826Y-110390200D01*
X141755826Y-110390200D02*
X141784398Y-110361628D01*
X141784398Y-110361628D02*
X141784398Y-110161628D01*
X141784398Y-110161628D02*
X141670112Y-110161628D01*
X142041541Y-110418771D02*
X142041541Y-109818771D01*
X142041541Y-109818771D02*
X142384398Y-110418771D01*
X142384398Y-110418771D02*
X142384398Y-109818771D01*
X142670112Y-110418771D02*
X142670112Y-109818771D01*
X142670112Y-109818771D02*
X142812969Y-109818771D01*
X142812969Y-109818771D02*
X142898683Y-109847342D01*
X142898683Y-109847342D02*
X142955826Y-109904485D01*
X142955826Y-109904485D02*
X142984397Y-109961628D01*
X142984397Y-109961628D02*
X143012969Y-110075914D01*
X143012969Y-110075914D02*
X143012969Y-110161628D01*
X143012969Y-110161628D02*
X142984397Y-110275914D01*
X142984397Y-110275914D02*
X142955826Y-110333057D01*
X142955826Y-110333057D02*
X142898683Y-110390200D01*
X142898683Y-110390200D02*
X142812969Y-110418771D01*
X142812969Y-110418771D02*
X142670112Y-110418771D01*
X142641541Y-73318771D02*
X142641541Y-72718771D01*
X142641541Y-72718771D02*
X142784398Y-72718771D01*
X142784398Y-72718771D02*
X142870112Y-72747342D01*
X142870112Y-72747342D02*
X142927255Y-72804485D01*
X142927255Y-72804485D02*
X142955826Y-72861628D01*
X142955826Y-72861628D02*
X142984398Y-72975914D01*
X142984398Y-72975914D02*
X142984398Y-73061628D01*
X142984398Y-73061628D02*
X142955826Y-73175914D01*
X142955826Y-73175914D02*
X142927255Y-73233057D01*
X142927255Y-73233057D02*
X142870112Y-73290200D01*
X142870112Y-73290200D02*
X142784398Y-73318771D01*
X142784398Y-73318771D02*
X142641541Y-73318771D01*
X143241541Y-73090200D02*
X143698684Y-73090200D01*
X143470112Y-73318771D02*
X143470112Y-72861628D01*
X123641541Y-128818771D02*
X123641541Y-128218771D01*
X123641541Y-128218771D02*
X123784398Y-128218771D01*
X123784398Y-128218771D02*
X123870112Y-128247342D01*
X123870112Y-128247342D02*
X123927255Y-128304485D01*
X123927255Y-128304485D02*
X123955826Y-128361628D01*
X123955826Y-128361628D02*
X123984398Y-128475914D01*
X123984398Y-128475914D02*
X123984398Y-128561628D01*
X123984398Y-128561628D02*
X123955826Y-128675914D01*
X123955826Y-128675914D02*
X123927255Y-128733057D01*
X123927255Y-128733057D02*
X123870112Y-128790200D01*
X123870112Y-128790200D02*
X123784398Y-128818771D01*
X123784398Y-128818771D02*
X123641541Y-128818771D01*
X124241541Y-128590200D02*
X124698684Y-128590200D01*
X124470112Y-128818771D02*
X124470112Y-128361628D01*
D12*
X185568460Y-112484470D02*
X185608335Y-111723609D01*
X185556217Y-110898322D02*
X185066350Y-111146834D01*
X185526311Y-111468967D02*
X184534224Y-111291802D01*
X184534224Y-111291802D02*
X184554161Y-110911372D01*
X184554161Y-110911372D02*
X184606388Y-110824701D01*
X184606388Y-110824701D02*
X184656122Y-110785584D01*
X184656122Y-110785584D02*
X184753099Y-110754903D01*
X184753099Y-110754903D02*
X184894826Y-110780212D01*
X184894826Y-110780212D02*
X184986818Y-110844638D01*
X184986818Y-110844638D02*
X185031568Y-110900629D01*
X185031568Y-110900629D02*
X185073826Y-111004173D01*
X185073826Y-111004173D02*
X185053889Y-111384603D01*
X185586124Y-110327676D02*
X185533897Y-110414347D01*
X185533897Y-110414347D02*
X185484163Y-110453465D01*
X185484163Y-110453465D02*
X185387186Y-110484146D01*
X185387186Y-110484146D02*
X185103732Y-110433527D01*
X185103732Y-110433527D02*
X185011740Y-110369101D01*
X185011740Y-110369101D02*
X184966990Y-110313110D01*
X184966990Y-110313110D02*
X184924732Y-110209566D01*
X184924732Y-110209566D02*
X184932209Y-110066905D01*
X184932209Y-110066905D02*
X184984435Y-109980234D01*
X184984435Y-109980234D02*
X185034170Y-109941116D01*
X185034170Y-109941116D02*
X185131146Y-109910436D01*
X185131146Y-109910436D02*
X185414600Y-109961054D01*
X185414600Y-109961054D02*
X185506592Y-110025481D01*
X185506592Y-110025481D02*
X185551342Y-110081471D01*
X185551342Y-110081471D02*
X185593600Y-110185015D01*
X185593600Y-110185015D02*
X185586124Y-110327676D01*
X185576264Y-109605933D02*
X185628491Y-109519262D01*
X185628491Y-109519262D02*
X185638460Y-109329047D01*
X185638460Y-109329047D02*
X185596202Y-109225503D01*
X185596202Y-109225503D02*
X185504209Y-109161076D01*
X185504209Y-109161076D02*
X185456967Y-109152640D01*
X185456967Y-109152640D02*
X185359991Y-109183320D01*
X185359991Y-109183320D02*
X185307764Y-109269992D01*
X185307764Y-109269992D02*
X185300287Y-109412653D01*
X185300287Y-109412653D02*
X185248061Y-109499324D01*
X185248061Y-109499324D02*
X185151084Y-109530005D01*
X185151084Y-109530005D02*
X185103842Y-109521569D01*
X185103842Y-109521569D02*
X185011849Y-109457142D01*
X185011849Y-109457142D02*
X184969591Y-109353598D01*
X184969591Y-109353598D02*
X184977068Y-109210937D01*
X184977068Y-109210937D02*
X185029295Y-109124266D01*
X185641061Y-108369534D02*
X185683319Y-108473078D01*
X185683319Y-108473078D02*
X185673350Y-108663293D01*
X185673350Y-108663293D02*
X185621124Y-108749964D01*
X185621124Y-108749964D02*
X185524147Y-108780645D01*
X185524147Y-108780645D02*
X185146209Y-108713154D01*
X185146209Y-108713154D02*
X185054217Y-108648728D01*
X185054217Y-108648728D02*
X185011959Y-108545184D01*
X185011959Y-108545184D02*
X185021927Y-108354968D01*
X185021927Y-108354968D02*
X185074154Y-108268297D01*
X185074154Y-108268297D02*
X185171131Y-108237616D01*
X185171131Y-108237616D02*
X185265615Y-108254489D01*
X185265615Y-108254489D02*
X185335178Y-108746900D01*
X185713225Y-107902433D02*
X184721138Y-107725268D01*
X184721138Y-107725268D02*
X184733599Y-107487499D01*
X184733599Y-107487499D02*
X184788318Y-107353274D01*
X184788318Y-107353274D02*
X184887787Y-107275039D01*
X184887787Y-107275039D02*
X184984763Y-107244358D01*
X184984763Y-107244358D02*
X185176224Y-107230550D01*
X185176224Y-107230550D02*
X185317951Y-107255859D01*
X185317951Y-107255859D02*
X185504428Y-107337159D01*
X185504428Y-107337159D02*
X185596420Y-107401585D01*
X185596420Y-107401585D02*
X185685921Y-107513566D01*
X185685921Y-107513566D02*
X185725686Y-107664664D01*
X185725686Y-107664664D02*
X185713225Y-107902433D01*
X185787991Y-106475819D02*
X185268326Y-106383018D01*
X185268326Y-106383018D02*
X185171349Y-106413699D01*
X185171349Y-106413699D02*
X185119123Y-106500371D01*
X185119123Y-106500371D02*
X185109154Y-106690586D01*
X185109154Y-106690586D02*
X185151412Y-106794130D01*
X185740749Y-106467383D02*
X185783007Y-106570927D01*
X185783007Y-106570927D02*
X185770546Y-106808695D01*
X185770546Y-106808695D02*
X185718319Y-106895367D01*
X185718319Y-106895367D02*
X185621342Y-106926048D01*
X185621342Y-106926048D02*
X185526858Y-106909175D01*
X185526858Y-106909175D02*
X185434865Y-106844748D01*
X185434865Y-106844748D02*
X185392608Y-106741204D01*
X185392608Y-106741204D02*
X185405069Y-106503435D01*
X185405069Y-106503435D02*
X185362811Y-106399891D01*
X185173951Y-105454187D02*
X185977069Y-105597606D01*
X185977069Y-105597606D02*
X186069062Y-105662033D01*
X186069062Y-105662033D02*
X186113812Y-105718023D01*
X186113812Y-105718023D02*
X186156070Y-105821567D01*
X186156070Y-105821567D02*
X186148593Y-105964228D01*
X186148593Y-105964228D02*
X186096367Y-106050899D01*
X185788100Y-105563860D02*
X185830358Y-105667404D01*
X185830358Y-105667404D02*
X185820389Y-105857620D01*
X185820389Y-105857620D02*
X185768163Y-105944291D01*
X185768163Y-105944291D02*
X185718428Y-105983408D01*
X185718428Y-105983408D02*
X185621452Y-106014089D01*
X185621452Y-106014089D02*
X185337998Y-105963471D01*
X185337998Y-105963471D02*
X185246006Y-105899044D01*
X185246006Y-105899044D02*
X185201256Y-105843054D01*
X185201256Y-105843054D02*
X185158998Y-105739510D01*
X185158998Y-105739510D02*
X185168967Y-105549295D01*
X185168967Y-105549295D02*
X185221193Y-105462624D01*
X185221303Y-104550665D02*
X186024421Y-104694084D01*
X186024421Y-104694084D02*
X186116413Y-104758511D01*
X186116413Y-104758511D02*
X186161163Y-104814501D01*
X186161163Y-104814501D02*
X186203421Y-104918045D01*
X186203421Y-104918045D02*
X186195945Y-105060706D01*
X186195945Y-105060706D02*
X186143718Y-105147377D01*
X185835452Y-104660338D02*
X185877710Y-104763882D01*
X185877710Y-104763882D02*
X185867741Y-104954098D01*
X185867741Y-104954098D02*
X185815514Y-105040769D01*
X185815514Y-105040769D02*
X185765780Y-105079886D01*
X185765780Y-105079886D02*
X185668803Y-105110567D01*
X185668803Y-105110567D02*
X185385350Y-105059949D01*
X185385350Y-105059949D02*
X185293357Y-104995522D01*
X185293357Y-104995522D02*
X185248607Y-104939532D01*
X185248607Y-104939532D02*
X185206349Y-104835988D01*
X185206349Y-104835988D02*
X185216318Y-104645773D01*
X185216318Y-104645773D02*
X185268545Y-104559101D01*
X185880311Y-103804370D02*
X185922569Y-103907914D01*
X185922569Y-103907914D02*
X185912600Y-104098129D01*
X185912600Y-104098129D02*
X185860374Y-104184800D01*
X185860374Y-104184800D02*
X185763397Y-104215481D01*
X185763397Y-104215481D02*
X185385459Y-104147990D01*
X185385459Y-104147990D02*
X185293467Y-104083564D01*
X185293467Y-104083564D02*
X185251209Y-103980020D01*
X185251209Y-103980020D02*
X185261178Y-103789804D01*
X185261178Y-103789804D02*
X185313404Y-103703133D01*
X185313404Y-103703133D02*
X185410381Y-103672452D01*
X185410381Y-103672452D02*
X185504865Y-103689325D01*
X185504865Y-103689325D02*
X185574428Y-104181736D01*
X185952475Y-103337269D02*
X185291084Y-103219159D01*
X185480053Y-103252904D02*
X185388061Y-103188478D01*
X185388061Y-103188478D02*
X185343310Y-103132488D01*
X185343310Y-103132488D02*
X185301053Y-103028944D01*
X185301053Y-103028944D02*
X185306037Y-102933836D01*
X185124654Y-101845470D02*
X185079904Y-101789480D01*
X185079904Y-101789480D02*
X185037646Y-101685936D01*
X185037646Y-101685936D02*
X185050107Y-101448167D01*
X185050107Y-101448167D02*
X185102333Y-101361496D01*
X185102333Y-101361496D02*
X185152068Y-101322378D01*
X185152068Y-101322378D02*
X185249045Y-101291697D01*
X185249045Y-101291697D02*
X185343529Y-101308570D01*
X185343529Y-101308570D02*
X185482764Y-101381433D01*
X185482764Y-101381433D02*
X186019765Y-102053316D01*
X186019765Y-102053316D02*
X186052163Y-101435116D01*
X185092474Y-100639753D02*
X185097458Y-100544645D01*
X185097458Y-100544645D02*
X185149685Y-100457974D01*
X185149685Y-100457974D02*
X185199419Y-100418856D01*
X185199419Y-100418856D02*
X185296396Y-100388175D01*
X185296396Y-100388175D02*
X185487857Y-100374367D01*
X185487857Y-100374367D02*
X185724069Y-100416549D01*
X185724069Y-100416549D02*
X185910546Y-100497849D01*
X185910546Y-100497849D02*
X186002538Y-100562275D01*
X186002538Y-100562275D02*
X186047288Y-100618266D01*
X186047288Y-100618266D02*
X186089546Y-100721810D01*
X186089546Y-100721810D02*
X186084562Y-100816917D01*
X186084562Y-100816917D02*
X186032335Y-100903588D01*
X186032335Y-100903588D02*
X185982600Y-100942706D01*
X185982600Y-100942706D02*
X185885624Y-100973387D01*
X185885624Y-100973387D02*
X185694162Y-100987195D01*
X185694162Y-100987195D02*
X185457951Y-100945013D01*
X185457951Y-100945013D02*
X185271474Y-100863713D01*
X185271474Y-100863713D02*
X185179482Y-100799287D01*
X185179482Y-100799287D02*
X185134732Y-100743297D01*
X185134732Y-100743297D02*
X185092474Y-100639753D01*
X185224341Y-99943318D02*
X185179591Y-99887328D01*
X185179591Y-99887328D02*
X185137333Y-99783784D01*
X185137333Y-99783784D02*
X185149794Y-99546015D01*
X185149794Y-99546015D02*
X185202021Y-99459344D01*
X185202021Y-99459344D02*
X185251755Y-99420227D01*
X185251755Y-99420227D02*
X185348732Y-99389546D01*
X185348732Y-99389546D02*
X185443217Y-99406419D01*
X185443217Y-99406419D02*
X185582451Y-99479282D01*
X185582451Y-99479282D02*
X186119452Y-100151164D01*
X186119452Y-100151164D02*
X186151851Y-99532965D01*
X185207115Y-98452278D02*
X185182193Y-98927816D01*
X185182193Y-98927816D02*
X185652123Y-99059734D01*
X185652123Y-99059734D02*
X185607373Y-99003744D01*
X185607373Y-99003744D02*
X185565115Y-98900200D01*
X185565115Y-98900200D02*
X185577576Y-98662431D01*
X185577576Y-98662431D02*
X185629803Y-98575760D01*
X185629803Y-98575760D02*
X185679537Y-98536642D01*
X185679537Y-98536642D02*
X185776514Y-98505961D01*
X185776514Y-98505961D02*
X186012725Y-98548143D01*
X186012725Y-98548143D02*
X186104718Y-98612570D01*
X186104718Y-98612570D02*
X186149468Y-98668560D01*
X186149468Y-98668560D02*
X186191726Y-98772104D01*
X186191726Y-98772104D02*
X186179265Y-99009873D01*
X186179265Y-99009873D02*
X186127038Y-99096544D01*
X186127038Y-99096544D02*
X186077304Y-99135662D01*
D10*
X123184398Y-129718771D02*
X123555826Y-129718771D01*
X123555826Y-129718771D02*
X123355826Y-129947342D01*
X123355826Y-129947342D02*
X123441541Y-129947342D01*
X123441541Y-129947342D02*
X123498684Y-129975914D01*
X123498684Y-129975914D02*
X123527255Y-130004485D01*
X123527255Y-130004485D02*
X123555826Y-130061628D01*
X123555826Y-130061628D02*
X123555826Y-130204485D01*
X123555826Y-130204485D02*
X123527255Y-130261628D01*
X123527255Y-130261628D02*
X123498684Y-130290200D01*
X123498684Y-130290200D02*
X123441541Y-130318771D01*
X123441541Y-130318771D02*
X123270112Y-130318771D01*
X123270112Y-130318771D02*
X123212969Y-130290200D01*
X123212969Y-130290200D02*
X123184398Y-130261628D01*
X123812970Y-130261628D02*
X123841541Y-130290200D01*
X123841541Y-130290200D02*
X123812970Y-130318771D01*
X123812970Y-130318771D02*
X123784398Y-130290200D01*
X123784398Y-130290200D02*
X123812970Y-130261628D01*
X123812970Y-130261628D02*
X123812970Y-130318771D01*
X124041541Y-129718771D02*
X124412969Y-129718771D01*
X124412969Y-129718771D02*
X124212969Y-129947342D01*
X124212969Y-129947342D02*
X124298684Y-129947342D01*
X124298684Y-129947342D02*
X124355827Y-129975914D01*
X124355827Y-129975914D02*
X124384398Y-130004485D01*
X124384398Y-130004485D02*
X124412969Y-130061628D01*
X124412969Y-130061628D02*
X124412969Y-130204485D01*
X124412969Y-130204485D02*
X124384398Y-130261628D01*
X124384398Y-130261628D02*
X124355827Y-130290200D01*
X124355827Y-130290200D02*
X124298684Y-130318771D01*
X124298684Y-130318771D02*
X124127255Y-130318771D01*
X124127255Y-130318771D02*
X124070112Y-130290200D01*
X124070112Y-130290200D02*
X124041541Y-130261628D01*
X124584398Y-129718771D02*
X124784398Y-130318771D01*
X124784398Y-130318771D02*
X124984398Y-129718771D01*
X142941541Y-101204485D02*
X142741541Y-101204485D01*
X142741541Y-101518771D02*
X142741541Y-100918771D01*
X142741541Y-100918771D02*
X143027255Y-100918771D01*
X143170112Y-100918771D02*
X143512970Y-100918771D01*
X143341541Y-101518771D02*
X143341541Y-100918771D01*
X123641541Y-127018771D02*
X123641541Y-126418771D01*
X123641541Y-126418771D02*
X123784398Y-126418771D01*
X123784398Y-126418771D02*
X123870112Y-126447342D01*
X123870112Y-126447342D02*
X123927255Y-126504485D01*
X123927255Y-126504485D02*
X123955826Y-126561628D01*
X123955826Y-126561628D02*
X123984398Y-126675914D01*
X123984398Y-126675914D02*
X123984398Y-126761628D01*
X123984398Y-126761628D02*
X123955826Y-126875914D01*
X123955826Y-126875914D02*
X123927255Y-126933057D01*
X123927255Y-126933057D02*
X123870112Y-126990200D01*
X123870112Y-126990200D02*
X123784398Y-127018771D01*
X123784398Y-127018771D02*
X123641541Y-127018771D01*
X124241541Y-126790200D02*
X124698684Y-126790200D01*
X142712969Y-96490200D02*
X142798684Y-96518771D01*
X142798684Y-96518771D02*
X142941541Y-96518771D01*
X142941541Y-96518771D02*
X142998684Y-96490200D01*
X142998684Y-96490200D02*
X143027255Y-96461628D01*
X143027255Y-96461628D02*
X143055826Y-96404485D01*
X143055826Y-96404485D02*
X143055826Y-96347342D01*
X143055826Y-96347342D02*
X143027255Y-96290200D01*
X143027255Y-96290200D02*
X142998684Y-96261628D01*
X142998684Y-96261628D02*
X142941541Y-96233057D01*
X142941541Y-96233057D02*
X142827255Y-96204485D01*
X142827255Y-96204485D02*
X142770112Y-96175914D01*
X142770112Y-96175914D02*
X142741541Y-96147342D01*
X142741541Y-96147342D02*
X142712969Y-96090200D01*
X142712969Y-96090200D02*
X142712969Y-96033057D01*
X142712969Y-96033057D02*
X142741541Y-95975914D01*
X142741541Y-95975914D02*
X142770112Y-95947342D01*
X142770112Y-95947342D02*
X142827255Y-95918771D01*
X142827255Y-95918771D02*
X142970112Y-95918771D01*
X142970112Y-95918771D02*
X143055826Y-95947342D01*
X143312970Y-96518771D02*
X143312970Y-95918771D01*
X143312970Y-95918771D02*
X143455827Y-95918771D01*
X143455827Y-95918771D02*
X143541541Y-95947342D01*
X143541541Y-95947342D02*
X143598684Y-96004485D01*
X143598684Y-96004485D02*
X143627255Y-96061628D01*
X143627255Y-96061628D02*
X143655827Y-96175914D01*
X143655827Y-96175914D02*
X143655827Y-96261628D01*
X143655827Y-96261628D02*
X143627255Y-96375914D01*
X143627255Y-96375914D02*
X143598684Y-96433057D01*
X143598684Y-96433057D02*
X143541541Y-96490200D01*
X143541541Y-96490200D02*
X143455827Y-96518771D01*
X143455827Y-96518771D02*
X143312970Y-96518771D01*
X143884398Y-96347342D02*
X144170113Y-96347342D01*
X143827255Y-96518771D02*
X144027255Y-95918771D01*
X144027255Y-95918771D02*
X144227255Y-96518771D01*
X142741541Y-75118771D02*
X142741541Y-74518771D01*
X142741541Y-74518771D02*
X142884398Y-74518771D01*
X142884398Y-74518771D02*
X142970112Y-74547342D01*
X142970112Y-74547342D02*
X143027255Y-74604485D01*
X143027255Y-74604485D02*
X143055826Y-74661628D01*
X143055826Y-74661628D02*
X143084398Y-74775914D01*
X143084398Y-74775914D02*
X143084398Y-74861628D01*
X143084398Y-74861628D02*
X143055826Y-74975914D01*
X143055826Y-74975914D02*
X143027255Y-75033057D01*
X143027255Y-75033057D02*
X142970112Y-75090200D01*
X142970112Y-75090200D02*
X142884398Y-75118771D01*
X142884398Y-75118771D02*
X142741541Y-75118771D01*
X143341541Y-74890200D02*
X143798684Y-74890200D01*
X134427255Y-122318771D02*
X134141541Y-122318771D01*
X134141541Y-122318771D02*
X134141541Y-121718771D01*
X134627255Y-122004485D02*
X134827255Y-122004485D01*
X134912969Y-122318771D02*
X134627255Y-122318771D01*
X134627255Y-122318771D02*
X134627255Y-121718771D01*
X134627255Y-121718771D02*
X134912969Y-121718771D01*
X135170112Y-122318771D02*
X135170112Y-121718771D01*
X135170112Y-121718771D02*
X135312969Y-121718771D01*
X135312969Y-121718771D02*
X135398683Y-121747342D01*
X135398683Y-121747342D02*
X135455826Y-121804485D01*
X135455826Y-121804485D02*
X135484397Y-121861628D01*
X135484397Y-121861628D02*
X135512969Y-121975914D01*
X135512969Y-121975914D02*
X135512969Y-122061628D01*
X135512969Y-122061628D02*
X135484397Y-122175914D01*
X135484397Y-122175914D02*
X135455826Y-122233057D01*
X135455826Y-122233057D02*
X135398683Y-122290200D01*
X135398683Y-122290200D02*
X135312969Y-122318771D01*
X135312969Y-122318771D02*
X135170112Y-122318771D01*
X135770112Y-122090200D02*
X136227255Y-122090200D01*
X135998683Y-122318771D02*
X135998683Y-121861628D01*
X142941541Y-104804485D02*
X143027255Y-104833057D01*
X143027255Y-104833057D02*
X143055826Y-104861628D01*
X143055826Y-104861628D02*
X143084398Y-104918771D01*
X143084398Y-104918771D02*
X143084398Y-105004485D01*
X143084398Y-105004485D02*
X143055826Y-105061628D01*
X143055826Y-105061628D02*
X143027255Y-105090200D01*
X143027255Y-105090200D02*
X142970112Y-105118771D01*
X142970112Y-105118771D02*
X142741541Y-105118771D01*
X142741541Y-105118771D02*
X142741541Y-104518771D01*
X142741541Y-104518771D02*
X142941541Y-104518771D01*
X142941541Y-104518771D02*
X142998684Y-104547342D01*
X142998684Y-104547342D02*
X143027255Y-104575914D01*
X143027255Y-104575914D02*
X143055826Y-104633057D01*
X143055826Y-104633057D02*
X143055826Y-104690200D01*
X143055826Y-104690200D02*
X143027255Y-104747342D01*
X143027255Y-104747342D02*
X142998684Y-104775914D01*
X142998684Y-104775914D02*
X142941541Y-104804485D01*
X142941541Y-104804485D02*
X142741541Y-104804485D01*
X143255826Y-104518771D02*
X143598684Y-104518771D01*
X143427255Y-105118771D02*
X143427255Y-104518771D01*
X143798684Y-105118771D02*
X143798684Y-104518771D01*
X143798684Y-104518771D02*
X144141541Y-105118771D01*
X144141541Y-105118771D02*
X144141541Y-104518771D01*
D13*
X170198419Y-127019826D02*
X170309986Y-126988211D01*
X170309986Y-126988211D02*
X170359142Y-127000298D01*
X170359142Y-127000298D02*
X170426247Y-127046321D01*
X170426247Y-127046321D02*
X170480096Y-127148133D01*
X170480096Y-127148133D02*
X170484790Y-127237857D01*
X170484790Y-127237857D02*
X170471534Y-127293645D01*
X170471534Y-127293645D02*
X170427072Y-127371283D01*
X170427072Y-127371283D02*
X170177426Y-127546088D01*
X170177426Y-127546088D02*
X169800480Y-126833408D01*
X169800480Y-126833408D02*
X170018921Y-126680455D01*
X170018921Y-126680455D02*
X170099282Y-126670691D01*
X170099282Y-126670691D02*
X170148438Y-126682777D01*
X170148438Y-126682777D02*
X170215543Y-126728801D01*
X170215543Y-126728801D02*
X170251443Y-126796675D01*
X170251443Y-126796675D02*
X170256137Y-126886400D01*
X170256137Y-126886400D02*
X170242881Y-126942187D01*
X170242881Y-126942187D02*
X170198419Y-127019826D01*
X170198419Y-127019826D02*
X169979978Y-127172779D01*
X170832748Y-127087226D02*
X170581450Y-126612107D01*
X170455802Y-126374547D02*
X170442546Y-126430335D01*
X170442546Y-126430335D02*
X170491701Y-126442421D01*
X170491701Y-126442421D02*
X170504957Y-126386634D01*
X170504957Y-126386634D02*
X170455802Y-126374547D01*
X170455802Y-126374547D02*
X170491701Y-126442421D01*
X170799891Y-126459153D02*
X171049537Y-126284349D01*
X170767859Y-126156042D02*
X171090956Y-126766910D01*
X171090956Y-126766910D02*
X171158061Y-126812934D01*
X171158061Y-126812934D02*
X171238423Y-126803170D01*
X171238423Y-126803170D02*
X171300834Y-126759469D01*
X171540268Y-126080253D02*
X171651835Y-126048638D01*
X171651835Y-126048638D02*
X171700990Y-126060725D01*
X171700990Y-126060725D02*
X171768096Y-126106749D01*
X171768096Y-126106749D02*
X171821945Y-126208560D01*
X171821945Y-126208560D02*
X171826639Y-126298285D01*
X171826639Y-126298285D02*
X171813383Y-126354072D01*
X171813383Y-126354072D02*
X171768921Y-126431711D01*
X171768921Y-126431711D02*
X171519275Y-126606515D01*
X171519275Y-126606515D02*
X171142329Y-125893836D01*
X171142329Y-125893836D02*
X171360770Y-125740882D01*
X171360770Y-125740882D02*
X171441131Y-125731118D01*
X171441131Y-125731118D02*
X171490287Y-125743204D01*
X171490287Y-125743204D02*
X171557392Y-125789228D01*
X171557392Y-125789228D02*
X171593292Y-125857102D01*
X171593292Y-125857102D02*
X171597985Y-125946827D01*
X171597985Y-125946827D02*
X171584729Y-126002615D01*
X171584729Y-126002615D02*
X171540268Y-126080253D01*
X171540268Y-126080253D02*
X171321827Y-126233207D01*
X172204151Y-125475879D02*
X172455449Y-125950999D01*
X171923299Y-125672534D02*
X172120747Y-126045842D01*
X172120747Y-126045842D02*
X172187853Y-126091866D01*
X172187853Y-126091866D02*
X172268214Y-126082102D01*
X172268214Y-126082102D02*
X172361831Y-126016551D01*
X172361831Y-126016551D02*
X172406293Y-125938912D01*
X172406293Y-125938912D02*
X172419549Y-125883125D01*
X172767507Y-125732493D02*
X172516210Y-125257374D01*
X172390561Y-125019814D02*
X172377305Y-125075602D01*
X172377305Y-125075602D02*
X172426461Y-125087688D01*
X172426461Y-125087688D02*
X172439717Y-125031901D01*
X172439717Y-125031901D02*
X172390561Y-125019814D01*
X172390561Y-125019814D02*
X172426461Y-125087688D01*
X173173182Y-125448437D02*
X173092821Y-125458201D01*
X173092821Y-125458201D02*
X173025715Y-125412177D01*
X173025715Y-125412177D02*
X172702619Y-124801309D01*
X173077914Y-124864064D02*
X173327560Y-124689260D01*
X173045883Y-124560953D02*
X173368979Y-125171821D01*
X173368979Y-125171821D02*
X173436085Y-125217845D01*
X173436085Y-125217845D02*
X173516446Y-125208081D01*
X173516446Y-125208081D02*
X173578858Y-125164380D01*
X173761399Y-124943552D02*
X173810554Y-124955638D01*
X173810554Y-124955638D02*
X173797298Y-125011426D01*
X173797298Y-125011426D02*
X173748143Y-124999339D01*
X173748143Y-124999339D02*
X173761399Y-124943552D01*
X173761399Y-124943552D02*
X173797298Y-125011426D01*
X173858059Y-124317801D02*
X174109356Y-124792921D01*
X173893958Y-124385675D02*
X173907214Y-124329888D01*
X173907214Y-124329888D02*
X173951676Y-124252250D01*
X173951676Y-124252250D02*
X174045293Y-124186698D01*
X174045293Y-124186698D02*
X174125655Y-124176934D01*
X174125655Y-124176934D02*
X174192760Y-124222958D01*
X174192760Y-124222958D02*
X174390208Y-124596266D01*
X174933963Y-124169019D02*
X174889501Y-124246657D01*
X174889501Y-124246657D02*
X174764678Y-124334059D01*
X174764678Y-124334059D02*
X174684317Y-124343823D01*
X174684317Y-124343823D02*
X174617211Y-124297800D01*
X174617211Y-124297800D02*
X174473613Y-124026303D01*
X174473613Y-124026303D02*
X174468919Y-123936578D01*
X174468919Y-123936578D02*
X174513381Y-123858940D01*
X174513381Y-123858940D02*
X174638204Y-123771538D01*
X174638204Y-123771538D02*
X174718565Y-123761774D01*
X174718565Y-123761774D02*
X174785671Y-123807797D01*
X174785671Y-123807797D02*
X174821570Y-123875672D01*
X174821570Y-123875672D02*
X174545412Y-124162051D01*
X174919056Y-123574883D02*
X175168702Y-123400079D01*
X174887024Y-123271772D02*
X175210121Y-123882640D01*
X175210121Y-123882640D02*
X175277226Y-123928663D01*
X175277226Y-123928663D02*
X175357588Y-123918899D01*
X175357588Y-123918899D02*
X175419999Y-123875198D01*
D10*
X142941541Y-99404485D02*
X142741541Y-99404485D01*
X142741541Y-99718771D02*
X142741541Y-99118771D01*
X142741541Y-99118771D02*
X143027255Y-99118771D01*
X143255827Y-99490200D02*
X143712970Y-99490200D01*
X143484398Y-99718771D02*
X143484398Y-99261628D01*
X140827255Y-111668771D02*
X140541541Y-111668771D01*
X140541541Y-111668771D02*
X140512969Y-111954485D01*
X140512969Y-111954485D02*
X140541541Y-111925914D01*
X140541541Y-111925914D02*
X140598684Y-111897342D01*
X140598684Y-111897342D02*
X140741541Y-111897342D01*
X140741541Y-111897342D02*
X140798684Y-111925914D01*
X140798684Y-111925914D02*
X140827255Y-111954485D01*
X140827255Y-111954485D02*
X140855826Y-112011628D01*
X140855826Y-112011628D02*
X140855826Y-112154485D01*
X140855826Y-112154485D02*
X140827255Y-112211628D01*
X140827255Y-112211628D02*
X140798684Y-112240200D01*
X140798684Y-112240200D02*
X140741541Y-112268771D01*
X140741541Y-112268771D02*
X140598684Y-112268771D01*
X140598684Y-112268771D02*
X140541541Y-112240200D01*
X140541541Y-112240200D02*
X140512969Y-112211628D01*
X141027255Y-111668771D02*
X141227255Y-112268771D01*
X141227255Y-112268771D02*
X141427255Y-111668771D01*
X167309523Y-118325180D02*
X167309523Y-119325180D01*
X167309523Y-119325180D02*
X166976190Y-118610895D01*
X166976190Y-118610895D02*
X166642857Y-119325180D01*
X166642857Y-119325180D02*
X166642857Y-118325180D01*
X165642857Y-118325180D02*
X166214285Y-118325180D01*
X165928571Y-118325180D02*
X165928571Y-119325180D01*
X165928571Y-119325180D02*
X166023809Y-119182323D01*
X166023809Y-119182323D02*
X166119047Y-119087085D01*
X166119047Y-119087085D02*
X166214285Y-119039466D01*
D14*
X154726667Y-103204318D02*
X154726667Y-104111461D01*
X154726667Y-104111461D02*
X154666190Y-104292889D01*
X154666190Y-104292889D02*
X154545238Y-104413842D01*
X154545238Y-104413842D02*
X154363809Y-104474318D01*
X154363809Y-104474318D02*
X154242857Y-104474318D01*
X155270952Y-103325270D02*
X155331428Y-103264794D01*
X155331428Y-103264794D02*
X155452381Y-103204318D01*
X155452381Y-103204318D02*
X155754762Y-103204318D01*
X155754762Y-103204318D02*
X155875714Y-103264794D01*
X155875714Y-103264794D02*
X155936190Y-103325270D01*
X155936190Y-103325270D02*
X155996667Y-103446222D01*
X155996667Y-103446222D02*
X155996667Y-103567175D01*
X155996667Y-103567175D02*
X155936190Y-103748603D01*
X155936190Y-103748603D02*
X155210476Y-104474318D01*
X155210476Y-104474318D02*
X155996667Y-104474318D01*
X131709479Y-129214912D02*
X132895126Y-128759784D01*
X132330532Y-128976512D02*
X132590605Y-129654024D01*
X131969551Y-129892424D02*
X133155199Y-129437297D01*
X132424679Y-131078071D02*
X132164606Y-130400558D01*
X132294642Y-130739315D02*
X133480289Y-130284188D01*
X133480289Y-130284188D02*
X133267566Y-130236287D01*
X133267566Y-130236287D02*
X133111302Y-130166714D01*
X133111302Y-130166714D02*
X133011497Y-130075468D01*
X167076667Y-99152318D02*
X167076667Y-100059461D01*
X167076667Y-100059461D02*
X167016190Y-100240889D01*
X167016190Y-100240889D02*
X166895238Y-100361842D01*
X166895238Y-100361842D02*
X166713809Y-100422318D01*
X166713809Y-100422318D02*
X166592857Y-100422318D01*
X168346667Y-100422318D02*
X167620952Y-100422318D01*
X167983809Y-100422318D02*
X167983809Y-99152318D01*
X167983809Y-99152318D02*
X167862857Y-99333746D01*
X167862857Y-99333746D02*
X167741905Y-99454699D01*
X167741905Y-99454699D02*
X167620952Y-99515175D01*
D10*
X146623684Y-117647819D02*
X146774265Y-117648962D01*
X146774265Y-117648962D02*
X147000707Y-117575387D01*
X147000707Y-117575387D02*
X147076568Y-117500668D01*
X147076568Y-117500668D02*
X147107142Y-117440665D01*
X147107142Y-117440665D02*
X147123000Y-117335373D01*
X147123000Y-117335373D02*
X147093570Y-117244796D01*
X147093570Y-117244796D02*
X147018851Y-117168934D01*
X147018851Y-117168934D02*
X146958848Y-117138361D01*
X146958848Y-117138361D02*
X146853556Y-117122503D01*
X146853556Y-117122503D02*
X146657687Y-117136075D01*
X146657687Y-117136075D02*
X146552395Y-117120217D01*
X146552395Y-117120217D02*
X146492392Y-117089643D01*
X146492392Y-117089643D02*
X146417673Y-117013782D01*
X146417673Y-117013782D02*
X146388243Y-116923205D01*
X146388243Y-116923205D02*
X146404101Y-116817913D01*
X146404101Y-116817913D02*
X146434674Y-116757909D01*
X146434674Y-116757909D02*
X146510536Y-116683191D01*
X146510536Y-116683191D02*
X146736978Y-116609615D01*
X146736978Y-116609615D02*
X146887558Y-116610758D01*
X147189862Y-116462464D02*
X147725321Y-117339945D01*
X147725321Y-117339945D02*
X147685748Y-116601759D01*
X147685748Y-116601759D02*
X148087628Y-117222225D01*
X148087628Y-117222225D02*
X148005054Y-116197593D01*
X148351502Y-116185164D02*
X148382076Y-116125160D01*
X148382076Y-116125160D02*
X148457937Y-116050442D01*
X148457937Y-116050442D02*
X148684379Y-115976866D01*
X148684379Y-115976866D02*
X148789671Y-115992724D01*
X148789671Y-115992724D02*
X148849675Y-116023298D01*
X148849675Y-116023298D02*
X148924393Y-116099159D01*
X148924393Y-116099159D02*
X148953824Y-116189736D01*
X148953824Y-116189736D02*
X148952681Y-116340317D01*
X148952681Y-116340317D02*
X148585801Y-117060359D01*
X148585801Y-117060359D02*
X149174550Y-116869062D01*
X159053184Y-71359588D02*
X159183018Y-71435868D01*
X159183018Y-71435868D02*
X159415911Y-71485371D01*
X159415911Y-71485371D02*
X159518968Y-71458593D01*
X159518968Y-71458593D02*
X159575447Y-71421915D01*
X159575447Y-71421915D02*
X159641827Y-71338659D01*
X159641827Y-71338659D02*
X159661628Y-71245502D01*
X159661628Y-71245502D02*
X159634850Y-71142445D01*
X159634850Y-71142445D02*
X159598173Y-71085966D01*
X159598173Y-71085966D02*
X159514916Y-71019586D01*
X159514916Y-71019586D02*
X159338503Y-70933405D01*
X159338503Y-70933405D02*
X159255247Y-70867026D01*
X159255247Y-70867026D02*
X159218569Y-70810547D01*
X159218569Y-70810547D02*
X159191791Y-70707489D01*
X159191791Y-70707489D02*
X159211592Y-70614332D01*
X159211592Y-70614332D02*
X159277972Y-70531076D01*
X159277972Y-70531076D02*
X159334451Y-70494398D01*
X159334451Y-70494398D02*
X159437509Y-70467621D01*
X159437509Y-70467621D02*
X159670401Y-70517124D01*
X159670401Y-70517124D02*
X159800236Y-70593404D01*
X160136185Y-70616129D02*
X160161166Y-71643780D01*
X160161166Y-71643780D02*
X160495988Y-70984705D01*
X160495988Y-70984705D02*
X160533794Y-71722984D01*
X160533794Y-71722984D02*
X160974598Y-70794339D01*
X161651677Y-71960597D02*
X161092735Y-71841791D01*
X161372206Y-71901194D02*
X161580117Y-70923046D01*
X161580117Y-70923046D02*
X161457259Y-71042981D01*
X161457259Y-71042981D02*
X161344301Y-71116336D01*
X161344301Y-71116336D02*
X161241243Y-71143114D01*
D15*
%TO.C,M1*%
X168925700Y-119482000D02*
X168925700Y-103632401D01*
X168925700Y-103632401D02*
X164074300Y-103632401D01*
X166089113Y-119482000D02*
X166910886Y-119482000D01*
X164074300Y-103632401D02*
X164074300Y-119482000D01*
D16*
X163820300Y-118780000D02*
G75*
G02*
X163058300Y-118780000I-381000J0D01*
G01*
X163058300Y-118780000D02*
G75*
G02*
X163820300Y-118780000I381000J0D01*
G01*
D12*
%TO.C,J2*%
X152650000Y-101850000D02*
X151850000Y-101850000D01*
X151850000Y-101850000D02*
X151850000Y-101850000D01*
X151850000Y-101850000D02*
X152650000Y-101850000D01*
X152650000Y-101850000D02*
X152650000Y-101850000D01*
X151850000Y-101900000D02*
X151850000Y-101900000D01*
X151850000Y-101900000D02*
X151850000Y-105950000D01*
X151850000Y-105950000D02*
X151850000Y-105950000D01*
X151850000Y-105950000D02*
X151850000Y-101900000D01*
X151900000Y-105950000D02*
X152650000Y-105950000D01*
X152650000Y-105950000D02*
X152650000Y-105950000D01*
X152650000Y-105950000D02*
X151900000Y-105950000D01*
X151900000Y-105950000D02*
X151900000Y-105950000D01*
X157650000Y-105950000D02*
X158450000Y-105950000D01*
X158450000Y-105950000D02*
X158450000Y-105950000D01*
X158450000Y-105950000D02*
X157650000Y-105950000D01*
X157650000Y-105950000D02*
X157650000Y-105950000D01*
X158450000Y-105950000D02*
X158450000Y-105950000D01*
X158450000Y-105950000D02*
X158450000Y-101850000D01*
X158450000Y-101850000D02*
X158450000Y-101850000D01*
X158450000Y-101850000D02*
X158450000Y-105950000D01*
X158450000Y-101850000D02*
X157650000Y-101850000D01*
X157650000Y-101850000D02*
X157650000Y-101850000D01*
X157650000Y-101850000D02*
X158450000Y-101850000D01*
X158450000Y-101850000D02*
X158450000Y-101850000D01*
%TO.C,H1*%
X131635034Y-135371101D02*
X132530954Y-137705052D01*
X132530954Y-137705052D02*
X138132436Y-135554844D01*
X138132436Y-135554844D02*
X137236516Y-133220893D01*
X129323679Y-134651629D02*
X129861231Y-136052000D01*
X129861231Y-136052000D02*
X138823603Y-132611668D01*
X138823603Y-132611668D02*
X138465235Y-131678087D01*
X138465235Y-131678087D02*
X138846199Y-130996276D01*
X128435291Y-131779215D02*
X125926716Y-125244152D01*
X125926716Y-125244152D02*
X127513802Y-124634926D01*
X130221186Y-123595659D02*
X134702372Y-121875493D01*
X134702372Y-121875493D02*
X135598292Y-124209444D01*
X137210947Y-128410556D02*
X136852579Y-127476975D01*
X136852579Y-127476975D02*
X137412728Y-127261955D01*
X137412728Y-127261955D02*
X137054360Y-126328374D01*
D17*
X127589638Y-133817662D02*
X127589638Y-133817662D01*
X127496280Y-133853499D02*
X127496280Y-133853499D01*
X127496280Y-133853499D02*
G75*
G02*
X127589638Y-133817662I46679J17918D01*
G01*
X127589638Y-133817662D02*
G75*
G02*
X127496280Y-133853499I-46679J-17919D01*
G01*
D14*
%TO.C,J1*%
X171100000Y-102247000D02*
X171099999Y-100499000D01*
X171100000Y-97096000D02*
X171100000Y-98386000D01*
X171100000Y-97096000D02*
X163900000Y-97096000D01*
X163899999Y-102247000D02*
X163899999Y-100499000D01*
X163900000Y-97096000D02*
X163900000Y-98386000D01*
D18*
%TO.C,TP29*%
X138250000Y-115800000D02*
G75*
G02*
X136850000Y-115800000I-700000J0D01*
G01*
X136850000Y-115800000D02*
G75*
G02*
X138250000Y-115800000I700000J0D01*
G01*
%TO.C,TP34*%
X135900000Y-120800000D02*
G75*
G02*
X134500000Y-120800000I-700000J0D01*
G01*
X134500000Y-120800000D02*
G75*
G02*
X135900000Y-120800000I700000J0D01*
G01*
%TO.C,TP28*%
X139050000Y-114250000D02*
G75*
G02*
X137650000Y-114250000I-700000J0D01*
G01*
X137650000Y-114250000D02*
G75*
G02*
X139050000Y-114250000I700000J0D01*
G01*
%TO.C,TP30*%
X137500000Y-117300000D02*
G75*
G02*
X136100000Y-117300000I-700000J0D01*
G01*
X136100000Y-117300000D02*
G75*
G02*
X137500000Y-117300000I700000J0D01*
G01*
%TO.C,TP32*%
X136750000Y-118900000D02*
G75*
G02*
X135350000Y-118900000I-700000J0D01*
G01*
X135350000Y-118900000D02*
G75*
G02*
X136750000Y-118900000I700000J0D01*
G01*
D17*
%TO.C,TP25*%
X140619973Y-110403478D02*
X139267596Y-113303663D01*
X138180027Y-112796522D01*
X139532404Y-109896337D01*
X140619973Y-110403478D01*
D18*
%TO.C,TP1*%
X142300000Y-69700000D02*
G75*
G02*
X140900000Y-69700000I-700000J0D01*
G01*
X140900000Y-69700000D02*
G75*
G02*
X142300000Y-69700000I700000J0D01*
G01*
%TO.C,TP9*%
X123300000Y-126800000D02*
G75*
G02*
X121900000Y-126800000I-700000J0D01*
G01*
X121900000Y-126800000D02*
G75*
G02*
X123300000Y-126800000I700000J0D01*
G01*
D15*
%TO.C,SW2*%
X142381828Y-117991234D02*
X142548035Y-118502770D01*
X143004849Y-119908699D02*
X143196971Y-120499988D01*
X143653785Y-121905915D02*
X144006578Y-122991701D01*
X144006578Y-122991701D02*
X154418173Y-119608767D01*
X144079806Y-117439527D02*
X142381828Y-117991234D01*
X148359560Y-116048951D02*
X146815690Y-116550584D01*
X152793423Y-114608300D02*
X151095445Y-115160008D01*
X152959631Y-115119837D02*
X152793423Y-114608300D01*
X153608567Y-117117055D02*
X153416446Y-116525765D01*
X154418173Y-119608767D02*
X154065381Y-118522982D01*
D16*
X141250152Y-119089426D02*
G75*
G02*
X140488152Y-119089426I-381000J0D01*
G01*
X140488152Y-119089426D02*
G75*
G02*
X141250152Y-119089426I381000J0D01*
G01*
D18*
%TO.C,TP6*%
X123300000Y-128500000D02*
G75*
G02*
X121900000Y-128500000I-700000J0D01*
G01*
X121900000Y-128500000D02*
G75*
G02*
X123300000Y-128500000I700000J0D01*
G01*
%TO.C,TP12*%
X142400000Y-97800000D02*
G75*
G02*
X141000000Y-97800000I-700000J0D01*
G01*
X141000000Y-97800000D02*
G75*
G02*
X142400000Y-97800000I700000J0D01*
G01*
%TO.C,C2*%
X193000000Y-123967836D02*
X193000000Y-123752164D01*
X193720000Y-123967836D02*
X193720000Y-123752164D01*
%TO.C,R2*%
X192680000Y-120543641D02*
X192680000Y-120236359D01*
X193440000Y-120543641D02*
X193440000Y-120236359D01*
D19*
%TO.C,G\u002A\u002A\u002A*%
G36*
X153000914Y-82802344D02*
G01*
X153059428Y-82829635D01*
X153104453Y-82881721D01*
X153111754Y-82895447D01*
X153141653Y-82988634D01*
X153146173Y-83094481D01*
X153125178Y-83213824D01*
X153078528Y-83347494D01*
X153015885Y-83478135D01*
X152929697Y-83623885D01*
X152841431Y-83740356D01*
X152750019Y-83828655D01*
X152654392Y-83889889D01*
X152595111Y-83913919D01*
X152546157Y-83925453D01*
X152492873Y-83931640D01*
X152445404Y-83932010D01*
X152413887Y-83926100D01*
X152408541Y-83922505D01*
X152397062Y-83910430D01*
X152373241Y-83885573D01*
X152371000Y-83883238D01*
X152333482Y-83823221D01*
X152314486Y-83744057D01*
X152312954Y-83649853D01*
X152327826Y-83544714D01*
X152358042Y-83432749D01*
X152402543Y-83318063D01*
X152460269Y-83204764D01*
X152530160Y-83096960D01*
X152594454Y-83017056D01*
X152682506Y-82929274D01*
X152769705Y-82863318D01*
X152853525Y-82819782D01*
X152931438Y-82799259D01*
X153000914Y-82802344D01*
G37*
G36*
X151162716Y-83447633D02*
G01*
X151241873Y-83481747D01*
X151305724Y-83541994D01*
X151353585Y-83627964D01*
X151378479Y-83708673D01*
X151395069Y-83848367D01*
X151382820Y-83996773D01*
X151341847Y-84153353D01*
X151272269Y-84317564D01*
X151227706Y-84400765D01*
X151148565Y-84528868D01*
X151069762Y-84633301D01*
X150985945Y-84720251D01*
X150891754Y-84795910D01*
X150876830Y-84806374D01*
X150765196Y-84872005D01*
X150658883Y-84912216D01*
X150560091Y-84926978D01*
X150471016Y-84916264D01*
X150393856Y-84880047D01*
X150330810Y-84818297D01*
X150327171Y-84813281D01*
X150293825Y-84748935D01*
X150268041Y-84665213D01*
X150252200Y-84572697D01*
X150248683Y-84481969D01*
X150249458Y-84467845D01*
X150265502Y-84343627D01*
X150297263Y-84223177D01*
X150347285Y-84098978D01*
X150418113Y-83963524D01*
X150423561Y-83954042D01*
X150474544Y-83868297D01*
X150517676Y-83802488D01*
X150558302Y-83749174D01*
X150601772Y-83700900D01*
X150615160Y-83687295D01*
X150728853Y-83586133D01*
X150841314Y-83510736D01*
X150949797Y-83462911D01*
X150961240Y-83459449D01*
X151068942Y-83440064D01*
X151162716Y-83447633D01*
G37*
G36*
X151917992Y-84844839D02*
G01*
X152003969Y-84874074D01*
X152096882Y-84922356D01*
X152141768Y-84949948D01*
X152261055Y-85038784D01*
X152360893Y-85142354D01*
X152443809Y-85264292D01*
X152512328Y-85408234D01*
X152562607Y-85555600D01*
X152608487Y-85754492D01*
X152626389Y-85942961D01*
X152616357Y-86122367D01*
X152586283Y-86267403D01*
X152552277Y-86367997D01*
X152502668Y-86486146D01*
X152440661Y-86615517D01*
X152369458Y-86749778D01*
X152292265Y-86882594D01*
X152212284Y-87007633D01*
X152210408Y-87010412D01*
X152163863Y-87078848D01*
X152123432Y-87137588D01*
X152092078Y-87182376D01*
X152072773Y-87208963D01*
X152068084Y-87214465D01*
X152071804Y-87202079D01*
X152085812Y-87167309D01*
X152107889Y-87115482D01*
X152135815Y-87051926D01*
X152135939Y-87051647D01*
X152211816Y-86866304D01*
X152283239Y-86663520D01*
X152345992Y-86456265D01*
X152395863Y-86257498D01*
X152399431Y-86241141D01*
X152418632Y-86148109D01*
X152430921Y-86076108D01*
X152436998Y-86016741D01*
X152437560Y-85961606D01*
X152433307Y-85902305D01*
X152430085Y-85872699D01*
X152401961Y-85705475D01*
X152358625Y-85550279D01*
X152301761Y-85410064D01*
X152233050Y-85287787D01*
X152154174Y-85186402D01*
X152066815Y-85108865D01*
X151972654Y-85058133D01*
X151965132Y-85055409D01*
X151844795Y-85028700D01*
X151718685Y-85030794D01*
X151586556Y-85061806D01*
X151448153Y-85121847D01*
X151303227Y-85211030D01*
X151151526Y-85329470D01*
X150992800Y-85477281D01*
X150961328Y-85509207D01*
X150816061Y-85667032D01*
X150679434Y-85832255D01*
X150553578Y-86001403D01*
X150440620Y-86171001D01*
X150342690Y-86337575D01*
X150261916Y-86497651D01*
X150200430Y-86647753D01*
X150160357Y-86784404D01*
X150151326Y-86831214D01*
X150141324Y-86940025D01*
X150150697Y-87025766D01*
X150180088Y-87089315D01*
X150230143Y-87131556D01*
X150301509Y-87153364D01*
X150389758Y-87155951D01*
X150474042Y-87139402D01*
X150573221Y-87100420D01*
X150684246Y-87041112D01*
X150804066Y-86963582D01*
X150929628Y-86869937D01*
X151057882Y-86762282D01*
X151185778Y-86642724D01*
X151291985Y-86533253D01*
X151336423Y-86485707D01*
X151372801Y-86447535D01*
X151396458Y-86423587D01*
X151402907Y-86417899D01*
X151414786Y-86428530D01*
X151433741Y-86462501D01*
X151457486Y-86514231D01*
X151483733Y-86578133D01*
X151510201Y-86648629D01*
X151534601Y-86720131D01*
X151554649Y-86787057D01*
X151555883Y-86791624D01*
X151590178Y-86943199D01*
X151608479Y-87087932D01*
X151612028Y-87239048D01*
X151607541Y-87339139D01*
X151600847Y-87428436D01*
X151594348Y-87487585D01*
X151587856Y-87516840D01*
X151581188Y-87516455D01*
X151574155Y-87486678D01*
X151566571Y-87427763D01*
X151563584Y-87398591D01*
X151543628Y-87254130D01*
X151512926Y-87109285D01*
X151473911Y-86973475D01*
X151429011Y-86856105D01*
X151416858Y-86830148D01*
X151365730Y-86725872D01*
X151272040Y-86819999D01*
X151172473Y-86913562D01*
X151058563Y-87010096D01*
X150942318Y-87099767D01*
X150861298Y-87156288D01*
X150715811Y-87242959D01*
X150581984Y-87303098D01*
X150457846Y-87337347D01*
X150341422Y-87346347D01*
X150289520Y-87342133D01*
X150214137Y-87323967D01*
X150138199Y-87292093D01*
X150072677Y-87251912D01*
X150034542Y-87216695D01*
X149982659Y-87132677D01*
X149953843Y-87034052D01*
X149948217Y-86920192D01*
X149965899Y-86790464D01*
X150007009Y-86644242D01*
X150071668Y-86480897D01*
X150159994Y-86299796D01*
X150235763Y-86162481D01*
X150394487Y-85907112D01*
X150564194Y-85675507D01*
X150749717Y-85461660D01*
X150955889Y-85259565D01*
X150978074Y-85239550D01*
X151133782Y-85108387D01*
X151278766Y-85003868D01*
X151414907Y-84924972D01*
X151544094Y-84870681D01*
X151668211Y-84839977D01*
X151730098Y-84833076D01*
X151829765Y-84832043D01*
X151917992Y-84844839D01*
G37*
G36*
X153048425Y-81589485D02*
G01*
X153299607Y-81612959D01*
X153529629Y-81650135D01*
X153745354Y-81702925D01*
X153953642Y-81773240D01*
X154161355Y-81862988D01*
X154318945Y-81943152D01*
X154465353Y-82024633D01*
X154590148Y-82100551D01*
X154700258Y-82175802D01*
X154802620Y-82255289D01*
X154904159Y-82343907D01*
X154960177Y-82396411D01*
X155150316Y-82597700D01*
X155313124Y-82811629D01*
X155448332Y-83037757D01*
X155555669Y-83275653D01*
X155613798Y-83447998D01*
X155670054Y-83684324D01*
X155698369Y-83916020D01*
X155699761Y-84142346D01*
X155672113Y-84404307D01*
X155615186Y-84661023D01*
X155528732Y-84913196D01*
X155412503Y-85161523D01*
X155266252Y-85406702D01*
X155237632Y-85449223D01*
X155140622Y-85584973D01*
X155039120Y-85714434D01*
X154930332Y-85840314D01*
X154811455Y-85965324D01*
X154679703Y-86092171D01*
X154532269Y-86223563D01*
X154366363Y-86362211D01*
X154179188Y-86510821D01*
X154000541Y-86647551D01*
X153818558Y-86785951D01*
X153659154Y-86909603D01*
X153519744Y-87020820D01*
X153397744Y-87121920D01*
X153290568Y-87215213D01*
X153195636Y-87303013D01*
X153110362Y-87387635D01*
X153032161Y-87471391D01*
X152958450Y-87556596D01*
X152888371Y-87643362D01*
X152763982Y-87820093D01*
X152658970Y-88006566D01*
X152574140Y-88199352D01*
X152510302Y-88395021D01*
X152468261Y-88590140D01*
X152448824Y-88781279D01*
X152452799Y-88965006D01*
X152480994Y-89137891D01*
X152512334Y-89241853D01*
X152593330Y-89440193D01*
X152682964Y-89611529D01*
X152783145Y-89758499D01*
X152895778Y-89883747D01*
X153022772Y-89989911D01*
X153081288Y-90029726D01*
X153197975Y-90096638D01*
X153311958Y-90144352D01*
X153430457Y-90174568D01*
X153560695Y-90188991D01*
X153709892Y-90189324D01*
X153750012Y-90187459D01*
X153933848Y-90168632D01*
X154101037Y-90131829D01*
X154255447Y-90075014D01*
X154400950Y-89996152D01*
X154541413Y-89893210D01*
X154680711Y-89764152D01*
X154797177Y-89636948D01*
X154907312Y-89500328D01*
X155003904Y-89360480D01*
X155090263Y-89211409D01*
X155169700Y-89047124D01*
X155245521Y-88861629D01*
X155285209Y-88753138D01*
X155310544Y-88682901D01*
X155332694Y-88624124D01*
X155349562Y-88582184D01*
X155359052Y-88562456D01*
X155359922Y-88561633D01*
X155369769Y-88573353D01*
X155391672Y-88606993D01*
X155422803Y-88657975D01*
X155460319Y-88721715D01*
X155478160Y-88752692D01*
X155553103Y-88896231D01*
X155605791Y-89029503D01*
X155637878Y-89160619D01*
X155651009Y-89297697D01*
X155646836Y-89448853D01*
X155637973Y-89539138D01*
X155602353Y-89746253D01*
X155545468Y-89954151D01*
X155470411Y-90153327D01*
X155380275Y-90334282D01*
X155377717Y-90338731D01*
X155255613Y-90525854D01*
X155106758Y-90712558D01*
X154934681Y-90895704D01*
X154742905Y-91072143D01*
X154534963Y-91238737D01*
X154314376Y-91392343D01*
X154084678Y-91529816D01*
X153976610Y-91586932D01*
X153675388Y-91723388D01*
X153370362Y-91829699D01*
X153061748Y-91905860D01*
X152749765Y-91951864D01*
X152434629Y-91967699D01*
X152116561Y-91953358D01*
X151795778Y-91908835D01*
X151472500Y-91834115D01*
X151146943Y-91729196D01*
X151070203Y-91700186D01*
X150982518Y-91662949D01*
X150875162Y-91612357D01*
X150753975Y-91551592D01*
X150624798Y-91483834D01*
X150493468Y-91412265D01*
X150365824Y-91340068D01*
X150247706Y-91270421D01*
X150144953Y-91206509D01*
X150063898Y-91151867D01*
X149752788Y-90912034D01*
X149461870Y-90653275D01*
X149192162Y-90377201D01*
X148944691Y-90085416D01*
X148720477Y-89779525D01*
X148520544Y-89461135D01*
X148345912Y-89131850D01*
X148197605Y-88793278D01*
X148076642Y-88447024D01*
X147984051Y-88094692D01*
X147929513Y-87799050D01*
X147888626Y-87422273D01*
X147877237Y-87040542D01*
X147895209Y-86655663D01*
X147942397Y-86269433D01*
X148018660Y-85883654D01*
X148105551Y-85559723D01*
X148158538Y-85383715D01*
X148022010Y-85465449D01*
X147950161Y-85504766D01*
X147873461Y-85540785D01*
X147804163Y-85567949D01*
X147778348Y-85575888D01*
X147656175Y-85597097D01*
X147541291Y-85594834D01*
X147437209Y-85570462D01*
X147347449Y-85525341D01*
X147275525Y-85460833D01*
X147224955Y-85378301D01*
X147217322Y-85358649D01*
X147198101Y-85262854D01*
X147198660Y-85234459D01*
X147390928Y-85234459D01*
X147406999Y-85302477D01*
X147438142Y-85353386D01*
X147463712Y-85380859D01*
X147487411Y-85396533D01*
X147519650Y-85404641D01*
X147570842Y-85409402D01*
X147577207Y-85409842D01*
X147676317Y-85402752D01*
X147788059Y-85369254D01*
X147911314Y-85310048D01*
X148044959Y-85225843D01*
X148187876Y-85117341D01*
X148338944Y-84985246D01*
X148493743Y-84833663D01*
X148548722Y-84777391D01*
X148595952Y-84729587D01*
X148631513Y-84694171D01*
X148651496Y-84675068D01*
X148654291Y-84672854D01*
X148663114Y-84684539D01*
X148680977Y-84717732D01*
X148704582Y-84766159D01*
X148713792Y-84785986D01*
X148788439Y-84984007D01*
X148837270Y-85193857D01*
X148859559Y-85410200D01*
X148854577Y-85627702D01*
X148842336Y-85730615D01*
X148835630Y-85771710D01*
X148830357Y-85792079D01*
X148825735Y-85789715D01*
X148820980Y-85762611D01*
X148815310Y-85708758D01*
X148809771Y-85647193D01*
X148800648Y-85572067D01*
X148786057Y-85483086D01*
X148768638Y-85395698D01*
X148762124Y-85367377D01*
X148741949Y-85293167D01*
X148717069Y-85215990D01*
X148689934Y-85142048D01*
X148663000Y-85077548D01*
X148638725Y-85028693D01*
X148619562Y-85001690D01*
X148616522Y-84999435D01*
X148598264Y-85004264D01*
X148568993Y-85026089D01*
X148555630Y-85038876D01*
X148517734Y-85076646D01*
X148482404Y-85110325D01*
X148475804Y-85116335D01*
X148453615Y-85145383D01*
X148427597Y-85197269D01*
X148396385Y-85274849D01*
X148383848Y-85308971D01*
X148277649Y-85636180D01*
X148191688Y-85970950D01*
X148127136Y-86307127D01*
X148085167Y-86638555D01*
X148066956Y-86959075D01*
X148066724Y-86972546D01*
X148075780Y-87350749D01*
X148114679Y-87724355D01*
X148183243Y-88092271D01*
X148281297Y-88453406D01*
X148329052Y-88596610D01*
X148464431Y-88936255D01*
X148628159Y-89266976D01*
X148819108Y-89587285D01*
X149036147Y-89895697D01*
X149278150Y-90190728D01*
X149543988Y-90470890D01*
X149832532Y-90734697D01*
X150135472Y-90975357D01*
X150214552Y-91030397D01*
X150313802Y-91094037D01*
X150427561Y-91163106D01*
X150550174Y-91234441D01*
X150675977Y-91304874D01*
X150799309Y-91371238D01*
X150914513Y-91430366D01*
X151015928Y-91479091D01*
X151097893Y-91514248D01*
X151100328Y-91515189D01*
X151418835Y-91624576D01*
X151730294Y-91704763D01*
X152035675Y-91755873D01*
X152335948Y-91778031D01*
X152632081Y-91771363D01*
X152880635Y-91743217D01*
X153031616Y-91714663D01*
X153197676Y-91674517D01*
X153367484Y-91626020D01*
X153529715Y-91572409D01*
X153673039Y-91516921D01*
X153674580Y-91516264D01*
X153905661Y-91407764D01*
X154129074Y-91283441D01*
X154342279Y-91145595D01*
X154542742Y-90996516D01*
X154727925Y-90838500D01*
X154895291Y-90673841D01*
X155042303Y-90504834D01*
X155166422Y-90333773D01*
X155265114Y-90162954D01*
X155325973Y-90022795D01*
X155389945Y-89822570D01*
X155433001Y-89630803D01*
X155454775Y-89450520D01*
X155454901Y-89284746D01*
X155433016Y-89136511D01*
X155432852Y-89135818D01*
X155398965Y-88994265D01*
X155359395Y-89085507D01*
X155321233Y-89165450D01*
X155270363Y-89260497D01*
X155211137Y-89363500D01*
X155147905Y-89467301D01*
X155085018Y-89564748D01*
X155026828Y-89648688D01*
X154980157Y-89709050D01*
X154839224Y-89867275D01*
X154704255Y-89999187D01*
X154571652Y-90107331D01*
X154437813Y-90194252D01*
X154299139Y-90262494D01*
X154152031Y-90314601D01*
X154104998Y-90327656D01*
X153937354Y-90361552D01*
X153762182Y-90379000D01*
X153588330Y-90379829D01*
X153424643Y-90363867D01*
X153321758Y-90342845D01*
X153270277Y-90327079D01*
X153214902Y-90304456D01*
X153149420Y-90272033D01*
X153067617Y-90226872D01*
X153025402Y-90202526D01*
X152945129Y-90155167D01*
X152885060Y-90117594D01*
X152838732Y-90085003D01*
X152799680Y-90052580D01*
X152761445Y-90015520D01*
X152731107Y-89983607D01*
X152589823Y-89810518D01*
X152468298Y-89616163D01*
X152368490Y-89403925D01*
X152324170Y-89282621D01*
X152276654Y-89091071D01*
X152256817Y-88889556D01*
X152264386Y-88680068D01*
X152299086Y-88464599D01*
X152360648Y-88245143D01*
X152448801Y-88023693D01*
X152514421Y-87890538D01*
X152592873Y-87751528D01*
X152678605Y-87618728D01*
X152773996Y-87489641D01*
X152881429Y-87361777D01*
X153003285Y-87232635D01*
X153141945Y-87099731D01*
X153299788Y-86960562D01*
X153479197Y-86812639D01*
X153682552Y-86653466D01*
X153729627Y-86617536D01*
X153934805Y-86460469D01*
X154116949Y-86318408D01*
X154278165Y-86189269D01*
X154420559Y-86070966D01*
X154546241Y-85961414D01*
X154657309Y-85858524D01*
X154755877Y-85760211D01*
X154844049Y-85664391D01*
X154923927Y-85568975D01*
X154997623Y-85471881D01*
X155067240Y-85371018D01*
X155134887Y-85264303D01*
X155190626Y-85170510D01*
X155308131Y-84948081D01*
X155398123Y-84731977D01*
X155461648Y-84518096D01*
X155499752Y-84302333D01*
X155513476Y-84080591D01*
X155509157Y-83919938D01*
X155498862Y-83831481D01*
X155478650Y-83723390D01*
X155450753Y-83603898D01*
X155417405Y-83481240D01*
X155380844Y-83363648D01*
X155343298Y-83259356D01*
X155307967Y-83178511D01*
X155177499Y-82951144D01*
X155018962Y-82734724D01*
X154832926Y-82529983D01*
X154737314Y-82439056D01*
X154694180Y-82400933D01*
X154652076Y-82366700D01*
X154606136Y-82333087D01*
X154551501Y-82296821D01*
X154483304Y-82254627D01*
X154396686Y-82203235D01*
X154324430Y-82161160D01*
X154222178Y-82102312D01*
X154140387Y-82056494D01*
X154073517Y-82020986D01*
X154016031Y-81993068D01*
X153962388Y-81970012D01*
X153907051Y-81949098D01*
X153859581Y-81932667D01*
X153606341Y-81860859D01*
X153335521Y-81809387D01*
X153052548Y-81778719D01*
X152762850Y-81769325D01*
X152471856Y-81781669D01*
X152305925Y-81798810D01*
X152229805Y-81809580D01*
X152144044Y-81823595D01*
X152053807Y-81839793D01*
X151964253Y-81857114D01*
X151880544Y-81874499D01*
X151807842Y-81890891D01*
X151751309Y-81905225D01*
X151716107Y-81916446D01*
X151706984Y-81921760D01*
X151705668Y-81943043D01*
X151711074Y-81980699D01*
X151713137Y-81990279D01*
X151724432Y-82105745D01*
X151708412Y-82233130D01*
X151665298Y-82371492D01*
X151595324Y-82519891D01*
X151574855Y-82556383D01*
X151484207Y-82696276D01*
X151390589Y-82806606D01*
X151293156Y-82888140D01*
X151191055Y-82941641D01*
X151125910Y-82960884D01*
X151048951Y-82967601D01*
X150989302Y-82949784D01*
X150944558Y-82906048D01*
X150913317Y-82838144D01*
X150894062Y-82737658D01*
X150898036Y-82625391D01*
X150925559Y-82499506D01*
X150976957Y-82358160D01*
X151010668Y-82283304D01*
X151069580Y-82159349D01*
X150925147Y-82233929D01*
X150740397Y-82337189D01*
X150546176Y-82460148D01*
X150350219Y-82597441D01*
X150160262Y-82743706D01*
X150020451Y-82861260D01*
X149965376Y-82910915D01*
X149902045Y-82970201D01*
X149834570Y-83035024D01*
X149767057Y-83101291D01*
X149703616Y-83164908D01*
X149648354Y-83221780D01*
X149605380Y-83267818D01*
X149578805Y-83298925D01*
X149573526Y-83306544D01*
X149576069Y-83329796D01*
X149596638Y-83373859D01*
X149633928Y-83436080D01*
X149648364Y-83458172D01*
X149735223Y-83612064D01*
X149802294Y-83779676D01*
X149848329Y-83954940D01*
X149872084Y-84131791D01*
X149872313Y-84304158D01*
X149851727Y-84448840D01*
X149827191Y-84541499D01*
X149792765Y-84638835D01*
X149746479Y-84745211D01*
X149686362Y-84865001D01*
X149610447Y-85002565D01*
X149572284Y-85068566D01*
X149528933Y-85141525D01*
X149484627Y-85214052D01*
X149441555Y-85282831D01*
X149401905Y-85344542D01*
X149367866Y-85395866D01*
X149341627Y-85433486D01*
X149325372Y-85454082D01*
X149321294Y-85454337D01*
X149326662Y-85441050D01*
X149383697Y-85311797D01*
X149440107Y-85170537D01*
X149494331Y-85022315D01*
X149544806Y-84872178D01*
X149589968Y-84725174D01*
X149628254Y-84586351D01*
X149658103Y-84460754D01*
X149677954Y-84353431D01*
X149685739Y-84281368D01*
X149684562Y-84203438D01*
X149675006Y-84107314D01*
X149658742Y-84003494D01*
X149637440Y-83902473D01*
X149612773Y-83814752D01*
X149610310Y-83807477D01*
X149544826Y-83649604D01*
X149467191Y-83519254D01*
X149378207Y-83416713D01*
X149278676Y-83342261D01*
X149169401Y-83296185D01*
X149051181Y-83278766D01*
X148924823Y-83290291D01*
X148791126Y-83331038D01*
X148650890Y-83401296D01*
X148583219Y-83444408D01*
X148444886Y-83548276D01*
X148304462Y-83672071D01*
X148164720Y-83812025D01*
X148028435Y-83964373D01*
X147898378Y-84125351D01*
X147777326Y-84291192D01*
X147668051Y-84458132D01*
X147573328Y-84622401D01*
X147495930Y-84780238D01*
X147438633Y-84927873D01*
X147408493Y-85039163D01*
X147391541Y-85147907D01*
X147390928Y-85234459D01*
X147198660Y-85234459D01*
X147200329Y-85149628D01*
X147222562Y-85021545D01*
X147263355Y-84881177D01*
X147321263Y-84731094D01*
X147394839Y-84573871D01*
X147482638Y-84412076D01*
X147510289Y-84367048D01*
X147583217Y-84248281D01*
X147695130Y-84085060D01*
X147816931Y-83924983D01*
X147947173Y-83770622D01*
X148084416Y-83624549D01*
X148227208Y-83489333D01*
X148305610Y-83422155D01*
X148465518Y-83299673D01*
X148615359Y-83204924D01*
X148756589Y-83137507D01*
X148890660Y-83097021D01*
X149019028Y-83083066D01*
X149143144Y-83095241D01*
X149264466Y-83133144D01*
X149298265Y-83148376D01*
X149409790Y-83201998D01*
X149595555Y-83010865D01*
X149878021Y-82739387D01*
X150170304Y-82495897D01*
X150471900Y-82280602D01*
X150782304Y-82093709D01*
X151101014Y-81935427D01*
X151427525Y-81805962D01*
X151761335Y-81705522D01*
X152101936Y-81634314D01*
X152448829Y-81592546D01*
X152801509Y-81580424D01*
X153048425Y-81589485D01*
G37*
D18*
%TO.C,R1*%
X188880000Y-124506359D02*
X188880000Y-124813641D01*
X189640000Y-124506359D02*
X189640000Y-124813641D01*
%TO.C,TP5*%
X142300000Y-74800000D02*
G75*
G02*
X140900000Y-74800000I-700000J0D01*
G01*
X140900000Y-74800000D02*
G75*
G02*
X142300000Y-74800000I700000J0D01*
G01*
%TO.C,C3*%
X191850000Y-120242164D02*
X191850000Y-120457836D01*
X192570000Y-120242164D02*
X192570000Y-120457836D01*
%TO.C,TP2*%
X142300000Y-71400000D02*
G75*
G02*
X140900000Y-71400000I-700000J0D01*
G01*
X140900000Y-71400000D02*
G75*
G02*
X142300000Y-71400000I700000J0D01*
G01*
%TO.C,SW1*%
X155923216Y-77587731D02*
X155944008Y-77489917D01*
X155923216Y-77587731D02*
X161987731Y-78876784D01*
X156879610Y-73088252D02*
X156255875Y-76022695D01*
X157212269Y-71523216D02*
X157191477Y-71621031D01*
X157212269Y-71523216D02*
X163276784Y-72812269D01*
X161987731Y-78876784D02*
X162008523Y-78778969D01*
X162944125Y-74377305D02*
X162320390Y-77311748D01*
X163255992Y-72910083D02*
X163276784Y-72812269D01*
D12*
%TO.C,IC1*%
X189700000Y-117800000D02*
G75*
G02*
X189500000Y-117800000I-100000J0D01*
G01*
X189500000Y-117800000D02*
G75*
G02*
X189700000Y-117800000I100000J0D01*
G01*
D18*
%TO.C,TP10*%
X142400000Y-99400000D02*
G75*
G02*
X141000000Y-99400000I-700000J0D01*
G01*
X141000000Y-99400000D02*
G75*
G02*
X142400000Y-99400000I700000J0D01*
G01*
%TO.C,TP11*%
D17*
X121700000Y-136300000D02*
X122900000Y-136300000D01*
X122900000Y-133100000D01*
X121700000Y-133100000D01*
X121700000Y-136300000D01*
D20*
%TO.C,IC2*%
X190260000Y-122380000D02*
G75*
G02*
X190010000Y-122380000I-125000J0D01*
G01*
X190010000Y-122380000D02*
G75*
G02*
X190260000Y-122380000I125000J0D01*
G01*
D18*
%TO.C,R3*%
X190980000Y-120523641D02*
X190980000Y-120216359D01*
X191740000Y-120523641D02*
X191740000Y-120216359D01*
%TO.C,TP7*%
X142300000Y-94600000D02*
G75*
G02*
X140900000Y-94600000I-700000J0D01*
G01*
X140900000Y-94600000D02*
G75*
G02*
X142300000Y-94600000I700000J0D01*
G01*
%TO.C,TP3*%
D17*
X121700000Y-132700000D02*
X122900000Y-132700000D01*
X122900000Y-129500000D01*
X121700000Y-129500000D01*
X121700000Y-132700000D01*
D18*
%TO.C,TP23*%
X141700000Y-108800000D02*
G75*
G02*
X140300000Y-108800000I-700000J0D01*
G01*
X140300000Y-108800000D02*
G75*
G02*
X141700000Y-108800000I700000J0D01*
G01*
%TO.C,TP8*%
X142300000Y-96200000D02*
G75*
G02*
X140900000Y-96200000I-700000J0D01*
G01*
X140900000Y-96200000D02*
G75*
G02*
X142300000Y-96200000I700000J0D01*
G01*
%TO.C,TP4*%
X142300000Y-73100000D02*
G75*
G02*
X140900000Y-73100000I-700000J0D01*
G01*
X140900000Y-73100000D02*
G75*
G02*
X142300000Y-73100000I700000J0D01*
G01*
%TO.C,C1*%
X187012164Y-123230000D02*
X187227836Y-123230000D01*
X187012164Y-123950000D02*
X187227836Y-123950000D01*
%TO.C,TP14*%
X142450000Y-101300000D02*
G75*
G02*
X141050000Y-101300000I-700000J0D01*
G01*
X141050000Y-101300000D02*
G75*
G02*
X142450000Y-101300000I700000J0D01*
G01*
%TO.C,TP18*%
X142450000Y-104850000D02*
G75*
G02*
X141050000Y-104850000I-700000J0D01*
G01*
X141050000Y-104850000D02*
G75*
G02*
X142450000Y-104850000I700000J0D01*
G01*
%TD*%
M02*
