%TF.GenerationSoftware,KiCad,Pcbnew,9.0.3*%
%TF.CreationDate,2025-07-19T19:29:57+01:00*%
%TF.ProjectId,GhostPAW,47686f73-7450-4415-972e-6b696361645f,rev?*%
%TF.SameCoordinates,Original*%
%TF.FileFunction,Legend,Bot*%
%TF.FilePolarity,Positive*%
%FSLAX46Y46*%
G04 Gerber Fmt 4.6, Leading zero omitted, Abs format (unit mm)*
G04 Created by KiCad (PCBNEW 9.0.3) date 2025-07-19 19:29:57*
%MOMM*%
%LPD*%
G01*
G04 APERTURE LIST*
%ADD10C,0.300000*%
%ADD11C,0.150000*%
%ADD12C,0.254000*%
%ADD13C,0.152400*%
%ADD14C,0.200000*%
%ADD15C,0.100000*%
%ADD16C,0.508000*%
G04 APERTURE END LIST*
D10*
X160721427Y-84049757D02*
X160864285Y-83978328D01*
X160864285Y-83978328D02*
X161078570Y-83978328D01*
X161078570Y-83978328D02*
X161292856Y-84049757D01*
X161292856Y-84049757D02*
X161435713Y-84192614D01*
X161435713Y-84192614D02*
X161507142Y-84335471D01*
X161507142Y-84335471D02*
X161578570Y-84621185D01*
X161578570Y-84621185D02*
X161578570Y-84835471D01*
X161578570Y-84835471D02*
X161507142Y-85121185D01*
X161507142Y-85121185D02*
X161435713Y-85264042D01*
X161435713Y-85264042D02*
X161292856Y-85406900D01*
X161292856Y-85406900D02*
X161078570Y-85478328D01*
X161078570Y-85478328D02*
X160935713Y-85478328D01*
X160935713Y-85478328D02*
X160721427Y-85406900D01*
X160721427Y-85406900D02*
X160649999Y-85335471D01*
X160649999Y-85335471D02*
X160649999Y-84835471D01*
X160649999Y-84835471D02*
X160935713Y-84835471D01*
X159792856Y-83978328D02*
X159792856Y-84335471D01*
X160149999Y-84192614D02*
X159792856Y-84335471D01*
X159792856Y-84335471D02*
X159435713Y-84192614D01*
X160007142Y-84621185D02*
X159792856Y-84335471D01*
X159792856Y-84335471D02*
X159578570Y-84621185D01*
X158649999Y-83978328D02*
X158649999Y-84335471D01*
X159007142Y-84192614D02*
X158649999Y-84335471D01*
X158649999Y-84335471D02*
X158292856Y-84192614D01*
X158864285Y-84621185D02*
X158649999Y-84335471D01*
X158649999Y-84335471D02*
X158435713Y-84621185D01*
X157507142Y-83978328D02*
X157507142Y-84335471D01*
X157864285Y-84192614D02*
X157507142Y-84335471D01*
X157507142Y-84335471D02*
X157149999Y-84192614D01*
X157721428Y-84621185D02*
X157507142Y-84335471D01*
X157507142Y-84335471D02*
X157292856Y-84621185D01*
D11*
X159592176Y-72158732D02*
X159760485Y-71366898D01*
X159760485Y-71366898D02*
X159826865Y-71283642D01*
X159826865Y-71283642D02*
X159883344Y-71246964D01*
X159883344Y-71246964D02*
X159986401Y-71220187D01*
X159986401Y-71220187D02*
X160172715Y-71259789D01*
X160172715Y-71259789D02*
X160255971Y-71326168D01*
X160255971Y-71326168D02*
X160292649Y-71382647D01*
X160292649Y-71382647D02*
X160319427Y-71485705D01*
X160319427Y-71485705D02*
X160151117Y-72277539D01*
X161036108Y-72465649D02*
X160849794Y-72426047D01*
X160849794Y-72426047D02*
X160766538Y-72359667D01*
X160766538Y-72359667D02*
X160729860Y-72303188D01*
X160729860Y-72303188D02*
X160666404Y-72143652D01*
X160666404Y-72143652D02*
X160659428Y-71947438D01*
X160659428Y-71947438D02*
X160738633Y-71574810D01*
X160738633Y-71574810D02*
X160805012Y-71491554D01*
X160805012Y-71491554D02*
X160861491Y-71454876D01*
X160861491Y-71454876D02*
X160964549Y-71428098D01*
X160964549Y-71428098D02*
X161150863Y-71467701D01*
X161150863Y-71467701D02*
X161234119Y-71534080D01*
X161234119Y-71534080D02*
X161270797Y-71590559D01*
X161270797Y-71590559D02*
X161297574Y-71693617D01*
X161297574Y-71693617D02*
X161248071Y-71926509D01*
X161248071Y-71926509D02*
X161181692Y-72009765D01*
X161181692Y-72009765D02*
X161125213Y-72046443D01*
X161125213Y-72046443D02*
X161022155Y-72073221D01*
X161022155Y-72073221D02*
X160835842Y-72033618D01*
X160835842Y-72033618D02*
X160752585Y-71967239D01*
X160752585Y-71967239D02*
X160715907Y-71910760D01*
X160715907Y-71910760D02*
X160689130Y-71807702D01*
X160220868Y-72865528D02*
X160171365Y-73098420D01*
X160424058Y-73054766D02*
X160171365Y-73098420D01*
X160171365Y-73098420D02*
X159958274Y-72955761D01*
X160271498Y-73314436D02*
X160171365Y-73098420D01*
X160171365Y-73098420D02*
X159992027Y-73255032D01*
X159994169Y-73932063D02*
X160043672Y-73699171D01*
X159790979Y-73742825D02*
X160043672Y-73699171D01*
X160043672Y-73699171D02*
X160256763Y-73841830D01*
X159943539Y-73483155D02*
X160043672Y-73699171D01*
X160043672Y-73699171D02*
X160223010Y-73542559D01*
D12*
X145913842Y-108032380D02*
X145974318Y-108213809D01*
X145974318Y-108213809D02*
X145974318Y-108516190D01*
X145974318Y-108516190D02*
X145913842Y-108637142D01*
X145913842Y-108637142D02*
X145853365Y-108697618D01*
X145853365Y-108697618D02*
X145732413Y-108758095D01*
X145732413Y-108758095D02*
X145611461Y-108758095D01*
X145611461Y-108758095D02*
X145490508Y-108697618D01*
X145490508Y-108697618D02*
X145430032Y-108637142D01*
X145430032Y-108637142D02*
X145369556Y-108516190D01*
X145369556Y-108516190D02*
X145309080Y-108274285D01*
X145309080Y-108274285D02*
X145248603Y-108153333D01*
X145248603Y-108153333D02*
X145188127Y-108092856D01*
X145188127Y-108092856D02*
X145067175Y-108032380D01*
X145067175Y-108032380D02*
X144946222Y-108032380D01*
X144946222Y-108032380D02*
X144825270Y-108092856D01*
X144825270Y-108092856D02*
X144764794Y-108153333D01*
X144764794Y-108153333D02*
X144704318Y-108274285D01*
X144704318Y-108274285D02*
X144704318Y-108576666D01*
X144704318Y-108576666D02*
X144764794Y-108758095D01*
X145127651Y-109846666D02*
X145974318Y-109846666D01*
X144643842Y-109544285D02*
X145550984Y-109241904D01*
X145550984Y-109241904D02*
X145550984Y-110028095D01*
X158913842Y-108032380D02*
X158974318Y-108213809D01*
X158974318Y-108213809D02*
X158974318Y-108516190D01*
X158974318Y-108516190D02*
X158913842Y-108637142D01*
X158913842Y-108637142D02*
X158853365Y-108697618D01*
X158853365Y-108697618D02*
X158732413Y-108758095D01*
X158732413Y-108758095D02*
X158611461Y-108758095D01*
X158611461Y-108758095D02*
X158490508Y-108697618D01*
X158490508Y-108697618D02*
X158430032Y-108637142D01*
X158430032Y-108637142D02*
X158369556Y-108516190D01*
X158369556Y-108516190D02*
X158309080Y-108274285D01*
X158309080Y-108274285D02*
X158248603Y-108153333D01*
X158248603Y-108153333D02*
X158188127Y-108092856D01*
X158188127Y-108092856D02*
X158067175Y-108032380D01*
X158067175Y-108032380D02*
X157946222Y-108032380D01*
X157946222Y-108032380D02*
X157825270Y-108092856D01*
X157825270Y-108092856D02*
X157764794Y-108153333D01*
X157764794Y-108153333D02*
X157704318Y-108274285D01*
X157704318Y-108274285D02*
X157704318Y-108576666D01*
X157704318Y-108576666D02*
X157764794Y-108758095D01*
X157704318Y-109181428D02*
X157704318Y-109967619D01*
X157704318Y-109967619D02*
X158188127Y-109544285D01*
X158188127Y-109544285D02*
X158188127Y-109725714D01*
X158188127Y-109725714D02*
X158248603Y-109846666D01*
X158248603Y-109846666D02*
X158309080Y-109907142D01*
X158309080Y-109907142D02*
X158430032Y-109967619D01*
X158430032Y-109967619D02*
X158732413Y-109967619D01*
X158732413Y-109967619D02*
X158853365Y-109907142D01*
X158853365Y-109907142D02*
X158913842Y-109846666D01*
X158913842Y-109846666D02*
X158974318Y-109725714D01*
X158974318Y-109725714D02*
X158974318Y-109362857D01*
X158974318Y-109362857D02*
X158913842Y-109241904D01*
X158913842Y-109241904D02*
X158853365Y-109181428D01*
X152967619Y-116113842D02*
X152786190Y-116174318D01*
X152786190Y-116174318D02*
X152483809Y-116174318D01*
X152483809Y-116174318D02*
X152362857Y-116113842D01*
X152362857Y-116113842D02*
X152302381Y-116053365D01*
X152302381Y-116053365D02*
X152241904Y-115932413D01*
X152241904Y-115932413D02*
X152241904Y-115811461D01*
X152241904Y-115811461D02*
X152302381Y-115690508D01*
X152302381Y-115690508D02*
X152362857Y-115630032D01*
X152362857Y-115630032D02*
X152483809Y-115569556D01*
X152483809Y-115569556D02*
X152725714Y-115509080D01*
X152725714Y-115509080D02*
X152846666Y-115448603D01*
X152846666Y-115448603D02*
X152907143Y-115388127D01*
X152907143Y-115388127D02*
X152967619Y-115267175D01*
X152967619Y-115267175D02*
X152967619Y-115146222D01*
X152967619Y-115146222D02*
X152907143Y-115025270D01*
X152907143Y-115025270D02*
X152846666Y-114964794D01*
X152846666Y-114964794D02*
X152725714Y-114904318D01*
X152725714Y-114904318D02*
X152423333Y-114904318D01*
X152423333Y-114904318D02*
X152241904Y-114964794D01*
X151758095Y-115025270D02*
X151697619Y-114964794D01*
X151697619Y-114964794D02*
X151576666Y-114904318D01*
X151576666Y-114904318D02*
X151274285Y-114904318D01*
X151274285Y-114904318D02*
X151153333Y-114964794D01*
X151153333Y-114964794D02*
X151092857Y-115025270D01*
X151092857Y-115025270D02*
X151032380Y-115146222D01*
X151032380Y-115146222D02*
X151032380Y-115267175D01*
X151032380Y-115267175D02*
X151092857Y-115448603D01*
X151092857Y-115448603D02*
X151818571Y-116174318D01*
X151818571Y-116174318D02*
X151032380Y-116174318D01*
X152967619Y-103113842D02*
X152786190Y-103174318D01*
X152786190Y-103174318D02*
X152483809Y-103174318D01*
X152483809Y-103174318D02*
X152362857Y-103113842D01*
X152362857Y-103113842D02*
X152302381Y-103053365D01*
X152302381Y-103053365D02*
X152241904Y-102932413D01*
X152241904Y-102932413D02*
X152241904Y-102811461D01*
X152241904Y-102811461D02*
X152302381Y-102690508D01*
X152302381Y-102690508D02*
X152362857Y-102630032D01*
X152362857Y-102630032D02*
X152483809Y-102569556D01*
X152483809Y-102569556D02*
X152725714Y-102509080D01*
X152725714Y-102509080D02*
X152846666Y-102448603D01*
X152846666Y-102448603D02*
X152907143Y-102388127D01*
X152907143Y-102388127D02*
X152967619Y-102267175D01*
X152967619Y-102267175D02*
X152967619Y-102146222D01*
X152967619Y-102146222D02*
X152907143Y-102025270D01*
X152907143Y-102025270D02*
X152846666Y-101964794D01*
X152846666Y-101964794D02*
X152725714Y-101904318D01*
X152725714Y-101904318D02*
X152423333Y-101904318D01*
X152423333Y-101904318D02*
X152241904Y-101964794D01*
X151032380Y-103174318D02*
X151758095Y-103174318D01*
X151395238Y-103174318D02*
X151395238Y-101904318D01*
X151395238Y-101904318D02*
X151516190Y-102085746D01*
X151516190Y-102085746D02*
X151637142Y-102206699D01*
X151637142Y-102206699D02*
X151758095Y-102267175D01*
X142174318Y-68003809D02*
X142174318Y-67399047D01*
X142174318Y-67399047D02*
X140904318Y-67399047D01*
X141509080Y-68427142D02*
X141509080Y-68850476D01*
X142174318Y-69031904D02*
X142174318Y-68427142D01*
X142174318Y-68427142D02*
X140904318Y-68427142D01*
X140904318Y-68427142D02*
X140904318Y-69031904D01*
X142174318Y-69576190D02*
X140904318Y-69576190D01*
X140904318Y-69576190D02*
X140904318Y-69878571D01*
X140904318Y-69878571D02*
X140964794Y-70060000D01*
X140964794Y-70060000D02*
X141085746Y-70180952D01*
X141085746Y-70180952D02*
X141206699Y-70241429D01*
X141206699Y-70241429D02*
X141448603Y-70301905D01*
X141448603Y-70301905D02*
X141630032Y-70301905D01*
X141630032Y-70301905D02*
X141871937Y-70241429D01*
X141871937Y-70241429D02*
X141992889Y-70180952D01*
X141992889Y-70180952D02*
X142113842Y-70060000D01*
X142113842Y-70060000D02*
X142174318Y-69878571D01*
X142174318Y-69878571D02*
X142174318Y-69576190D01*
X142174318Y-71511429D02*
X142174318Y-70785714D01*
X142174318Y-71148571D02*
X140904318Y-71148571D01*
X140904318Y-71148571D02*
X141085746Y-71027619D01*
X141085746Y-71027619D02*
X141206699Y-70906667D01*
X141206699Y-70906667D02*
X141267175Y-70785714D01*
D13*
%TO.C,U6*%
X157859362Y-68454534D02*
X158740046Y-68641729D01*
X164172325Y-69796395D02*
X163425069Y-73311956D01*
X163425069Y-73311956D02*
X160966936Y-72789463D01*
X157112107Y-71970094D02*
X157859362Y-68454534D01*
X159570240Y-72492586D02*
X157112107Y-71970094D01*
X163291641Y-69609200D02*
X164172325Y-69796395D01*
D14*
%TO.C,S4*%
X143150000Y-107400000D02*
X143150000Y-110400000D01*
X143150000Y-110400000D02*
X143150000Y-110600000D01*
X144600000Y-106750000D02*
X146200000Y-106750000D01*
X144500000Y-111250000D02*
X146200000Y-111250000D01*
X147650000Y-107400000D02*
X147650000Y-110600000D01*
D15*
X142600000Y-106875000D02*
X142600000Y-106875000D01*
X142700000Y-106875000D02*
X142700000Y-106875000D01*
X142600000Y-106875000D02*
G75*
G02*
X142700000Y-106875000I50000J0D01*
G01*
X142700000Y-106875000D02*
G75*
G02*
X142600000Y-106875000I-50000J0D01*
G01*
D14*
%TO.C,S3*%
X156150000Y-107400000D02*
X156150000Y-110400000D01*
X156150000Y-110400000D02*
X156150000Y-110600000D01*
X157600000Y-106750000D02*
X159200000Y-106750000D01*
X157500000Y-111250000D02*
X159200000Y-111250000D01*
X160650000Y-107400000D02*
X160650000Y-110600000D01*
D15*
X155600000Y-106875000D02*
X155600000Y-106875000D01*
X155700000Y-106875000D02*
X155700000Y-106875000D01*
X155600000Y-106875000D02*
G75*
G02*
X155700000Y-106875000I50000J0D01*
G01*
X155700000Y-106875000D02*
G75*
G02*
X155600000Y-106875000I-50000J0D01*
G01*
D14*
%TO.C,S2*%
X153600000Y-113350000D02*
X150600000Y-113350000D01*
X150600000Y-113350000D02*
X150400000Y-113350000D01*
X154250000Y-114800000D02*
X154250000Y-116400000D01*
X149750000Y-114700000D02*
X149750000Y-116400000D01*
X153600000Y-117850000D02*
X150400000Y-117850000D01*
D15*
X154125000Y-112800000D02*
X154125000Y-112800000D01*
X154125000Y-112900000D02*
X154125000Y-112900000D01*
X154125000Y-112800000D02*
G75*
G02*
X154125000Y-112900000I0J-50000D01*
G01*
X154125000Y-112900000D02*
G75*
G02*
X154125000Y-112800000I0J50000D01*
G01*
D14*
%TO.C,S1*%
X153600000Y-100350000D02*
X150600000Y-100350000D01*
X150600000Y-100350000D02*
X150400000Y-100350000D01*
X154250000Y-101800000D02*
X154250000Y-103400000D01*
X149750000Y-101700000D02*
X149750000Y-103400000D01*
X153600000Y-104850000D02*
X150400000Y-104850000D01*
D15*
X154125000Y-99800000D02*
X154125000Y-99800000D01*
X154125000Y-99900000D02*
X154125000Y-99900000D01*
X154125000Y-99800000D02*
G75*
G02*
X154125000Y-99900000I0J-50000D01*
G01*
X154125000Y-99900000D02*
G75*
G02*
X154125000Y-99800000I0J50000D01*
G01*
D16*
%TO.C,M1*%
X163820300Y-118780000D02*
G75*
G02*
X163058300Y-118780000I-381000J0D01*
G01*
X163058300Y-118780000D02*
G75*
G02*
X163820300Y-118780000I381000J0D01*
G01*
D15*
%TO.C,LED1*%
X142650000Y-69100000D02*
X142650000Y-69500000D01*
X140550000Y-69100000D02*
X140550000Y-69500000D01*
X142200000Y-70800000D02*
X142200000Y-70800000D01*
X142200000Y-70900000D02*
X142200000Y-70900000D01*
X142200000Y-70800000D02*
G75*
G02*
X142200000Y-70900000I0J-50000D01*
G01*
X142200000Y-70900000D02*
G75*
G02*
X142200000Y-70800000I0J50000D01*
G01*
D16*
%TO.C,SW2*%
X141250152Y-119089426D02*
G75*
G02*
X140488152Y-119089426I-381000J0D01*
G01*
X140488152Y-119089426D02*
G75*
G02*
X141250152Y-119089426I381000J0D01*
G01*
%TD*%
M02*
