0
SECTION
2
HEADER
9
$INSUNITS
70
4
9
$ACADVER
1
AC1014
9
$HANDSEED
5
FFFF
0
ENDSEC
0
SECTION
2
TABLES
0
TABLE
2
VPORT
5
8
100
AcDbSymbolTable
0
ENDTAB
0
TABLE
2
LTYPE
5
5
100
AcDbSymbolTable
0
LTYPE
5
14
100
AcDbSymbolTableRecord
100
AcDbLinetypeTableRecord
2
BYBLOCK
70
0
0
LTYPE
5
15
100
AcDbSymbolTableRecord
100
AcDbLinetypeTableRecord
2
BYLAYER
70
0
0
LTYPE
5
16
100
AcDbSymbolTableRecord
100
AcDbLinetypeTableRecord
2
DASHED
70
0
3
Dashed __ __ __ __ __ __ __ __ __ __ __ __ __ _
72
65
73
2
40
0.75
49
0.5
74
0
49
-0.25
74
0
0
ENDTAB
0
TABLE
2
LAYER
5
2
100
AcDbSymbolTable
70
2
0
LAYER
5
50
100
AcDbSymbolTableRecord
100
AcDbLayerTableRecord
2
0
70
0
62
7
6
CONTINUOUS
0
ENDTAB
0
TABLE
2
STYLE
5
3
100
AcDbSymbolTable
70
1
0
STYLE
5
11
100
AcDbSymbolTableRecord
100
AcDbTextStyleTableRecord
2
STANDARD
70
0
0
ENDTAB
0
TABLE
2
VIEW
5
6
100
AcDbSymbolTable
70
0
0
ENDTAB
0
TABLE
2
UCS
5
7
100
AcDbSymbolTable
70
0
0
ENDTAB
0
TABLE
2
APPID
5
9
100
AcDbSymbolTable
70
2
0
APPID
5
12
100
AcDbSymbolTableRecord
100
AcDbRegAppTableRecord
2
ACAD
70
0
0
ENDTAB
0
TABLE
2
DIMSTYLE
5
A
100
AcDbSymbolTable
70
1
0
ENDTAB
0
TABLE
2
BLOCK_RECORD
5
1
100
AcDbSymbolTable
70
1
0
BLOCK_RECORD
5
1F
100
AcDbSymbolTableRecord
100
AcDbBlockTableRecord
2
*MODEL_SPACE
0
BLOCK_RECORD
5
1B
100
AcDbSymbolTableRecord
100
AcDbBlockTableRecord
2
*PAPER_SPACE
0
ENDTAB
0
ENDSEC
0
SECTION
2
BLOCKS
0
BLOCK
5
20
100
AcDbEntity
100
AcDbBlockBegin
2
*MODEL_SPACE
0
ENDBLK
5
21
100
AcDbEntity
100
AcDbBlockEnd
0
BLOCK
5
1C
100
AcDbEntity
100
AcDbBlockBegin
2
*PAPER_SPACE
0
ENDBLK
5
1D
100
AcDbEntity
100
AcDbBlockEnd
0
ENDSEC
0
SECTION
2
ENTITIES
0
LINE
5
100
100
AcDbEntity
8
0
100
AcDbLine
10
-43.999999016523361
20
-5.1999999061226845
30
0
11
-43.999999016523361
21
-39.013645646603614
31
0
0
LINE
5
101
100
AcDbEntity
8
0
100
AcDbLine
10
-45.169239141847768
20
-39.999220494081044
30
0
11
-63.799998573958874
21
-36.799999177455902
31
0
0
LINE
5
102
100
AcDbEntity
8
0
100
AcDbLine
10
-63.799998573958874
20
-36.799999177455902
30
0
11
-79.999998211860657
21
-30.999999307096004
31
0
0
LINE
5
103
100
AcDbEntity
8
0
100
AcDbLine
10
-79.999998211860657
20
-30.999999307096004
30
0
11
-92.799997925758362
21
-28.399999365210533
31
0
0
LINE
5
104
100
AcDbEntity
8
0
100
AcDbLine
10
-94.766496599267569
20
27.698726853488189
30
0
11
-79.874260531902365
21
30.019594812038651
31
0
0
LINE
5
105
100
AcDbEntity
8
0
100
AcDbLine
10
-79.874260531902365
20
30.019594812038651
30
0
11
-70.208910516326966
21
35.073849329888901
31
0
0
LINE
5
106
100
AcDbEntity
8
0
100
AcDbLine
10
-68.745518600159158
20
34.187695882663014
30
0
11
-68.745518600159187
21
-3.1999999061226769
31
0
0
LINE
5
107
100
AcDbEntity
8
0
100
AcDbLine
10
-67.745518600159173
20
-4.1999999061226809
30
0
11
-44.999999016523361
21
-4.1999999061226827
31
0
0
LWPOLYLINE
5
108
100
AcDbEntity
8
0
100
AcDbPolyline
90
16
70
1
43
0.0
10
-69.703072324968872
20
-8.4687157550305088
10
-69.703072324968872
20
-29.17832936532858
42
-0.4142135623730937
10
-70.703072324968858
20
-30.178329365328583
10
-73.599998332560062
20
-30.17832936532858
42
-0.41421356237309631
10
-74.599998332560062
20
-29.178329365328576
10
-74.599998332560062
20
-27.599999405443668
42
0.41421356237310025
10
-75.599998332560062
20
-26.599999405443672
10
-86.611857649440253
20
-26.599999405443675
42
-0.41421356237309764
10
-87.611857649440253
20
-25.599999405443672
10
-87.611857649440253
20
-12.558273152590742
42
0.41421356237309825
10
-88.611857649440253
20
-11.558273152590735
10
-89.688519101122665
20
-11.558273152590747
42
-0.41421356237309825
10
-90.688519101122665
20
-10.55827315259074
10
-90.688519101122665
20
-8.468715755030507
42
-0.41421356237309731
10
-89.688519101122665
20
-7.4687157550305026
10
-70.703072324968858
20
-7.4687157550305061
42
-0.41421356237309664
0
ARC
5
109
100
AcDbEntity
8
0
100
AcDbCircle
10
-90.832042168640641
20
-18.711601791707867
30
0
40
9.8862478931202915
210
0
220
0
230
1
100
AcDbArc
50
194.57830675270392
51
258.518008645252
0
ARC
5
110
100
AcDbEntity
8
0
100
AcDbCircle
10
-44.999999016523347
20
-39.013645646603614
30
0
40
0.99999999999998657
210
0
220
0
230
1
100
AcDbArc
50
-99.74364128703796
51
0
0
ARC
5
111
100
AcDbEntity
8
0
100
AcDbCircle
10
-44.999999016523361
20
-5.1999999061226791
30
0
40
0.99999999999999645
210
0
220
0
230
1
100
AcDbArc
50
0
51
90
0
ARC
5
112
100
AcDbEntity
8
0
100
AcDbCircle
10
-67.745518600159173
20
-3.1999999061226769
30
0
40
1.0000000000000053
210
0
220
0
230
1
100
AcDbArc
50
180
51
270
0
ARC
5
113
100
AcDbEntity
8
0
100
AcDbCircle
10
-69.745518600159158
20
34.187695882663014
30
0
40
0.99999999999999645
210
-0
220
0
230
1
100
AcDbArc
50
0
51
117.60619917916684
0
SPLINE
5
114
100
AcDbEntity
8
0
100
AcDbSpline
70
4
71
5
72
31
73
25
74
0
42
0.000000001
43
0.0000000001
44
0.0000000001
40
0
40
0
40
0
40
0
40
0
40
0
40
0.050000000000000003
40
0.10000000000000001
40
0.15000000000000002
40
0.20000000000000001
40
0.25
40
0.29999999999999999
40
0.34999999999999998
40
0.39999999999999997
40
0.44999999999999996
40
0.49999999999999994
40
0.54999999999999993
40
0.59999999999999998
40
0.65000000000000002
40
0.70000000000000007
40
0.75000000000000011
40
0.80000000000000016
40
0.8500000000000002
40
0.90000000000000024
40
0.95000000000000029
40
0.98540538489513141
40
0.98540538489513141
40
0.98540538489513141
40
0.98540538489513141
40
0.98540538489513141
40
0.98540538489513141
41
1
41
1
41
1
41
1
41
1
41
1
41
1
41
1
41
1
41
1
41
1
41
1
41
1
41
1
41
1
41
1
41
1
41
1
41
1
41
1
41
1
41
1
41
1
41
1
41
1
10
-100.39999775588512
20
-21.199999526143074
30
0
10
-100.41249826179745
20
-20.965326695889775
30
0
10
-100.43410795919641
20
-20.467882160305415
30
0
10
-100.45634888969126
20
-19.637422305141243
30
0
10
-100.46557035820028
20
-18.360837351877215
30
0
10
-100.44284185318554
20
-16.483413066552668
30
0
10
-100.38606559869774
20
-14.332323897784365
30
0
10
-100.29643159995688
20
-11.930379165279879
30
0
10
-100.17627590714825
20
-9.3178227118217247
30
0
10
-100.02832473605071
20
-6.5448216844185358
30
0
10
-99.85517699238352
20
-3.6665074743277377
30
0
10
-99.658699229605219
20
-0.73712809596706541
30
0
10
-99.439533077089735
20
2.1948777786891913
30
0
10
-99.19641915504738
20
5.0932105812242341
30
0
10
-98.926526957061128
20
7.9330465078522137
30
0
10
-98.626103416158202
20
10.698310612769504
30
0
10
-98.291024323692369
20
13.379840507891494
30
0
10
-97.917412366587286
20
15.973381079638305
30
0
10
-97.502259035329573
20
18.477842094151153
30
0
10
-97.0441147998188
20
20.893590773472972
30
0
10
-96.57187942585972
20
23.085888280560155
30
0
10
-96.170292045765535
20
24.753345323635834
30
0
10
-95.861332178459534
20
25.93994245059897
30
0
10
-95.660248160815513
20
26.676021228818712
30
0
10
-95.575820791604841
20
26.979046334835704
30
0
0
ARC
5
115
100
AcDbEntity
8
0
100
AcDbCircle
10
-94.612511178002677
20
26.710653733705104
30
0
40
1.0000000000000007
210
0
220
0
230
1
100
AcDbArc
50
98.857958763628091
51
164.43136038080527
0
CIRCLE
5
116
100
AcDbEntity
8
0
100
AcDbCircle
10
-88.54603011027443
20
9
30
0
40
5
210
0
220
-0
230
1
0
ARC
5
117
100
AcDbEntity
8
0
100
AcDbCircle
10
-76.546030110274444
20
3.9999999999999982
30
0
40
5.0000000000000036
210
0
220
-0
230
1
100
AcDbArc
50
81.37307344132121
51
222.88678978382183
0
CIRCLE
5
118
100
AcDbEntity
8
0
100
AcDbCircle
10
-76.546030110274444
20
4
30
0
40
5
210
0
220
-0
230
1
0
CIRCLE
5
119
100
AcDbEntity
8
0
100
AcDbCircle
10
-76.546030110274472
20
16.999999999999996
30
0
40
5
210
0
220
-0
230
1
0
CIRCLE
5
120
100
AcDbEntity
8
0
100
AcDbCircle
10
-88.54603011027443
20
21.999999999999996
30
0
40
5
210
0
220
-0
230
1
0
ENDSEC
0
SECTION
2
OBJECTS
0
DICTIONARY
5
C
100
AcDbDictionary
3
ACAD_GROUP
350
D
3
ACAD_MLINESTYLE
350
17
0
DICTIONARY
5
D
100
AcDbDictionary
0
DICTIONARY
5
1A
330
C
100
AcDbDictionary
0
DICTIONARY
5
17
100
AcDbDictionary
0
ENDSEC
0
EOF
